<?xml version="1.0" encoding="UTF-8" standalone="no"?>
<!-- Created with Inkscape (http://www.inkscape.org/) -->

<svg
   xmlns:dc="http://purl.org/dc/elements/1.1/"
   xmlns:cc="http://creativecommons.org/ns#"
   xmlns:rdf="http://www.w3.org/1999/02/22-rdf-syntax-ns#"
   xmlns:svg="http://www.w3.org/2000/svg"
   xmlns="http://www.w3.org/2000/svg"
   xmlns:sodipodi="http://sodipodi.sourceforge.net/DTD/sodipodi-0.dtd"
   xmlns:inkscape="http://www.inkscape.org/namespaces/inkscape"
   width="1024"
   height="500"
   viewBox="0 0 1024 499.99999"
   id="svg2"
   version="1.1"
   inkscape:version="0.91 r13725"
   inkscape:export-filename="C:\Users\gcgol\Desktop\Projects\Android Studio\pocketlaw-debug\app-latest\screenshots\logos\banner.png"
   inkscape:export-xdpi="90"
   inkscape:export-ydpi="90"
   sodipodi:docname="banner.svg">
  <defs
     id="defs4">
    <pattern
       y="0"
       x="0"
       height="6"
       width="6"
       patternUnits="userSpaceOnUse"
       id="EMFhbasepattern" />
    <pattern
       y="0"
       x="0"
       height="6"
       width="6"
       patternUnits="userSpaceOnUse"
       id="EMFhbasepattern-8" />
  </defs>
  <sodipodi:namedview
     id="base"
     pagecolor="#ffffff"
     bordercolor="#666666"
     borderopacity="1.0"
     inkscape:pageopacity="0.0"
     inkscape:pageshadow="2"
     inkscape:zoom="0.49497475"
     inkscape:cx="170.44602"
     inkscape:cy="190.89432"
     inkscape:document-units="px"
     inkscape:current-layer="layer1"
     showgrid="false"
     units="px"
     inkscape:window-width="1474"
     inkscape:window-height="841"
     inkscape:window-x="-8"
     inkscape:window-y="-8"
     inkscape:window-maximized="1" />
  <metadata
     id="metadata7">
    <rdf:RDF>
      <cc:Work
         rdf:about="">
        <dc:format>image/svg+xml</dc:format>
        <dc:type
           rdf:resource="http://purl.org/dc/dcmitype/StillImage" />
        <dc:title />
      </cc:Work>
    </rdf:RDF>
  </metadata>
  <g
     inkscape:groupmode="layer"
     id="layer2"
     inkscape:label="Layer 2"
     sodipodi:insensitive="true">
    <text
       xml:space="preserve"
       style="font-style:normal;font-variant:normal;font-weight:600;font-stretch:normal;font-size:116.00749969px;line-height:125%;font-family:'Adobe Hebrew';-inkscape-font-specification:'Adobe Hebrew, Semi-Bold';text-align:center;letter-spacing:0px;word-spacing:0px;writing-mode:lr-tb;text-anchor:middle;fill:#ffffff;fill-opacity:1;stroke:none;stroke-width:1px;stroke-linecap:butt;stroke-linejoin:miter;stroke-opacity:1"
       x="-291.54178"
       y="1741.1796"
       id="text5617-7-0-92-1-6-3"
       sodipodi:linespacing="125%"
       transform="scale(0.74754159,1.3377182)"><tspan
         y="1741.1796"
         x="-291.54178"
         sodipodi:role="line"
         id="tspan4246-6">IMMIGRATION</tspan></text>
    <rect
       style="fill:#ff0000;fill-opacity:1;stroke:none;stroke-width:2;stroke-miterlimit:4;stroke-dasharray:none;stroke-opacity:1"
       id="rect5600-6"
       width="1688.0812"
       height="1385.021"
       x="-1358.3263"
       y="1384.6323" />
    <rect
       style="fill:#ff0000;fill-opacity:1;stroke:none;stroke-width:2;stroke-miterlimit:4;stroke-dasharray:none;stroke-opacity:1"
       id="rect5600"
       width="1033.4637"
       height="502.16391"
       x="-7.8600988"
       y="-0.88549364" />
  </g>
  <g
     inkscape:label="Layer 1"
     inkscape:groupmode="layer"
     id="layer1"
     transform="translate(0,-552.36219)">
    <path
       style="fill:#ff0000;fill-rule:evenodd;stroke:none;stroke-width:1px;stroke-linecap:butt;stroke-linejoin:miter;stroke-opacity:1"
       d="m -250.87802,898.80099 3.57143,-61.42858 -95,14.99998 15.71429,-27.85712 -62.85715,-71.42857 27.85715,-6.42857 -7.14286,-36.42857 37.85714,6.42857 10,-27.85715 40,46.42858 -28.57143,-104.28572 27.14286,5.71429 40.31665,-42.93541 37.91754,42.69221 27.14286,-5.71429 -28.57143,104.28572 40,-46.42858 10,27.85715 37.85714,-6.42857 -7.14286,36.42857 27.857151,6.42857 -62.857151,71.42857 15.71429,27.85712 -95,-14.99998 3.57143,61.42858 -7.68852,-0.5927 z"
       id="path3338"
       inkscape:connector-curvature="0"
       sodipodi:nodetypes="ccccccccccccccccccccccccccc" />
    <flowRoot
       xml:space="preserve"
       id="flowRoot5623"
       style="font-style:normal;font-weight:normal;font-size:40px;line-height:125%;font-family:sans-serif;letter-spacing:0px;word-spacing:0px;fill:#000000;fill-opacity:1;stroke:none;stroke-width:1px;stroke-linecap:butt;stroke-linejoin:miter;stroke-opacity:1"><flowRegion
         id="flowRegion5625"><rect
           id="rect5627"
           width="238.57143"
           height="102.85714"
           x="57.142857"
           y="319.14285" /></flowRegion><flowPara
         id="flowPara5629" /></flowRoot>    <rect
       style="fill:#0000ff;fill-opacity:1;stroke:none;stroke-width:2;stroke-miterlimit:4;stroke-dasharray:none;stroke-opacity:1"
       id="rect5631"
       width="800"
       height="600"
       x="-897.14282"
       y="996.64789" />
    <g
       transform="scale(0.74288808,1.3460978)"
       style="font-style:normal;font-variant:normal;font-weight:bold;font-stretch:normal;font-size:180.09358215px;line-height:125%;font-family:'Adobe Arabic';-inkscape-font-specification:'Adobe Arabic, Bold';text-align:center;letter-spacing:0px;word-spacing:0px;writing-mode:lr-tb;text-anchor:middle;fill:#cccccc;fill-opacity:1;stroke:none;stroke-width:1px;stroke-linecap:butt;stroke-linejoin:miter;stroke-opacity:1"
       id="text5617" />
    <g
       transform="matrix(0.92119281,0,0,1.0855491,232.13204,855.99)"
       style="font-style:normal;font-variant:normal;font-weight:normal;font-stretch:normal;font-size:177.97544861px;line-height:125%;font-family:'Adobe Arabic';-inkscape-font-specification:'Adobe Arabic, Normal';text-align:start;letter-spacing:0px;word-spacing:0px;writing-mode:lr-tb;text-anchor:start;fill:#000080;fill-opacity:1;stroke:none;stroke-width:1px;stroke-linecap:butt;stroke-linejoin:miter;stroke-opacity:1"
       id="text5654">
      <path
         id="path5793"
         style="font-style:normal;font-variant:normal;font-weight:normal;font-stretch:normal;font-size:177.97544861px;line-height:125%;font-family:'Adobe Arabic';-inkscape-font-specification:'Adobe Arabic, Normal';text-align:start;writing-mode:lr-tb;text-anchor:start;fill:#000080"
         d="m 239.60366,868.05505 c -1.91185,5.12722 -4.34511,9.55923 -6.60456,12.25319 -2.95467,3.30228 -6.86526,4.1713 -16.33759,4.1713 -5.90934,0 -10.77586,0 -13.29602,-1.47733 -2.43326,-1.56424 -3.12847,-4.43201 -3.12847,-10.42825 l 0,-23.37666 11.90558,0 c 11.38417,0 12.3401,0.69522 14.16504,9.99374 l 3.91059,0 0,-24.9409 -3.91059,0 c -1.65114,8.60331 -2.52016,9.64613 -14.16504,9.64613 l -11.90558,0 0,-28.50388 c 0,-3.82369 0.2607,-4.1713 4.51891,-4.1713 l 9.64613,0 c 8.95091,0 12.51389,0.86902 14.42574,3.64989 1.65114,2.78087 3.04157,5.73554 4.2582,11.03656 l 3.9975,-0.52141 c -0.52142,-7.12597 -1.04283,-15.55547 -1.21663,-18.85775 l -58.91961,0 0,3.82369 c 10.08064,0.86902 11.21037,1.21663 11.21037,12.86151 l 0,49.79489 c 0,10.42825 -1.12973,11.64488 -12.86151,12.5139 l 0,3.64988 63.78612,0 c 1.12973,-4.08439 3.64989,-15.81617 4.51891,-20.59579 l -3.99749,-0.52141 z m -159.986725,-61.52667 0,3.9106 c 9.99374,0.78211 11.12346,1.30353 11.12346,12.25319 l 0,50.4032 c 0,10.86276 -1.12972,11.64488 -12.25319,12.427 l 0,3.64988 32.327575,0 c 16.07689,0 29.37291,-3.30227 39.36664,-10.51515 10.16755,-7.47357 16.33759,-18.85775 16.33759,-33.89181 0,-11.90558 -4.69271,-21.2041 -11.12346,-27.37415 -8.08189,-7.47358 -20.7696,-10.86276 -37.36789,-10.86276 l -38.410725,0 z m 23.289765,13.55673 c 0,-4.95342 0.43451,-6.51766 1.65113,-7.38668 1.39044,-0.86902 4.60581,-1.73804 10.42825,-1.73804 9.29853,0 17.11971,1.91184 23.11596,5.90934 9.55922,5.99624 14.68645,16.7721 14.68645,29.89431 0,19.98748 -11.64488,37.6286 -35.89056,37.6286 -9.55923,0 -13.99123,-2.34636 -13.99123,-12.427 l 0,-51.88053 z M 25.650745,804.61654 c -28.2431696,0 -45.53668,21.0303 -45.53668,44.05935 0,24.50638 19.4660604,42.49511 43.88554,42.49511 24.68019,0 45.27598,-16.9459 45.27598,-44.40696 0,-25.46231 -20.68269,-42.1475 -43.53794,-42.1475 l -0.0869,0 z m -2.69396,4.77961 c 17.11971,0 31.89306,14.07814 31.89306,40.75707 0,24.59329 -13.38292,36.23817 -27.98247,36.23817 -18.6839396,0 -32.5013696,-17.64112 -32.5013696,-41.01778 0,-24.07188 13.90433,-35.97746 28.5038796,-35.97746 l 0.0869,0 z m -56.48635,56.48635 c -6.86527,13.12221 -14.25194,20.33508 -27.72177,20.33508 -20.42198,0 -35.10843,-15.98998 -35.10843,-39.97495 0,-18.94465 11.81868,-36.84648 33.97871,-36.84648 14.16504,0 22.85524,5.56173 26.41823,19.63987 l 3.91059,-0.86902 c -0.78212,-7.21287 -1.73804,-12.6877 -2.78086,-19.90058 -3.64989,-0.60831 -13.03532,-3.64988 -24.15878,-3.64988 -30.15502,0 -51.793635,17.55422 -51.793635,44.32005 0,20.07438 14.947155,42.23441 48.491355,42.23441 9.64613,0 21.1172,-2.78086 24.94089,-3.64988 2.25946,-4.0844 5.82244,-14.07814 7.56049,-20.16129 l -3.73679,-1.47733 z M 320.16899,760.13453 c -2.12747,8.28723 -4.04218,13.30318 -6.02782,16.6835 -2.48204,4.25264 -6.3824,5.34307 -10.92098,5.34307 -3.33304,0 -6.09873,-0.10899 -8.08437,-1.19946 -2.19838,-1.41755 -2.55296,-4.14361 -2.55296,-11.66754 l 0,-62.26322 c 0,-13.6303 0.99282,-14.61167 9.1481,-15.70211 l 0,-5.6702 -32.55021,0 0,5.6702 c 8.2262,1.09044 9.36084,2.07181 9.36084,15.70211 l 0,60.73662 c 0,13.84839 -1.13464,14.72073 -10.5664,15.9202 l 0,5.67019 51.98105,0 c 0.78007,-4.47072 3.04937,-20.49996 3.90036,-27.47868 l -3.68761,-1.74468 z m -56.87422,29.22336 0,-5.67019 c -6.80789,-1.30851 -8.2262,-3.48937 -11.77197,-17.55583 -6.94972,-27.2606 -13.54487,-55.06641 -20.35276,-82.87223 l -5.46048,2.07181 -21.77106,81.34563 c -3.6167,13.73935 -4.75134,15.70211 -11.98472,17.01062 l -0.14183,5.67019 23.75669,0 0,-5.67019 c -7.72979,-1.5266 -7.94254,-3.81649 -6.3824,-11.12233 1.20557,-6.4335 2.69479,-12.32179 3.90035,-17.55583 l 20.5655,0 c 1.77288,6.86967 3.40394,13.73935 4.46767,18.42817 1.56014,6.76062 1.13465,8.61435 -5.17683,10.24999 l 0,5.67019 30.35184,0 z m -31.62831,-42.85366 -16.73606,0 c 2.69479,-11.34041 5.53141,-22.89891 8.50985,-34.34835 l 0.28367,0 7.94254,34.34835 z m -39.00352,-60.84566 -25.81324,0 0,5.6702 c 7.8007,0.65426 9.99908,3.48937 10.49549,10.68616 0.21275,4.57979 0.85099,11.88562 0.85099,26.06113 l 0,27.91486 -0.28367,0 -41.62739,-70.33235 -19.64359,0 0,5.6702 c 4.39675,0.65426 6.80789,1.74468 8.79352,5.56118 2.05655,3.81648 2.2693,6.65158 2.2693,17.0106 l 0,33.25794 c 0,14.06646 -0.63825,20.71806 -1.06374,26.17018 -0.4255,6.97871 -2.97845,9.48669 -8.79352,10.35903 l 0,5.67019 25.95507,0 0,-5.67019 c -7.87162,-0.65426 -9.71542,-3.70745 -10.21183,-11.01328 -0.35458,-4.79787 -0.85098,-11.44947 -0.85098,-25.51593 l 0.0709,-36.09303 0.21275,0 45.24408,80.03712 4.96409,0 0,-63.02652 c 0,-14.17551 0.63824,-21.48134 1.06373,-26.38826 0.49641,-7.74201 2.76571,-9.81382 8.36804,-10.35903 l 0,-5.6702 z m -82.12014,103.69932 0,-5.67019 c -7.94253,-1.19947 -8.86443,-2.07181 -8.86443,-15.81115 l 0,-60.84567 c 0,-13.6303 0.9219,-14.61167 8.86443,-15.70211 l 0,-5.6702 -31.911975,0 0,5.6702 c 7.94254,1.09044 9.00627,2.07181 9.00627,15.70211 l 0,60.84567 c 0,13.73934 -1.06373,14.61168 -9.00627,15.81115 l 0,5.67019 31.911975,0 z m -38.932615,0 0,-5.67019 c -8.50986,-1.30851 -8.86444,-2.72606 -9.07719,-17.55583 l -1.06373,-58.55578 c -0.21275,-13.52125 0.21275,-14.9388 8.79352,-16.24732 l 0,-5.6702 -21.20373,0 -21.27465,70.22331 -20.8491596,-70.22331 -21.9128804,0 0,5.6702 c 9.2190104,1.30852 9.9990804,3.70745 9.0771804,21.91753 l -1.63106,30.53187 c -0.85098,17.33775 -1.63105,25.40689 -2.26929,30.53188 -0.7091604,5.56116 -2.7657104,8.50531 -8.7935204,9.37765 l 0,5.67019 25.7423204,0 0,-5.67019 c -7.16247,-0.98138 -9.07718,-2.39893 -9.64451,-9.37765 -0.35457,-5.12499 -0.4964,-12.53987 -0.0709,-25.73401 l 1.4183,-41.76324 0.4255,0 21.9837996,81.56372 2.83662,0 23.8276,-82.87224 0.56733,0 0.14183,60.62759 c 0.14183,14.82977 -0.49641,16.24732 -8.43894,17.55583 l 0,5.67019 31.41556,0 z m -96.37416,0 0,-5.67019 c -7.94254,-1.19947 -8.86444,-2.07181 -8.86444,-15.81115 l 0,-60.84567 c 0,-13.6303 0.9219,-14.61167 8.86444,-15.70211 l 0,-5.6702 -31.91198,0 0,5.6702 c 7.94254,1.09044 9.00628,2.07181 9.00628,15.70211 l 0,60.84567 c 0,13.73934 -1.06374,14.61168 -9.00628,15.81115 l 0,5.67019 31.91198,0 z m -36.09599,-3.92551 c -2.48204,-1.30852 -4.11309,-2.94415 -6.31148,-6.54255 -2.05654,-3.38032 -4.39676,-8.61435 -8.15528,-17.44678 -3.19119,-7.30585 -7.09155,-17.88296 -8.65169,-22.57178 7.02064,-4.14361 13.19029,-11.77658 13.19029,-25.9521 0,-9.81381 -2.90754,-16.90158 -7.02064,-21.26327 -4.32584,-4.47074 -9.71542,-5.99733 -19.28902,-5.99733 l -29.429925,0 0,5.6702 c 7.72979,0.98139 8.79352,2.83511 8.79352,15.59308 l 0,60.9547 c 0,13.08509 -1.34739,14.50264 -9.21901,15.81115 l 0,5.67019 31.982885,0 0,-5.67019 c -8.013445,-1.30851 -9.077185,-2.72606 -9.077185,-15.81115 l 0,-23.00795 2.05656,0 c 3.403935,0 5.389575,1.96276 7.162455,6.65158 3.12028,8.50531 5.88599,17.01062 8.65169,23.55317 4.25493,10.0319 8.36803,14.61167 21.84197,15.59306 1.20557,0 2.34021,0.109 2.83663,0.109 l 0.63823,-5.34308 z m -43.187535,-46.88824 0,-38.92814 c 0,-3.16223 0.21275,-4.90691 0.92191,-5.88829 0.78007,-0.98138 2.19838,-1.74468 4.964075,-1.74468 6.02782,0 12.55205,6.21542 12.55205,23.22604 0,8.06913 -1.48923,14.28454 -5.10592,19.08241 -2.34021,3.16224 -6.09873,4.25266 -10.708235,4.25266 l -2.62388,0 z m -32.26655,20.49997 c -5.53141,16.68348 -12.33929,25.07975 -21.48739,25.07975 -15.03409,0 -25.88416,-19.19146 -25.88416,-48.63291 0,-23.33507 8.58078,-45.03452 24.67859,-45.03452 8.43895,0 17.23247,5.56116 20.5655,24.86167 l 3.90035,-0.98137 c -0.63824,-10.57712 -1.56014,-17.88296 -2.48205,-26.60636 -2.7657,-0.98137 -10.92098,-4.47073 -19.92725,-4.47073 -25.74232,0 -42.83296,22.57177 -42.83296,55.39355 0,25.40687 12.26838,53.21269 40.84733,53.21269 7.23338,0 17.51613,-3.48936 20.28183,-4.3617 1.77289,-5.45212 4.60951,-17.992 6.09873,-25.9521 l -3.75852,-2.50797 z m 186.639115,-90.06382 2.91133,-40.95379 -77.44155,10.00033 12.80988,-18.57206 -51.23953,-47.62068 22.70843,-4.28586 -5.82267,-24.28655 30.86016,4.28586 8.1517504,-18.57207 32.6069696,30.95345 -23.2906896,-69.5262 22.1261596,3.80965 32.86509,-28.62459 30.90941,28.46246 22.126165,-3.80966 -23.290705,69.5262 32.606985,-30.95345 8.15173,18.57207 30.86018,-4.28586 -5.82268,24.28655 22.70844,4.28586 -51.23954,47.62068 12.80988,18.57206 -77.441565,-10.00033 2.91135,40.95379 -6.26749,-0.39515 z"
         inkscape:connector-curvature="0" />
    </g>
    <text
       xml:space="preserve"
       style="font-style:normal;font-variant:normal;font-weight:600;font-stretch:normal;font-size:116.00772858px;line-height:125%;font-family:'Adobe Hebrew';-inkscape-font-specification:'Adobe Hebrew, Semi-Bold';text-align:center;letter-spacing:0px;word-spacing:0px;writing-mode:lr-tb;text-anchor:middle;fill:#ffffff;fill-opacity:1;stroke:none;stroke-width:1px;stroke-linecap:butt;stroke-linejoin:miter;stroke-opacity:1"
       x="-454.32523"
       y="853.06378"
       id="text5617-7"
       sodipodi:linespacing="125%"
       transform="scale(0.74754159,1.3377182)"><tspan
         sodipodi:role="line"
         id="tspan5619-9"
         x="-454.32523"
         y="853.06378"
         style="font-style:normal;font-variant:normal;font-weight:600;font-stretch:normal;font-size:116.00772858px;line-height:125%;font-family:'Adobe Hebrew';-inkscape-font-specification:'Adobe Hebrew, Semi-Bold';text-align:center;writing-mode:lr-tb;text-anchor:middle;fill:#ffffff">CRIMINAL</tspan><tspan
         sodipodi:role="line"
         x="-454.32523"
         y="998.07343"
         style="font-style:normal;font-variant:normal;font-weight:600;font-stretch:normal;font-size:116.00772858px;line-height:125%;font-family:'Adobe Hebrew';-inkscape-font-specification:'Adobe Hebrew, Semi-Bold';text-align:center;writing-mode:lr-tb;text-anchor:middle;fill:#ffffff"
         id="tspan5621-0" /></text>
    <text
       xml:space="preserve"
       style="font-style:normal;font-variant:normal;font-weight:normal;font-stretch:normal;font-size:114.49234009px;line-height:125%;font-family:'Adobe Hebrew';-inkscape-font-specification:'Adobe Hebrew, Normal';text-align:start;letter-spacing:0px;word-spacing:0px;writing-mode:lr-tb;text-anchor:start;fill:#000000;fill-opacity:1;stroke:none;stroke-width:1px;stroke-linecap:butt;stroke-linejoin:miter;stroke-opacity:1"
       x="-603.01074"
       y="975.77539"
       id="text5654-2"
       sodipodi:linespacing="125%"
       transform="scale(0.77619473,1.2883365)"><tspan
         sodipodi:role="line"
         id="tspan5656-7"
         x="-603.01074"
         y="975.77539"
         style="font-style:normal;font-variant:normal;font-weight:600;font-stretch:normal;font-size:114.49234009px;line-height:125%;font-family:'Adobe Hebrew';-inkscape-font-specification:'Adobe Hebrew, Semi-Bold';text-align:start;writing-mode:lr-tb;text-anchor:start;fill:#ffffff">CODE</tspan></text>
    <g
       transform="scale(0.74288808,1.3460978)"
       style="font-style:normal;font-variant:normal;font-weight:bold;font-stretch:normal;font-size:180.09358215px;line-height:125%;font-family:'Adobe Arabic';-inkscape-font-specification:'Adobe Arabic, Bold';text-align:center;letter-spacing:0px;word-spacing:0px;writing-mode:lr-tb;text-anchor:middle;fill:#ffffff;fill-opacity:1;stroke:none;stroke-width:1px;stroke-linecap:butt;stroke-linejoin:miter;stroke-opacity:1"
       id="text5617-3" />
    <path
       style="font-style:normal;font-variant:normal;font-weight:normal;font-stretch:normal;font-size:177.97544861px;line-height:125%;font-family:'Adobe Arabic';-inkscape-font-specification:'Adobe Arabic, Normal';text-align:start;letter-spacing:0px;word-spacing:0px;writing-mode:lr-tb;text-anchor:start;fill:#ffffff;fill-opacity:1;stroke:none;stroke-width:1px;stroke-linecap:butt;stroke-linejoin:miter;stroke-opacity:1"
       d="m -182.20508,1499.0887 c -1.76117,5.5658 -4.00267,10.377 -6.08406,13.3014 -2.72182,3.5848 -6.32424,4.5282 -15.05007,4.5282 -5.44364,0 -9.92665,0 -12.2482,-1.6038 -2.2415,-1.698 -2.88193,-4.8111 -2.88193,-11.3203 l 0,-25.3765 10.96734,0 c 10.48702,0 11.3676,0.7547 13.04873,10.8487 l 3.60241,0 0,-27.0746 -3.60241,0 c -1.52102,9.3393 -2.32155,10.4714 -13.04873,10.4714 l -10.96734,0 0,-30.9424 c 0,-4.1508 0.24016,-4.5282 4.16278,-4.5282 l 8.88595,0 c 8.24552,0 11.52771,0.9434 13.2889,3.9622 1.52101,3.0187 2.80187,6.2262 3.92262,11.9807 l 3.68246,-0.566 c -0.48032,-7.7356 -0.96064,-16.8862 -1.12074,-20.471 l -54.27632,0 0,4.1508 c 9.28621,0.9433 10.32691,1.3207 10.32691,13.9618 l 0,54.0547 c 0,11.3204 -1.0407,12.6411 -11.84793,13.5845 l 0,3.9621 58.75931,0 c 1.0407,-4.4338 3.36225,-17.1692 4.16279,-22.3577 l -3.68247,-0.566 z"
       id="path4182"
       inkscape:connector-curvature="0" />
    <path
       style="font-style:normal;font-variant:normal;font-weight:normal;font-stretch:normal;font-size:177.97544861px;line-height:125%;font-family:'Adobe Arabic';-inkscape-font-specification:'Adobe Arabic, Normal';text-align:start;letter-spacing:0px;word-spacing:0px;writing-mode:lr-tb;text-anchor:start;fill:#ffffff;fill-opacity:1;stroke:none;stroke-width:1px;stroke-linecap:butt;stroke-linejoin:miter;stroke-opacity:1"
       d="m -329.58368,1432.2985 0,4.2451 c 9.20616,0.849 10.24685,1.4151 10.24685,13.3015 l 0,54.7151 c 0,11.792 -1.04069,12.6411 -11.28755,13.4901 l 0,3.9621 29.77992,0 c 14.80992,0 27.05811,-3.5848 36.26427,-11.4147 9.36626,-8.1129 15.05007,-20.471 15.05007,-36.7912 0,-12.9241 -4.32289,-23.0181 -10.24685,-29.716 -7.44499,-8.1129 -19.13281,-11.792 -34.42304,-11.792 l -35.38367,0 z"
       id="path4180"
       inkscape:connector-curvature="0" />
    <path
       style="font-style:normal;font-variant:normal;font-weight:normal;font-stretch:normal;font-size:177.97544861px;line-height:125%;font-family:'Adobe Arabic';-inkscape-font-specification:'Adobe Arabic, Normal';text-align:start;letter-spacing:0px;word-spacing:0px;writing-mode:lr-tb;text-anchor:start;fill:#ffffff;fill-opacity:1;stroke:none;stroke-width:1px;stroke-linecap:butt;stroke-linejoin:miter;stroke-opacity:1"
       d="m -308.12933,1447.015 c 0,-5.3772 0.40026,-7.0753 1.52102,-8.0186 1.28086,-0.9434 4.24283,-1.8868 9.60642,-1.8868 8.56573,0 15.77056,2.0754 21.29425,6.4149 8.80589,6.5092 13.52905,18.207 13.52905,32.4518 0,21.6973 -10.72717,40.8476 -33.06211,40.8476 -8.8059,0 -12.88863,-2.5471 -12.88863,-13.4901 l 0,-56.3188 z"
       id="path4178"
       inkscape:connector-curvature="0" />
    <path
       style="font-style:normal;font-variant:normal;font-weight:normal;font-stretch:normal;font-size:177.97544861px;line-height:125%;font-family:'Adobe Arabic';-inkscape-font-specification:'Adobe Arabic, Normal';text-align:start;letter-spacing:0px;word-spacing:0px;writing-mode:lr-tb;text-anchor:start;fill:#ffffff;fill-opacity:1;stroke:none;stroke-width:1px;stroke-linecap:butt;stroke-linejoin:miter;stroke-opacity:1"
       d="m -379.29695,1430.2231 c -26.0174,0 -41.94807,22.8294 -41.94807,47.8286 0,26.6028 17.93201,46.1305 40.42705,46.1305 22.73522,0 41.70791,-18.3956 41.70791,-48.2059 0,-27.6406 -19.05274,-45.7532 -40.10684,-45.7532 l -0.08,0 z"
       id="path4176"
       inkscape:connector-curvature="0" />
    <path
       style="font-style:normal;font-variant:normal;font-weight:normal;font-stretch:normal;font-size:177.97544861px;line-height:125%;font-family:'Adobe Arabic';-inkscape-font-specification:'Adobe Arabic, Normal';text-align:start;letter-spacing:0px;word-spacing:0px;writing-mode:lr-tb;text-anchor:start;fill:#ffffff;fill-opacity:1;stroke:none;stroke-width:1px;stroke-linecap:butt;stroke-linejoin:miter;stroke-opacity:1"
       d="m -381.7786,1435.4116 c 15.77054,0 29.37965,15.2825 29.37965,44.2438 0,26.6972 -12.32825,39.3383 -25.77725,39.3383 -17.21152,0 -29.94003,-19.1503 -29.94003,-44.5268 0,-26.1312 12.80856,-39.0553 26.25756,-39.0553 l 0.0801,0 z"
       id="path4174"
       inkscape:connector-curvature="0" />
    <path
       style="font-style:normal;font-variant:normal;font-weight:normal;font-stretch:normal;font-size:177.97544861px;line-height:125%;font-family:'Adobe Arabic';-inkscape-font-specification:'Adobe Arabic, Normal';text-align:start;letter-spacing:0px;word-spacing:0px;writing-mode:lr-tb;text-anchor:start;fill:#ffffff;fill-opacity:1;stroke:none;stroke-width:1px;stroke-linecap:butt;stroke-linejoin:miter;stroke-opacity:1"
       d="m -433.81343,1496.7303 c -6.32423,14.2448 -13.12879,22.0747 -25.53709,22.0747 -18.81259,0 -32.34164,-17.3579 -32.34164,-43.3948 0,-20.5653 10.88729,-39.9986 31.30094,-39.9986 13.04874,0 21.0541,6.0375 24.3363,21.32 l 3.6024,-0.9433 c -0.72048,-7.83 -1.60107,-13.7732 -2.56171,-21.6031 -3.36225,-0.6603 -12.00804,-3.9621 -22.25489,-3.9621 -27.77859,0 -47.71193,19.0559 -47.71193,48.1116 0,21.7917 13.76922,45.8475 44.66989,45.8475 8.88595,0 19.45302,-3.0188 22.97537,-3.9622 2.0814,-4.4338 5.36359,-15.2825 6.96466,-21.886 l -3.4423,-1.6037 z"
       id="path4172"
       inkscape:connector-curvature="0" />
    <path
       style="font-style:normal;font-variant:normal;font-weight:normal;font-stretch:normal;font-size:177.97544861px;line-height:125%;font-family:'Adobe Arabic';-inkscape-font-specification:'Adobe Arabic, Normal';text-align:start;letter-spacing:0px;word-spacing:0px;writing-mode:lr-tb;text-anchor:start;fill:#ffffff;fill-opacity:1;stroke:none;stroke-width:1px;stroke-linecap:butt;stroke-linejoin:miter;stroke-opacity:1"
       d="m -107.98885,1381.9356 c -1.9598,8.9962 -3.72363,14.4413 -5.55278,18.1108 -2.28644,4.6164 -5.87942,5.8001 -10.06033,5.8001 -3.07037,0 -5.61812,-0.1183 -7.44727,-1.3021 -2.02513,-1.5388 -2.35176,-4.498 -2.35176,-12.6656 l 0,-67.5898 c 0,-14.7964 0.91457,-15.8617 8.42716,-17.0454 l 0,-6.1553 -29.98502,0 0,6.1553 c 7.57792,1.1837 8.62315,2.249 8.62315,17.0454 l 0,65.9326 c 0,15.0331 -1.04523,15.98 -9.7337,17.2821 l 0,6.1553 47.88457,0 c 0.7186,-4.8532 2.80905,-22.2537 3.59298,-29.8295 l -3.397,-1.8939 z"
       id="path4170"
       inkscape:connector-curvature="0" />
    <path
       style="font-style:normal;font-variant:normal;font-weight:normal;font-stretch:normal;font-size:177.97544861px;line-height:125%;font-family:'Adobe Arabic';-inkscape-font-specification:'Adobe Arabic, Normal';text-align:start;letter-spacing:0px;word-spacing:0px;writing-mode:lr-tb;text-anchor:start;fill:#ffffff;fill-opacity:1;stroke:none;stroke-width:1px;stroke-linecap:butt;stroke-linejoin:miter;stroke-opacity:1"
       d="m -160.38098,1413.659 0,-6.1553 c -6.27137,-1.4204 -7.57791,-3.7879 -10.84425,-19.0577 -6.40204,-29.5927 -12.47742,-59.7773 -18.7488,-89.9619 l -5.03018,2.2491 -20.05534,88.3047 c -3.33167,14.9147 -4.37689,17.0454 -11.04023,18.4658 l -0.13066,6.1553 21.8845,0 0,-6.1553 c -7.12063,-1.6572 -7.31661,-4.143 -5.87942,-12.0738 1.11056,-6.9839 2.48242,-13.3759 3.59298,-19.0577 l 18.94479,0 c 1.63317,7.4573 3.13568,14.9147 4.11558,20.0047 1.4372,7.3389 1.04523,9.3513 -4.76886,11.1268 l 0,6.1553 27.95989,0 z"
       id="path4168"
       inkscape:connector-curvature="0" />
    <path
       style="font-style:normal;font-variant:normal;font-weight:normal;font-stretch:normal;font-size:177.97544861px;line-height:125%;font-family:'Adobe Arabic';-inkscape-font-specification:'Adobe Arabic, Normal';text-align:start;letter-spacing:0px;word-spacing:0px;writing-mode:lr-tb;text-anchor:start;fill:#ffffff;fill-opacity:1;stroke:none;stroke-width:1px;stroke-linecap:butt;stroke-linejoin:miter;stroke-opacity:1"
       d="m -189.51675,1367.1392 -15.41714,0 c 2.48242,-12.3105 5.0955,-24.8578 7.83923,-37.2868 l 0.26131,0 7.3166,37.2868 z"
       id="path4166"
       inkscape:connector-curvature="0" />
    <path
       style="font-style:normal;font-variant:normal;font-weight:normal;font-stretch:normal;font-size:177.97544861px;line-height:125%;font-family:'Adobe Arabic';-inkscape-font-specification:'Adobe Arabic, Normal';text-align:start;letter-spacing:0px;word-spacing:0px;writing-mode:lr-tb;text-anchor:start;fill:#ffffff;fill-opacity:1;stroke:none;stroke-width:1px;stroke-linecap:butt;stroke-linejoin:miter;stroke-opacity:1"
       d="m -225.44651,1301.0883 -23.77897,0 0,6.1553 c 7.18595,0.7102 9.21109,3.7878 9.66838,11.6003 0.19598,4.9716 0.78391,12.9025 0.78391,28.2907 l 0,30.3029 -0.2613,0 -38.34686,-76.3492 -18.09554,0 0,6.1553 c 4.05027,0.7102 6.27138,1.8939 8.10053,6.0369 1.89449,4.143 2.09046,7.2206 2.09046,18.4659 l 0,36.1031 c 0,15.2698 -0.58794,22.4904 -0.9799,28.409 -0.39197,7.5757 -2.74373,10.2983 -8.10053,11.2452 l 0,6.1553 23.90963,0 0,-6.1553 c -7.25128,-0.7102 -8.94979,-4.0246 -9.40707,-11.9554 -0.32663,-5.2084 -0.78392,-12.429 -0.78392,-27.6988 l 0.0653,-39.1808 0.19598,0 41.67853,86.8842 4.57288,0 0,-68.4183 c 0,-15.3882 0.58794,-23.3191 0.97991,-28.6458 0.45728,-8.4043 2.54774,-10.6534 7.70856,-11.2452 l 0,-6.1553 z"
       id="path4164"
       inkscape:connector-curvature="0" />
    <path
       style="font-style:normal;font-variant:normal;font-weight:normal;font-stretch:normal;font-size:177.97544861px;line-height:125%;font-family:'Adobe Arabic';-inkscape-font-specification:'Adobe Arabic, Normal';text-align:start;letter-spacing:0px;word-spacing:0px;writing-mode:lr-tb;text-anchor:start;fill:#ffffff;fill-opacity:1;stroke:none;stroke-width:1px;stroke-linecap:butt;stroke-linejoin:miter;stroke-opacity:1"
       d="m -301.09498,1413.659 0,-6.1553 c -7.31662,-1.3021 -8.16585,-2.249 -8.16585,-17.1638 l 0,-66.0509 c 0,-14.7964 0.84923,-15.8617 8.16585,-17.0454 l 0,-6.1553 -29.39708,0 0,6.1553 c 7.3166,1.1837 8.29651,2.249 8.29651,17.0454 l 0,66.0509 c 0,14.9148 -0.97991,15.8617 -8.29651,17.1638 l 0,6.1553 29.39708,0 z"
       id="path4162"
       inkscape:connector-curvature="0" />
    <path
       style="font-style:normal;font-variant:normal;font-weight:normal;font-stretch:normal;font-size:177.97544861px;line-height:125%;font-family:'Adobe Arabic';-inkscape-font-specification:'Adobe Arabic, Normal';text-align:start;letter-spacing:0px;word-spacing:0px;writing-mode:lr-tb;text-anchor:start;fill:#ffffff;fill-opacity:1;stroke:none;stroke-width:1px;stroke-linecap:butt;stroke-linejoin:miter;stroke-opacity:1"
       d="m -336.95943,1413.659 0,-6.1553 c -7.83923,-1.4204 -8.16586,-2.9593 -8.36185,-19.0577 l -0.97989,-63.5652 c -0.19598,-14.678 0.19598,-16.2168 8.10052,-17.6372 l 0,-6.1553 -19.53272,0 -19.59805,76.2308 -19.20609,-76.2308 -20.186,0 0,6.1553 c 8.4925,1.4204 9.21109,4.0246 8.36184,23.7925 l -1.50252,33.1439 c -0.78392,18.8209 -1.50252,27.5804 -2.09046,33.1438 -0.65327,6.0369 -2.54774,9.233 -8.10053,10.1799 l 0,6.1553 23.71365,0 0,-6.1553 c -6.59801,-1.0653 -8.36184,-2.6041 -8.88445,-10.1799 -0.32664,-5.5634 -0.45729,-13.6126 -0.0653,-27.9355 l 1.30653,-45.3361 0.39197,0 20.25132,88.5415 2.61307,0 21.94982,-89.9619 0.52262,0 0.13065,65.8142 c 0.13065,16.0984 -0.45729,17.6373 -7.77389,19.0577 l 0,6.1553 28.93978,0 z"
       id="path4160"
       inkscape:connector-curvature="0" />
    <path
       style="font-style:normal;font-variant:normal;font-weight:normal;font-stretch:normal;font-size:177.97544861px;line-height:125%;font-family:'Adobe Arabic';-inkscape-font-specification:'Adobe Arabic, Normal';text-align:start;letter-spacing:0px;word-spacing:0px;writing-mode:lr-tb;text-anchor:start;fill:#ffffff;fill-opacity:1;stroke:none;stroke-width:1px;stroke-linecap:butt;stroke-linejoin:miter;stroke-opacity:1"
       d="m -425.73861,1413.659 0,-6.1553 c -7.31661,-1.3021 -8.16586,-2.249 -8.16586,-17.1638 l 0,-66.0509 c 0,-14.7964 0.84925,-15.8617 8.16586,-17.0454 l 0,-6.1553 -29.39708,0 0,6.1553 c 7.31661,1.1837 8.2965,2.249 8.2965,17.0454 l 0,66.0509 c 0,14.9148 -0.97989,15.8617 -8.2965,17.1638 l 0,6.1553 29.39708,0 z"
       id="path4158"
       inkscape:connector-curvature="0" />
    <path
       style="font-style:normal;font-variant:normal;font-weight:normal;font-stretch:normal;font-size:177.97544861px;line-height:125%;font-family:'Adobe Arabic';-inkscape-font-specification:'Adobe Arabic, Normal';text-align:start;letter-spacing:0px;word-spacing:0px;writing-mode:lr-tb;text-anchor:start;fill:#ffffff;fill-opacity:1;stroke:none;stroke-width:1px;stroke-linecap:butt;stroke-linejoin:miter;stroke-opacity:1"
       d="m -458.98997,1409.3977 c -2.28645,-1.4205 -3.78897,-3.1961 -5.81409,-7.1023 -1.89449,-3.6695 -4.05026,-9.3513 -7.5126,-18.9393 -2.9397,-7.9309 -6.53267,-19.4129 -7.96987,-24.5028 6.46736,-4.4981 12.1508,-12.7841 12.1508,-28.1723 0,-10.6534 -2.67841,-18.3475 -6.46736,-23.0823 -3.98494,-4.8532 -8.94978,-6.5104 -17.7689,-6.5104 l -27.11064,0 0,6.1553 c 7.12063,1.0653 8.10052,3.0776 8.10052,16.927 l 0,66.1693 c 0,14.2045 -1.24121,15.7434 -8.49249,17.1638 l 0,6.1553 29.46241,0 0,-6.1553 c -7.38193,-1.4204 -8.36183,-2.9593 -8.36183,-17.1638 l 0,-24.9762 1.89447,0 c 3.13569,0 4.96484,2.1307 6.59801,7.2206 2.87438,9.2329 5.42214,18.4659 7.96988,25.5681 3.91961,10.8901 7.70857,15.8617 20.12067,16.9271 1.11056,0 2.15579,0.1183 2.61307,0.1183 l 0.58795,-5.8002 z"
       id="path4156"
       inkscape:connector-curvature="0" />
    <path
       style="font-style:normal;font-variant:normal;font-weight:normal;font-stretch:normal;font-size:177.97544861px;line-height:125%;font-family:'Adobe Arabic';-inkscape-font-specification:'Adobe Arabic, Normal';text-align:start;letter-spacing:0px;word-spacing:0px;writing-mode:lr-tb;text-anchor:start;fill:#ffffff;fill-opacity:1;stroke:none;stroke-width:1px;stroke-linecap:butt;stroke-linejoin:miter;stroke-opacity:1"
       d="m -498.77402,1358.4982 0,-42.2584 c 0,-3.4328 0.19598,-5.3267 0.84925,-6.3921 0.71859,-1.0653 2.02513,-1.8939 4.57288,-1.8939 5.55277,0 11.56284,6.7471 11.56284,25.213 0,8.7595 -1.37186,15.5066 -4.70353,20.7149 -2.15578,3.4328 -5.6181,4.6165 -9.86434,4.6165 l -2.4171,0 z"
       id="path4154"
       inkscape:connector-curvature="0" />
    <path
       style="font-style:normal;font-variant:normal;font-weight:normal;font-stretch:normal;font-size:177.97544861px;line-height:125%;font-family:'Adobe Arabic';-inkscape-font-specification:'Adobe Arabic, Normal';text-align:start;letter-spacing:0px;word-spacing:0px;writing-mode:lr-tb;text-anchor:start;fill:#ffffff;fill-opacity:1;stroke:none;stroke-width:1px;stroke-linecap:butt;stroke-linejoin:miter;stroke-opacity:1"
       d="m -528.49774,1380.7519 c -5.09549,18.1108 -11.36687,27.2253 -19.79403,27.2253 -13.8493,0 -23.84431,-20.8333 -23.84431,-52.7934 0,-25.3314 7.90456,-48.8872 22.73375,-48.8872 7.77389,0 15.87442,6.0369 18.94478,26.9886 l 3.59298,-1.0654 c -0.58793,-11.4819 -1.43719,-19.4128 -2.28644,-28.8825 -2.54774,-1.0653 -10.06034,-4.8532 -18.35684,-4.8532 -23.71365,0 -39.45741,24.5028 -39.45741,60.1324 0,27.5805 11.30154,57.765 37.62825,57.765 6.66334,0 16.13574,-3.7878 18.68348,-4.7348 1.63317,-5.9185 4.24625,-19.5312 5.61812,-28.1723 l -3.46233,-2.7225 z"
       id="path4152"
       inkscape:connector-curvature="0" />
    <path
       inkscape:connector-curvature="0"
       style="font-style:normal;font-variant:normal;font-weight:normal;font-stretch:normal;font-size:177.97544861px;line-height:125%;font-family:'Adobe Arabic';-inkscape-font-specification:'Adobe Arabic, Normal';text-align:start;letter-spacing:0px;word-spacing:0px;writing-mode:lr-tb;text-anchor:start;fill:#000080;fill-opacity:1;stroke:none;stroke-width:1px;stroke-linecap:butt;stroke-linejoin:miter;stroke-opacity:1"
       d="m -709.60841,1331.2791 2.6819,-44.4574 -71.33859,10.8559 11.80037,-20.1609 -47.2015,-51.6946 20.91884,-4.6525 -5.3638,-26.3642 28.42816,4.6525 7.50933,-20.1609 30.03732,33.6015 -21.45523,-75.4741 20.38246,4.1355 30.27509,-31.0734 28.47352,30.8974 20.38246,-4.1355 -21.45522,75.4741 30.03731,-33.6015 7.50932,20.1609 28.42816,-4.6525 -5.3638,26.3642 20.9188,4.6525 -47.20144,51.6946 11.80037,20.1609 -71.3386,-10.8559 2.6819,44.4574 -5.77356,-0.429 z"
       id="path5749-2" />
    <path
       inkscape:connector-curvature="0"
       style="font-style:normal;font-variant:normal;font-weight:normal;font-stretch:normal;font-size:177.97544861px;line-height:125%;font-family:'Adobe Arabic';-inkscape-font-specification:'Adobe Arabic, Normal';text-align:start;letter-spacing:0px;word-spacing:0px;writing-mode:lr-tb;text-anchor:start;fill:#ffffff;fill-opacity:1;stroke:none;stroke-width:1px;stroke-linecap:butt;stroke-linejoin:miter;stroke-opacity:1"
       d="m -714.38854,1326.2118 2.6819,-44.4574 -71.33859,10.8559 11.80037,-20.1609 -47.2015,-51.6946 20.91884,-4.6525 -5.3638,-26.3642 28.42816,4.6525 7.50933,-20.1609 30.03732,33.6015 -21.45523,-75.4741 20.38246,4.1355 30.27509,-31.0734 28.47352,30.8974 20.38246,-4.1355 -21.45522,75.4741 30.03731,-33.6015 7.50932,20.1609 28.42817,-4.6525 -5.36381,26.3642 20.91883,4.6525 -47.20147,51.6946 11.80037,20.1609 -71.3386,-10.8559 2.6819,44.4574 -5.77356,-0.429 z"
       id="path5749-0-1" />
    <text
       xml:space="preserve"
       style="font-style:normal;font-variant:normal;font-weight:600;font-stretch:normal;font-size:116.00749969px;line-height:125%;font-family:'Adobe Hebrew';-inkscape-font-specification:'Adobe Hebrew, Semi-Bold';text-align:center;letter-spacing:0px;word-spacing:0px;writing-mode:lr-tb;text-anchor:middle;fill:#000080;fill-opacity:1;stroke:none;stroke-width:1px;stroke-linecap:butt;stroke-linejoin:miter;stroke-opacity:1"
       x="-1137.1183"
       y="1628.5415"
       id="text5617-7-0-1"
       sodipodi:linespacing="125%"
       transform="scale(0.74754159,1.3377182)"><tspan
         sodipodi:role="line"
         id="tspan4220-5"
         x="-1137.1183"
         y="1628.5415">EVIDENCE</tspan></text>
    <text
       xml:space="preserve"
       style="font-style:normal;font-variant:normal;font-weight:600;font-stretch:normal;font-size:116.00749969px;line-height:125%;font-family:'Adobe Hebrew';-inkscape-font-specification:'Adobe Hebrew, Semi-Bold';text-align:center;letter-spacing:0px;word-spacing:0px;writing-mode:lr-tb;text-anchor:middle;fill:#000080;fill-opacity:1;stroke:none;stroke-width:1px;stroke-linecap:butt;stroke-linejoin:miter;stroke-opacity:1"
       x="-1130.3065"
       y="1714.6263"
       id="text5617-7-0-9-7"
       sodipodi:linespacing="125%"
       transform="scale(0.74754159,1.3377182)"><tspan
         y="1714.6263"
         x="-1130.3065"
         sodipodi:role="line"
         id="tspan4240-8">ACT</tspan></text>
    <text
       xml:space="preserve"
       style="font-style:normal;font-variant:normal;font-weight:600;font-stretch:normal;font-size:116.00749969px;line-height:125%;font-family:'Adobe Hebrew';-inkscape-font-specification:'Adobe Hebrew, Semi-Bold';text-align:center;letter-spacing:0px;word-spacing:0px;writing-mode:lr-tb;text-anchor:middle;fill:#ffffff;fill-opacity:1;stroke:none;stroke-width:1px;stroke-linecap:butt;stroke-linejoin:miter;stroke-opacity:1"
       x="-1134.5962"
       y="1627.0035"
       id="text5617-7-0-92-1"
       sodipodi:linespacing="125%"
       transform="scale(0.74754159,1.3377182)"><tspan
         sodipodi:role="line"
         id="tspan4220-2-2"
         x="-1134.5962"
         y="1627.0035">EVIDENCE</tspan></text>
    <text
       xml:space="preserve"
       style="font-style:normal;font-variant:normal;font-weight:600;font-stretch:normal;font-size:116.00749969px;line-height:125%;font-family:'Adobe Hebrew';-inkscape-font-specification:'Adobe Hebrew, Semi-Bold';text-align:center;letter-spacing:0px;word-spacing:0px;writing-mode:lr-tb;text-anchor:middle;fill:#ffffff;fill-opacity:1;stroke:none;stroke-width:1px;stroke-linecap:butt;stroke-linejoin:miter;stroke-opacity:1"
       x="-1127.7844"
       y="1713.0884"
       id="text5617-7-0-9-9-3"
       sodipodi:linespacing="125%"
       transform="scale(0.74754159,1.3377182)"><tspan
         y="1713.0884"
         x="-1127.7844"
         sodipodi:role="line"
         id="tspan4240-2-8">ACT</tspan></text>
    <text
       xml:space="preserve"
       style="font-style:normal;font-variant:normal;font-weight:600;font-stretch:normal;font-size:128.47477722px;line-height:125%;font-family:'Adobe Hebrew';-inkscape-font-specification:'Adobe Hebrew, Semi-Bold';text-align:center;letter-spacing:0px;word-spacing:0px;writing-mode:lr-tb;text-anchor:middle;fill:#ffffff;fill-opacity:1;stroke:none;stroke-width:1px;stroke-linecap:butt;stroke-linejoin:miter;stroke-opacity:1"
       x="-1048.2836"
       y="2110.5674"
       id="text5617-7-0-92-1-6"
       sodipodi:linespacing="125%"
       transform="scale(0.82787952,1.2079052)"><tspan
         sodipodi:role="line"
         id="tspan4246"
         x="-1048.2836"
         y="2110.5674">IMMIGRATION</tspan></text>
    <text
       xml:space="preserve"
       style="font-style:normal;font-variant:normal;font-weight:600;font-stretch:normal;font-size:128.47477722px;line-height:125%;font-family:'Adobe Hebrew';-inkscape-font-specification:'Adobe Hebrew, Semi-Bold';text-align:center;letter-spacing:0px;word-spacing:0px;writing-mode:lr-tb;text-anchor:middle;fill:#ffffff;fill-opacity:1;stroke:none;stroke-width:1px;stroke-linecap:butt;stroke-linejoin:miter;stroke-opacity:1"
       x="-1057.1456"
       y="2217.6511"
       id="text5617-7-0-92-1-6-6"
       sodipodi:linespacing="125%"
       transform="scale(0.82787952,1.2079052)"><tspan
         sodipodi:role="line"
         id="tspan4290"
         x="-1057.1456"
         y="2217.6511">AND REFUGEE</tspan></text>
    <text
       xml:space="preserve"
       style="font-style:normal;font-variant:normal;font-weight:600;font-stretch:normal;font-size:116.00749969px;line-height:125%;font-family:'Adobe Hebrew';-inkscape-font-specification:'Adobe Hebrew, Semi-Bold';text-align:center;letter-spacing:0px;word-spacing:0px;writing-mode:lr-tb;text-anchor:middle;fill:#ffffff;fill-opacity:1;stroke:none;stroke-width:1px;stroke-linecap:butt;stroke-linejoin:miter;stroke-opacity:1"
       x="-1158.3256"
       y="2093.7097"
       id="text5617-7-0-92-1-6-6-6"
       sodipodi:linespacing="125%"
       transform="scale(0.74754159,1.3377182)"><tspan
         sodipodi:role="line"
         id="tspan4310"
         x="-1158.3256"
         y="2093.7097">PROTECTION ACT</tspan></text>
    <path
       inkscape:connector-curvature="0"
       id="path4237"
       d="m 322.96368,785.67754 2.67506,-43.26074 -71.50238,10.54638 11.85696,-19.65786 -47.35561,-50.29263 20.96662,-4.51988 -5.35012,-25.68399 28.48567,4.51978 7.51905,-19.58594 30.14757,32.71483 -21.545,-73.46518 20.46052,4.01766 30.36543,-30.27583 28.55795,30.06059 20.38821,-4.01765 -21.47269,73.46518 30.07625,-32.71483 7.51905,19.65769 28.55699,-4.51978 -5.4224,25.68399 20.96663,4.51988 -47.28235,50.2926 11.78466,19.6579 -71.50334,-10.61814 2.67506,43.26074 -5.78391,-0.35871 z"
       style="fill:#000080;fill-opacity:1;fill-rule:nonzero;stroke:none" />
    <path
       inkscape:connector-curvature="0"
       id="path4239"
       d="m 320.65013,783.81221 2.67503,-43.3325 -71.57466,10.61814 11.85697,-19.6579 -47.35562,-50.2926 21.0389,-4.51987 -5.42239,-25.684 28.48567,4.51978 7.59136,-19.58593 30.07526,32.7148 -21.4727,-73.53691 20.38822,4.08941 30.36543,-30.27583 28.55794,30.0606 20.46053,-4.01769 -21.54501,73.46518 30.14853,-32.7148 7.51908,19.65769 28.48469,-4.51981 -5.35009,25.61227 20.96659,4.51988 -47.35462,50.36436 11.85696,19.58614 -71.57565,-10.54639 2.74734,43.26074 -5.78388,-0.43046 z"
       style="fill:#ffffff;fill-opacity:1;fill-rule:nonzero;stroke:none" />
    <path
       inkscape:connector-curvature="0"
       id="path4241"
       d="m 123.42109,881.0972 c -3.61492,16.57194 -7.66367,25.39646 -14.09813,25.39646 -10.049419,0 -17.279294,-20.15913 -17.279294,-50.21993 0,-24.24949 5.783913,-46.63365 16.628604,-46.63365 6.43447,0 11.3508,6.24174 13.37514,24.75171 l 2.38585,-1.07616 c -0.43379,-9.75721 -0.86758,-16.93159 -1.59055,-26.0431 -1.80747,-0.78918 -6.86839,-4.30465 -12.50758,-4.30465 -16.267091,0 -27.400989,22.81462 -27.400989,56.53434 0,25.89963 7.663598,53.80712 25.738129,53.80712 4.9163,0 11.1339,-3.15673 13.01365,-4.30465 1.15679,-5.45256 3.03655,-17.86333 3.97644,-25.68341 l -2.24127,-2.22408 z"
       style="fill:#000080;fill-opacity:1;fill-rule:nonzero;stroke:none" />
    <path
       inkscape:connector-curvature="0"
       id="path4243"
       d="m 154.65379,802.96788 c -15.32709,0 -24.14755,27.26275 -24.14755,55.74516 0,31.28044 9.90484,54.5963 23.35228,54.5963 13.01365,0 23.78617,-21.37975 23.78617,-56.38991 0,-32.21309 -10.55562,-53.95155 -22.91859,-53.95155 l -0.0724,0 z m -1.30137,6.52872 c 8.60356,0 15.18264,18.72521 15.18264,51.72747 0,30.56204 -6.14529,45.70006 -13.30286,45.70006 -9.39873,0 -15.54402,-22.81368 -15.54402,-51.72656 0,-29.41507 6.28988,-45.70097 13.59196,-45.70097 l 0.0724,0 z"
       style="fill:#000080;fill-opacity:1;fill-rule:nonzero;stroke:none" />
    <path
       inkscape:connector-curvature="0"
       id="path4245"
       d="m 239.24282,910.94178 0,-5.09382 c -5.6393,-1.4349 -5.92847,-2.58278 -6.07309,-18.58078 l -0.65069,-59.54759 c -0.14448,-14.85102 0.2169,-15.6402 5.9285,-16.93159 l 0,-5.45256 -13.01375,0 -14.67661,75.40305 -14.45975,-75.40305 -13.08603,0 0,5.45256 c 6.07308,1.29139 6.50688,2.86974 5.92846,22.52763 l -1.01217,32.42832 c -0.57837,17.07511 -1.01216,24.89523 -1.37368,30.34681 -0.50607,6.0265 -1.87975,8.60929 -5.85619,9.54197 l 0,5.30905 16.5564,0 0,-5.30905 c -4.62713,-1.07616 -6.07309,-2.36755 -6.28998,-9.68545 -0.2169,-5.81032 -0.2169,-13.2717 0.0724,-26.54438 l 0.93986,-44.12262 0.2169,0 14.74892,84.72882 1.66289,0 16.12257,-86.45068 0.2169,0 0.21689,63.70876 c 0.0724,15.998 -0.28931,17.14588 -5.56698,18.58078 l 0,5.09382 19.44832,0 z"
       style="fill:#000080;fill-opacity:1;fill-rule:nonzero;stroke:none" />
    <path
       inkscape:connector-curvature="0"
       id="path4247"
       d="m 244.30373,805.33544 0,5.45256 c 5.06092,0.93265 5.6393,1.72186 5.6393,15.78368 l 0,63.27829 c 0,13.55868 -0.57838,14.7066 -6.00078,15.99799 l 0,5.09382 20.46049,0 0,-5.09382 c -6.07308,-1.29139 -6.72377,-2.29583 -6.72377,-15.99799 l 0,-23.46032 4.91633,2.86977 c 0.79527,0 2.02434,0 3.03654,-0.3587 7.01295,-1.86537 13.80807,-11.98129 13.80807,-33.50452 0,-10.54638 -1.80748,-18.5817 -4.84306,-23.53204 -2.74734,-4.73511 -6.65146,-6.52872 -11.85697,-6.52872 l -18.43615,0 z m 13.37524,13.91834 c 0,-3.51544 0.21689,-5.09382 0.723,-6.24174 0.36148,-0.93265 1.44596,-1.79358 3.10885,-1.79358 4.77171,0 9.32652,6.60045 9.32652,24.6082 0,21.45151 -5.4224,26.25834 -8.82045,26.25834 -1.87976,0 -3.54261,-1.0044 -4.33792,-1.79358 l 0,-41.03764 z"
       style="fill:#000080;fill-opacity:1;fill-rule:nonzero;stroke:none" />
    <path
       inkscape:connector-curvature="0"
       id="path4249"
       d="m 318.04738,883.32128 c -1.15679,7.03091 -2.53047,12.41077 -3.75954,15.78273 -1.59058,4.16117 -3.90412,5.30905 -8.16973,5.30905 -2.89196,0 -5.35012,-0.21523 -6.57919,-1.79358 -1.37369,-1.72186 -1.66286,-5.59604 -1.66286,-13.2717 l 0,-29.05636 5.4224,0 c 5.92847,0 6.72377,0.78918 7.59136,12.48348 l 2.24123,0 0,-32.28485 -2.24123,0 c -0.86759,11.33556 -1.59058,12.48348 -7.59136,12.48348 l -5.4224,0 0,-35.65684 c 0,-4.95034 0.14449,-5.45253 2.53044,-5.45253 l 4.26561,0 c 4.33792,0 6.1454,1.14788 7.30219,4.37637 1.08448,3.30024 1.87975,7.82011 2.53044,13.9901 l 2.31354,-0.78918 c -0.28931,-9.39846 -0.57838,-20.59054 -0.65069,-24.10601 l -31.95597,0 0,5.30905 c 5.13319,1.07616 5.71157,1.72186 5.71157,16.0707 l 0,63.13478 c 0,13.55868 -0.57838,14.7066 -6.72377,15.99799 l 0,5.09382 34.70334,0 c 0.5061,-4.95034 1.95206,-19.94389 2.38586,-26.54434 l -2.24124,-1.07616 z"
       style="fill:#000080;fill-opacity:1;fill-rule:nonzero;stroke:none" />
    <path
       inkscape:connector-curvature="0"
       id="path4251"
       d="m 363.16173,831.88076 c -0.36152,-9.90068 -0.723,-23.31684 -0.723,-30.56298 l -1.59058,0 c -1.15676,3.08497 -1.95206,4.01766 -3.83182,4.01766 l -27.83498,0 c -1.95206,0 -2.96423,-0.28709 -3.9764,-4.01766 l -1.51828,0 c -0.14448,8.68101 -0.5061,20.0166 -0.86758,31.20868 l 2.38586,0 c 0.86758,-7.82012 1.59054,-12.98569 2.67502,-15.99895 0.86759,-2.86977 2.24127,-4.66335 8.02515,-4.66335 l 3.18116,0 0,77.98581 c 0,13.41521 -0.65068,14.7066 -6.65149,15.99799 l 0,5.09382 21.47269,0 0,-5.09382 c -6.28998,-1.29139 -6.94067,-2.58278 -6.94067,-15.99799 l 0,-77.98581 3.90413,0 c 4.69943,0 6.07308,1.14788 7.30218,4.37637 1.01217,3.01325 1.95207,7.82011 2.67503,16.0707 l 2.31358,-0.43047 z"
       style="fill:#000080;fill-opacity:1;fill-rule:nonzero;stroke:none" />
    <path
       inkscape:connector-curvature="0"
       id="path4253"
       d="m 387.38176,910.94178 0,-5.09382 c -5.35009,-1.29139 -5.9285,-2.29583 -5.9285,-15.99799 l 0,-63.27829 c 0,-13.84659 0.57841,-14.85103 5.9285,-15.78368 l 0,-5.45256 -19.80984,0 0,5.45256 c 5.4224,0.93265 6.00081,1.93709 6.00081,15.78368 l 0,63.27829 c 0,13.70216 -0.57841,14.7066 -6.00081,15.99799 l 0,5.09382 19.80984,0 z"
       style="fill:#000080;fill-opacity:1;fill-rule:nonzero;stroke:none" />
    <path
       inkscape:connector-curvature="0"
       id="path4255"
       d="m 432.35056,831.88076 c -0.36151,-9.90068 -0.72299,-23.31684 -0.72299,-30.56298 l -1.51828,0 c -1.22906,3.08497 -1.95206,4.01766 -3.90412,4.01766 l -27.83403,0 c -1.95206,0 -2.89192,-0.28709 -3.90413,-4.01766 l -1.59054,0 c -0.14449,8.68101 -0.50611,20.0166 -0.86759,31.20868 l 2.38586,0 c 0.86758,-7.82012 1.59054,-12.98569 2.67502,-15.99895 0.86759,-2.86977 2.24127,-4.66335 8.02515,-4.66335 l 3.18017,0 0,77.98581 c 0,13.41521 -0.57837,14.7066 -6.57819,15.99799 l 0,5.09382 21.47174,0 0,-5.09382 c -6.3623,-1.29139 -7.01298,-2.58278 -7.01298,-15.99799 l 0,-77.98581 3.97643,0 c 4.62713,0 6.07309,1.14788 7.22988,4.37637 1.01217,3.01325 1.95206,7.82011 2.74733,16.0707 l 2.24127,-0.43047 z"
       style="fill:#000080;fill-opacity:1;fill-rule:nonzero;stroke:none" />
    <path
       inkscape:connector-curvature="0"
       id="path4257"
       d="m 456.57059,910.94178 0,-5.09382 c -5.35008,-1.29139 -5.9285,-2.29583 -5.9285,-15.99799 l 0,-63.27829 c 0,-13.84659 0.57842,-14.85103 5.9285,-15.78368 l 0,-5.45256 -19.80983,0 0,5.45256 c 5.42239,0.93265 6.07308,1.93709 6.07308,15.78368 l 0,63.27829 c 0,13.70216 -0.65069,14.7066 -6.07308,15.99799 l 0,5.09382 19.80983,0 z"
       style="fill:#000080;fill-opacity:1;fill-rule:nonzero;stroke:none" />
    <path
       inkscape:connector-curvature="0"
       id="path4259"
       d="m 485.70695,802.96788 c -15.32733,0 -24.22006,27.26275 -24.22006,55.74516 0,31.28044 9.97721,54.5963 23.35248,54.5963 13.08603,0 23.85855,-21.37975 23.85855,-56.38991 0,-32.21309 -10.6279,-53.95155 -22.91869,-53.95155 l -0.0724,0 z m -1.30137,6.52872 c 8.53121,0 15.1104,18.72521 15.1104,51.72747 0,30.56204 -6.14539,45.70006 -13.30296,45.70006 -9.3988,0 -15.54419,-22.81368 -15.54419,-51.72656 0,-29.41507 6.28998,-45.70097 13.66444,-45.70097 l 0.0724,0 z"
       style="fill:#000080;fill-opacity:1;fill-rule:nonzero;stroke:none" />
    <path
       inkscape:connector-curvature="0"
       id="path4261"
       d="m 561.18574,805.33544 -16.70099,0 0,5.30905 c 4.98861,0.57397 6.57919,3.15676 6.8684,10.33115 0.21689,4.66339 0.50606,12.19652 0.50606,26.83231 l 0,33.28925 -0.21689,0 -27.834,-75.76176 -11.71238,0 0,5.30905 c 3.10886,0.57397 4.62713,1.86537 6.00078,5.88302 1.30137,3.80243 1.44599,5.88303 1.44599,16.9316 l 0,34.50892 c 0,14.56404 -0.36151,21.88194 -0.65068,27.33355 -0.28931,7.3179 -2.02438,9.68546 -5.9285,10.54638 l 0,5.09382 16.77329,0 0,-5.09382 c -4.91633,-0.86092 -6.28998,-3.37199 -6.6515,-11.0486 -0.21689,-4.94939 -0.43379,-12.26729 -0.43379,-26.83133 l 0,-38.31135 0.14449,0 29.42457,82.86349 2.81965,0 0,-64.71222 c 0,-14.63579 0.28931,-22.16892 0.50607,-27.11927 0.36151,-7.53313 1.80747,-9.61373 5.63929,-10.04419 l 0,-5.30905 z"
       style="fill:#000080;fill-opacity:1;fill-rule:nonzero;stroke:none" />
    <path
       inkscape:connector-curvature="0"
       id="path4263"
       d="m 121.75823,879.37534 c -3.54264,16.64366 -7.59135,25.39646 -14.09816,25.39646 -10.049386,0 -17.279227,-20.08741 -17.279227,-50.14817 0,-24.24949 5.783845,-46.63365 16.700847,-46.63365 6.36229,0 11.27848,6.24173 13.30286,24.75171 l 2.38585,-1.07616 c -0.36148,-9.75721 -0.86758,-16.93163 -1.51827,-26.04311 -1.87975,-0.7892 -6.94067,-4.30464 -12.57986,-4.30464 -16.267088,0 -27.400986,22.81462 -27.400986,56.53433 0,25.89963 7.663598,53.80713 25.810406,53.80713 4.84402,0 11.1339,-3.15677 12.94138,-4.30465 1.22906,-5.45256 3.03654,-17.86333 3.9764,-25.68345 l -2.24124,-2.2958 z"
       style="fill:#ffffff;fill-opacity:1;fill-rule:nonzero;stroke:none" />
    <path
       inkscape:connector-curvature="0"
       id="path4265"
       d="m 152.99094,801.31778 c -15.25482,0 -24.14755,27.26274 -24.14755,55.74516 0,31.2804 9.9049,54.5963 23.35237,54.5963 13.01366,0 23.85835,-21.37881 23.85835,-56.38991 0,-32.28485 -10.6278,-53.95155 -22.99086,-53.95155 l -0.0724,0 z m -1.22897,6.52869 c 8.53112,0 15.1102,18.65348 15.1102,51.7275 0,30.56299 -6.14529,45.70002 -13.30286,45.70002 -9.39869,0 -15.54399,-22.81364 -15.54399,-51.72652 0,-29.41507 6.28988,-45.701 13.66434,-45.701 l 0.0724,0 z"
       style="fill:#ffffff;fill-opacity:1;fill-rule:nonzero;stroke:none" />
    <path
       inkscape:connector-curvature="0"
       id="path4267"
       d="m 237.65227,909.29168 0,-5.09385 c -5.7116,-1.50663 -5.9285,-2.58279 -6.07309,-18.58075 l -0.72299,-59.54759 c -0.14449,-14.85103 0.21689,-15.64024 6.00077,-16.93163 l 0,-5.45253 -13.08603,0 -14.67664,75.40302 -14.45972,-75.40302 -13.08606,0 0,5.45253 c 6.07308,1.29139 6.50687,2.86978 5.9285,22.52767 l -1.01217,32.42832 c -0.5061,17.07511 -1.01221,24.89519 -1.37369,30.3468 -0.5061,6.02651 -1.87975,8.6093 -5.85619,9.54195 l 0,5.30908 16.5564,0 0,-5.30908 c -4.62712,-1.07617 -6.07308,-2.36756 -6.28998,-9.75718 -0.2169,-5.73857 -0.2169,-13.19997 0.0724,-26.47262 l 0.93986,-44.12262 0.2169,0 14.74892,84.65706 1.73517,0 16.05029,-86.37892 0.28931,0 0.14448,63.70876 c 0.0724,15.99796 -0.21689,17.07412 -5.56698,18.58075 l 0,5.09385 19.52063,0 z"
       style="fill:#ffffff;fill-opacity:1;fill-rule:nonzero;stroke:none" />
    <path
       inkscape:connector-curvature="0"
       id="path4269"
       d="m 242.71315,803.68533 0,5.45253 c 4.98861,0.93269 5.56702,1.72186 5.56702,15.78371 l 0,63.2783 c 0,13.55868 -0.57841,14.70656 -6.00081,15.99796 l 0,5.09385 20.46052,0 0,-5.09385 c -6.07308,-1.2914 -6.65146,-2.2958 -6.65146,-15.99796 l 0,-23.46032 4.9163,2.86977 c 0.72299,0 1.95206,0 2.96423,-0.35874 7.01298,-1.93709 13.80807,-11.98125 13.80807,-33.50448 0,-10.54638 -1.80649,-18.58173 -4.84303,-23.53208 -2.67506,-4.80683 -6.65146,-6.52869 -11.78469,-6.52869 l -18.43615,0 z m 13.37527,13.91835 c 0,-3.51548 0.14448,-5.16558 0.65069,-6.24174 0.43379,-0.93269 1.44596,-1.79361 3.10882,-1.79361 4.77171,0 9.39883,6.60048 9.39883,24.60823 0,21.45148 -5.49471,26.18659 -8.89273,26.18659 -1.87975,0 -3.47034,-0.93265 -4.26561,-1.72186 l 0,-41.03761 z"
       style="fill:#ffffff;fill-opacity:1;fill-rule:nonzero;stroke:none" />
    <path
       inkscape:connector-curvature="0"
       id="path4271"
       d="m 316.38449,881.67114 c -1.15676,7.03095 -2.53044,12.41077 -3.68723,15.78277 -1.66286,4.16113 -3.9764,5.23729 -8.16973,5.23729 -2.89196,0 -5.4224,-0.14337 -6.65147,-1.72186 -1.37368,-1.79358 -1.66289,-5.59604 -1.66289,-13.27169 l 0,-29.05636 5.4224,0 c 6.00081,0 6.72377,0.78921 7.59136,12.48347 l 2.31357,0 0,-32.28484 -2.31357,0 c -0.86759,11.33559 -1.51828,12.48347 -7.59136,12.48347 l -5.4224,0 0,-35.6568 c 0,-4.95035 0.2169,-5.45257 2.53048,-5.45257 l 4.2656,0 c 4.33792,0 6.1454,1.14792 7.30216,4.30465 1.08447,3.37199 1.87978,7.82012 2.53047,14.06185 l 2.31354,-0.78917 c -0.2893,-9.3985 -0.5061,-20.59058 -0.57837,-24.10602 l -32.02832,0 0,5.2373 c 5.13323,1.14792 5.78391,1.79361 5.78391,16.14242 l 0,63.13482 c 0,13.55868 -0.65068,14.70656 -6.79608,15.99796 l 0,5.09385 34.70334,0 c 0.57838,-4.95034 1.95207,-20.01565 2.45817,-26.54438 l -2.31358,-1.07616 z"
       style="fill:#ffffff;fill-opacity:1;fill-rule:nonzero;stroke:none" />
    <path
       inkscape:connector-curvature="0"
       id="path4273"
       d="m 361.49884,830.23063 c -0.36148,-9.90069 -0.72297,-23.31681 -0.72297,-30.56299 l -1.51827,0 c -1.2291,3.08501 -1.95206,4.01769 -3.83185,4.01769 l -27.90726,0 c -1.95206,0 -2.89196,-0.28709 -3.90413,-4.01769 l -1.59058,0 c -0.14448,8.68105 -0.50606,20.0166 -0.86758,31.20868 l 2.38585,0 c 0.86759,-7.89184 1.59059,-12.98566 2.67507,-15.99891 0.86758,-2.86977 2.24126,-4.66339 8.02514,-4.66339 l 3.18113,0 0,77.98585 c 0,13.41517 -0.57838,14.70656 -6.57915,15.99796 l 0,5.09385 21.47269,0 0,-5.09385 c -6.36229,-1.2914 -7.01298,-2.58279 -7.01298,-15.99796 l 0,-77.98585 3.97644,0 c 4.62709,0 6.07309,1.14792 7.22984,4.30465 1.01221,3.08501 1.95206,7.82012 2.74737,16.14242 l 2.24124,-0.43046 z"
       style="fill:#ffffff;fill-opacity:1;fill-rule:nonzero;stroke:none" />
    <path
       inkscape:connector-curvature="0"
       id="path4275"
       d="m 385.7189,909.29168 0,-5.09385 c -5.35012,-1.2914 -5.9285,-2.2958 -5.9285,-15.99796 l 0,-63.2783 c 0,-13.91834 0.57838,-14.85102 5.9285,-15.78371 l 0,-5.45253 -19.80983,0 0,5.45253 c 5.42239,0.93269 6.07308,1.86537 6.07308,15.78371 l 0,63.2783 c 0,13.70216 -0.65069,14.70656 -6.07308,15.99796 l 0,5.09385 19.80983,0 z"
       style="fill:#ffffff;fill-opacity:1;fill-rule:nonzero;stroke:none" />
    <path
       inkscape:connector-curvature="0"
       id="path4277"
       d="m 430.75998,830.23063 c -0.43379,-9.90069 -0.79527,-23.31681 -0.79527,-30.56299 l -1.51827,0 c -1.2291,3.08501 -1.95207,4.01769 -3.83185,4.01769 l -27.90631,0 c -1.95206,0 -2.89195,-0.28709 -3.90412,-4.01769 l -1.51827,0 c -0.14449,8.68105 -0.57838,20.0166 -0.9399,31.20868 l 2.38586,0 c 0.86758,-7.89184 1.66289,-12.98566 2.67506,-15.99891 0.93989,-2.86977 2.24127,-4.66339 8.09746,-4.66339 l 3.10881,0 0,77.98585 c 0,13.41517 -0.57837,14.70656 -6.57915,15.99796 l 0,5.09385 21.4717,0 0,-5.09385 c -6.36225,-1.2914 -6.94066,-2.58279 -6.94066,-15.99796 l 0,-77.98585 3.90412,0 c 4.62713,0 6.07312,1.14792 7.30219,4.30465 1.01217,3.08501 1.95206,7.82012 2.67506,16.14242 l 2.31354,-0.43046 z"
       style="fill:#ffffff;fill-opacity:1;fill-rule:nonzero;stroke:none" />
    <path
       inkscape:connector-curvature="0"
       id="path4279"
       d="m 454.90774,909.29168 0,-5.09385 c -5.27781,-1.2914 -5.9285,-2.2958 -5.9285,-15.99796 l 0,-63.2783 c 0,-13.91834 0.65069,-14.85102 5.9285,-15.78371 l 0,-5.45253 -19.73753,0 0,5.45253 c 5.35009,0.93269 6.00078,1.86537 6.00078,15.78371 l 0,63.2783 c 0,13.70216 -0.65069,14.70656 -6.00078,15.99796 l 0,5.09385 19.73753,0 z"
       style="fill:#ffffff;fill-opacity:1;fill-rule:nonzero;stroke:none" />
    <path
       inkscape:connector-curvature="0"
       id="path4281"
       d="m 484.04406,801.31778 c -15.3273,0 -24.14772,27.26274 -24.14772,55.74516 0,31.2804 9.9049,54.5963 23.35245,54.5963 13.01375,0 23.78624,-21.37881 23.78624,-56.38991 0,-32.28485 -10.55559,-53.95155 -22.91866,-53.95155 l -0.0724,0 z m -1.30137,6.52869 c 8.60356,0 15.11043,18.65348 15.11043,51.7275 0,30.56299 -6.14539,45.70002 -13.30296,45.70002 -9.32652,0 -15.47191,-22.81364 -15.47191,-51.72652 0,-29.41507 6.28998,-45.701 13.59216,-45.701 l 0.0724,0 z"
       style="fill:#ffffff;fill-opacity:1;fill-rule:nonzero;stroke:none" />
    <path
       inkscape:connector-curvature="0"
       id="path4283"
       d="m 559.52288,803.68533 -16.70098,0 0,5.2373 c 5.06091,0.6457 6.57918,3.22848 6.94066,10.4029 0.14449,4.66336 0.4338,12.12477 0.4338,26.83228 l 0,33.21753 -0.2169,0 -27.76172,-75.69001 -11.78465,0 0,5.2373 c 3.10882,0.6457 4.62709,1.93709 6.00077,5.95478 1.30138,3.80243 1.44596,5.88299 1.44596,16.9316 l 0,34.50892 c 0,14.49228 -0.36148,21.88194 -0.57837,27.33352 -0.36149,7.31789 -2.02438,9.68545 -6.00078,10.54638 l 0,5.09385 16.77326,0 0,-5.09385 c -4.9163,-0.86093 -6.28998,-3.37196 -6.65146,-11.04857 -0.14449,-4.94939 -0.43379,-12.33905 -0.43379,-26.83133 l 0,-38.3831 0.14448,0 29.42457,82.9352 2.81965,0 0,-64.71222 c 0,-14.70751 0.28931,-22.16892 0.57841,-27.11926 0.28931,-7.53313 1.80745,-9.6137 5.56699,-10.11592 l 0,-5.2373 z"
       style="fill:#ffffff;fill-opacity:1;fill-rule:nonzero;stroke:none" />
    <path
       inkscape:connector-curvature="0"
       id="path4285"
       d="m 291.80298,1036.4213 0,-5.3091 c -5.78392,-1.5066 -7.01298,-3.3002 -9.90494,-18.0785 -5.8552,-29.12817 -11.5668,-59.04546 -17.2784,-88.53228 l -3.90413,1.86533 -18.58074,87.02565 c -3.10885,14.5631 -4.2656,16.0697 -10.12179,17.7198 l -0.14449,5.3091 20.09901,0 0,-5.3091 c -6.65146,-1.6501 -7.15756,-3.659 -5.56698,-12.7695 1.15675,-6.6004 2.31354,-13.2009 3.47033,-19.51442 l 18.14695,0 c 1.80748,8.25062 3.25344,16.21422 4.33792,22.02542 1.22906,6.7431 0.72299,8.6084 -4.84402,10.2585 l 0,5.3091 24.29138,0 z m -25.15897,-45.84357 -15.18271,0 c 2.45816,-12.77046 4.9886,-26.04311 7.73594,-39.24403 l 0.14448,0 7.30215,39.24403 z"
       style="fill:#000080;fill-opacity:1;fill-rule:nonzero;stroke:none" />
    <path
       inkscape:connector-curvature="0"
       id="path4287"
       d="m 347.54522,1005.4288 c -4.62712,17.2176 -9.90493,26.3291 -18.29156,26.3291 -13.08607,0 -22.48487,-20.8766 -22.48487,-51.94178 0,-25.18218 7.51905,-48.35551 21.68959,-48.35551 8.31432,0 14.74893,6.45697 17.35168,25.68436 l 3.10881,-1.21964 c -0.57837,-10.04416 -1.15675,-17.50557 -2.02433,-26.97579 -2.38586,-0.78917 -8.96505,-4.44812 -16.33951,-4.44812 -21.11121,0 -35.64323,23.67555 -35.64323,58.61494 0,26.83234 10.04952,55.74424 33.54658,55.74424 6.28999,0 14.45972,-3.3002 16.84557,-4.4482 1.59059,-5.6678 3.97644,-18.509 5.20551,-26.6161 l -2.96424,-2.3675 z"
       style="fill:#000080;fill-opacity:1;fill-rule:nonzero;stroke:none" />
    <path
       inkscape:connector-curvature="0"
       id="path4289"
       d="m 406.97371,954.49046 c -0.50511,-10.25943 -0.9389,-24.17777 -0.9389,-31.63914 l -2.02438,0 c -1.59054,3.15672 -2.53044,4.16113 -4.9886,4.16113 l -36.22162,0 c -2.53044,0 -3.7595,-0.35871 -5.13319,-4.16113 l -2.02437,0 c -0.14449,8.968 -0.65069,20.6623 -1.08448,32.28484 l 3.03654,0 c 1.15679,-8.10711 2.09668,-13.41616 3.54265,-16.57289 1.15678,-2.94153 2.89195,-4.80686 10.411,-4.80686 l 4.12102,0 0,80.78389 c 0,13.9174 -0.79527,15.2088 -8.60353,16.5719 l 0,5.3091 27.90727,0 0,-5.3091 c -8.24205,-1.3631 -9.03732,-2.6545 -9.03732,-16.5719 l 0,-80.78389 5.13319,0 c 6.00077,0 7.88056,1.14791 9.47111,4.51988 1.30137,3.085 2.53047,8.10707 3.47033,16.71636 l 2.96328,-0.50219 z"
       style="fill:#000080;fill-opacity:1;fill-rule:nonzero;stroke:none" />
    <path
       inkscape:connector-curvature="0"
       id="path4291"
       d="m 289.70629,1034.6994 0,-5.3091 c -5.78387,-1.5066 -7.01294,-3.3002 -9.9049,-18.0785 -5.92751,-29.12813 -11.5668,-59.04542 -17.2784,-88.53224 l -3.97644,1.86534 -18.50843,87.0256 c -3.18116,14.5631 -4.33791,16.0697 -10.1941,17.7198 l -0.0724,5.3091 20.09901,0 0,-5.3091 c -6.65146,-1.6501 -7.22987,-3.6589 -5.63929,-12.7694 1.15679,-6.6005 2.38585,-13.201 3.54264,-19.51442 l 18.14695,0 c 1.73517,8.25052 3.25344,16.21412 4.26561,22.02542 1.2291,6.743 0.723,8.6083 -4.77171,10.2584 l 0,5.3091 24.29138,0 z m -25.15893,-45.84353 -15.18271,0 c 2.45813,-12.77046 4.9886,-26.0431 7.66363,-39.24403 l 0.2169,0 7.30218,39.24403 z"
       style="fill:#ffffff;fill-opacity:1;fill-rule:nonzero;stroke:none" />
    <path
       inkscape:connector-curvature="0"
       id="path4293"
       d="m 345.44854,1003.7069 c -4.62709,17.2177 -9.9049,26.3291 -18.36384,26.3291 -13.08606,0 -22.41259,-20.8765 -22.41259,-51.94174 0,-25.18218 7.51908,-48.35551 21.61732,-48.35551 8.38663,0 14.74892,6.45697 17.42394,25.68436 l 3.03655,-1.14788 c -0.50607,-10.11592 -1.15676,-17.57733 -2.02434,-27.04755 -2.38586,-0.78917 -8.96504,-4.44812 -16.2672,-4.44812 -21.18352,0 -35.64323,23.67555 -35.64323,58.61494 0,26.8323 9.97721,55.7442 33.47428,55.7442 6.36225,0 14.53202,-3.3002 16.84557,-4.4481 1.59058,-5.5961 3.97643,-18.5091 5.2055,-26.6161 l -2.89196,-2.3676 z"
       style="fill:#ffffff;fill-opacity:1;fill-rule:nonzero;stroke:none" />
    <path
       inkscape:connector-curvature="0"
       id="path4295"
       d="m 404.87802,952.7686 c -0.50607,-10.25942 -0.93986,-24.17777 -0.93986,-31.63914 l -2.02438,0 c -1.59058,3.15673 -2.60275,4.16113 -5.06091,4.16113 l -36.22162,0 c -2.53044,0 -3.7595,-0.35871 -5.06088,-4.16113 l -2.02437,0 c -0.14448,8.968 -0.723,20.6623 -1.15679,32.28484 l 3.10885,0 c 1.08448,-8.1071 2.09665,-13.41616 3.47034,-16.57289 1.15679,-2.94153 2.89195,-4.80686 10.48331,-4.80686 l 4.12102,0 0,80.78385 c 0,13.9174 -0.79531,15.2088 -8.60356,16.5719 l 0,5.3091 27.9073,0 0,-5.3091 c -8.24205,-1.3631 -9.03736,-2.6545 -9.03736,-16.5719 l 0,-80.78385 5.06092,0 c 6.07309,0 7.88056,1.21964 9.47111,4.51988 1.30138,3.085 2.53047,8.10707 3.54264,16.71636 l 2.96424,-0.50219 z"
       style="fill:#ffffff;fill-opacity:1;fill-rule:nonzero;stroke:none" />
  </g>
</svg>
