<?xml version="1.0" encoding="UTF-8" standalone="no"?>
<!-- Created with Inkscape (http://www.inkscape.org/) -->

<svg
   xmlns:dc="http://purl.org/dc/elements/1.1/"
   xmlns:cc="http://creativecommons.org/ns#"
   xmlns:rdf="http://www.w3.org/1999/02/22-rdf-syntax-ns#"
   xmlns:svg="http://www.w3.org/2000/svg"
   xmlns="http://www.w3.org/2000/svg"
   xmlns:sodipodi="http://sodipodi.sourceforge.net/DTD/sodipodi-0.dtd"
   xmlns:inkscape="http://www.inkscape.org/namespaces/inkscape"
   width="1024"
   height="500"
   viewBox="0 0 1024 499.99999"
   id="svg2"
   version="1.1"
   inkscape:version="0.91 r13725"
   inkscape:export-filename="C:\Users\gcgol\Desktop\Projects\Android Studio\pocketlaw-debug\screenshots\logos\banner.png"
   inkscape:export-xdpi="90"
   inkscape:export-ydpi="90"
   sodipodi:docname="banner.svg">
  <defs
     id="defs4">
    <pattern
       y="0"
       x="0"
       height="6"
       width="6"
       patternUnits="userSpaceOnUse"
       id="EMFhbasepattern" />
  </defs>
  <sodipodi:namedview
     id="base"
     pagecolor="#ffffff"
     bordercolor="#666666"
     borderopacity="1.0"
     inkscape:pageopacity="0.0"
     inkscape:pageshadow="2"
     inkscape:zoom="0.49497475"
     inkscape:cx="661.38015"
     inkscape:cy="192.91463"
     inkscape:document-units="px"
     inkscape:current-layer="layer2"
     showgrid="false"
     units="px"
     inkscape:window-width="1474"
     inkscape:window-height="841"
     inkscape:window-x="-8"
     inkscape:window-y="-8"
     inkscape:window-maximized="1" />
  <metadata
     id="metadata7">
    <rdf:RDF>
      <cc:Work
         rdf:about="">
        <dc:format>image/svg+xml</dc:format>
        <dc:type
           rdf:resource="http://purl.org/dc/dcmitype/StillImage" />
        <dc:title />
      </cc:Work>
    </rdf:RDF>
  </metadata>
  <g
     inkscape:groupmode="layer"
     id="layer2"
     inkscape:label="Layer 2"
     sodipodi:insensitive="true">
    <text
       xml:space="preserve"
       style="font-style:normal;font-variant:normal;font-weight:600;font-stretch:normal;font-size:116.00749969px;line-height:125%;font-family:'Adobe Hebrew';-inkscape-font-specification:'Adobe Hebrew, Semi-Bold';text-align:center;letter-spacing:0px;word-spacing:0px;writing-mode:lr-tb;text-anchor:middle;fill:#ffffff;fill-opacity:1;stroke:none;stroke-width:1px;stroke-linecap:butt;stroke-linejoin:miter;stroke-opacity:1"
       x="-291.54178"
       y="1741.1796"
       id="text5617-7-0-92-1-6-3"
       sodipodi:linespacing="125%"
       transform="scale(0.74754159,1.3377182)"><tspan
         y="1741.1796"
         x="-291.54178"
         sodipodi:role="line"
         id="tspan4246-6">IMMIGRATION</tspan></text>
    <rect
       style="fill:#ff0000;fill-opacity:1;stroke:none;stroke-width:2;stroke-miterlimit:4;stroke-dasharray:none;stroke-opacity:1"
       id="rect5600-6"
       width="1688.0812"
       height="1385.021"
       x="-1358.3263"
       y="1384.6323" />
    <rect
       style="fill:#ff0000;fill-opacity:1;stroke:none;stroke-width:2;stroke-miterlimit:4;stroke-dasharray:none;stroke-opacity:1"
       id="rect5600"
       width="1033.4637"
       height="502.16391"
       x="-7.8600988"
       y="-0.88549364" />
  </g>
  <g
     inkscape:label="Layer 1"
     inkscape:groupmode="layer"
     id="layer1"
     transform="translate(0,-552.36219)">
    <path
       style="fill:#ff0000;fill-rule:evenodd;stroke:none;stroke-width:1px;stroke-linecap:butt;stroke-linejoin:miter;stroke-opacity:1"
       d="m -250.87802,898.80099 3.57143,-61.42858 -95,14.99998 15.71429,-27.85712 -62.85715,-71.42857 27.85715,-6.42857 -7.14286,-36.42857 37.85714,6.42857 10,-27.85715 40,46.42858 -28.57143,-104.28572 27.14286,5.71429 40.31665,-42.93541 37.91754,42.69221 27.14286,-5.71429 -28.57143,104.28572 40,-46.42858 10,27.85715 37.85714,-6.42857 -7.14286,36.42857 27.857151,6.42857 -62.857151,71.42857 15.71429,27.85712 -95,-14.99998 3.57143,61.42858 -7.68852,-0.5927 z"
       id="path3338"
       inkscape:connector-curvature="0"
       sodipodi:nodetypes="ccccccccccccccccccccccccccc" />
    <flowRoot
       xml:space="preserve"
       id="flowRoot5623"
       style="font-style:normal;font-weight:normal;font-size:40px;line-height:125%;font-family:sans-serif;letter-spacing:0px;word-spacing:0px;fill:#000000;fill-opacity:1;stroke:none;stroke-width:1px;stroke-linecap:butt;stroke-linejoin:miter;stroke-opacity:1"><flowRegion
         id="flowRegion5625"><rect
           id="rect5627"
           width="238.57143"
           height="102.85714"
           x="57.142857"
           y="319.14285" /></flowRegion><flowPara
         id="flowPara5629" /></flowRoot>    <rect
       style="fill:#0000ff;fill-opacity:1;stroke:none;stroke-width:2;stroke-miterlimit:4;stroke-dasharray:none;stroke-opacity:1"
       id="rect5631"
       width="800"
       height="600"
       x="-897.14282"
       y="996.64789" />
    <g
       transform="scale(0.74288808,1.3460978)"
       style="font-style:normal;font-variant:normal;font-weight:bold;font-stretch:normal;font-size:180.09358215px;line-height:125%;font-family:'Adobe Arabic';-inkscape-font-specification:'Adobe Arabic, Bold';text-align:center;letter-spacing:0px;word-spacing:0px;writing-mode:lr-tb;text-anchor:middle;fill:#cccccc;fill-opacity:1;stroke:none;stroke-width:1px;stroke-linecap:butt;stroke-linejoin:miter;stroke-opacity:1"
       id="text5617" />
    <g
       transform="matrix(0.92119281,0,0,1.0855491,232.13204,855.99)"
       style="font-style:normal;font-variant:normal;font-weight:normal;font-stretch:normal;font-size:177.97544861px;line-height:125%;font-family:'Adobe Arabic';-inkscape-font-specification:'Adobe Arabic, Normal';text-align:start;letter-spacing:0px;word-spacing:0px;writing-mode:lr-tb;text-anchor:start;fill:#000080;fill-opacity:1;stroke:none;stroke-width:1px;stroke-linecap:butt;stroke-linejoin:miter;stroke-opacity:1"
       id="text5654">
      <path
         id="path5793"
         style="font-style:normal;font-variant:normal;font-weight:normal;font-stretch:normal;font-size:177.97544861px;line-height:125%;font-family:'Adobe Arabic';-inkscape-font-specification:'Adobe Arabic, Normal';text-align:start;writing-mode:lr-tb;text-anchor:start;fill:#000080"
         d="m 239.60366,868.05505 c -1.91185,5.12722 -4.34511,9.55923 -6.60456,12.25319 -2.95467,3.30228 -6.86526,4.1713 -16.33759,4.1713 -5.90934,0 -10.77586,0 -13.29602,-1.47733 -2.43326,-1.56424 -3.12847,-4.43201 -3.12847,-10.42825 l 0,-23.37666 11.90558,0 c 11.38417,0 12.3401,0.69522 14.16504,9.99374 l 3.91059,0 0,-24.9409 -3.91059,0 c -1.65114,8.60331 -2.52016,9.64613 -14.16504,9.64613 l -11.90558,0 0,-28.50388 c 0,-3.82369 0.2607,-4.1713 4.51891,-4.1713 l 9.64613,0 c 8.95091,0 12.51389,0.86902 14.42574,3.64989 1.65114,2.78087 3.04157,5.73554 4.2582,11.03656 l 3.9975,-0.52141 c -0.52142,-7.12597 -1.04283,-15.55547 -1.21663,-18.85775 l -58.91961,0 0,3.82369 c 10.08064,0.86902 11.21037,1.21663 11.21037,12.86151 l 0,49.79489 c 0,10.42825 -1.12973,11.64488 -12.86151,12.5139 l 0,3.64988 63.78612,0 c 1.12973,-4.08439 3.64989,-15.81617 4.51891,-20.59579 l -3.99749,-0.52141 z m -159.986725,-61.52667 0,3.9106 c 9.99374,0.78211 11.12346,1.30353 11.12346,12.25319 l 0,50.4032 c 0,10.86276 -1.12972,11.64488 -12.25319,12.427 l 0,3.64988 32.327575,0 c 16.07689,0 29.37291,-3.30227 39.36664,-10.51515 10.16755,-7.47357 16.33759,-18.85775 16.33759,-33.89181 0,-11.90558 -4.69271,-21.2041 -11.12346,-27.37415 -8.08189,-7.47358 -20.7696,-10.86276 -37.36789,-10.86276 l -38.410725,0 z m 23.289765,13.55673 c 0,-4.95342 0.43451,-6.51766 1.65113,-7.38668 1.39044,-0.86902 4.60581,-1.73804 10.42825,-1.73804 9.29853,0 17.11971,1.91184 23.11596,5.90934 9.55922,5.99624 14.68645,16.7721 14.68645,29.89431 0,19.98748 -11.64488,37.6286 -35.89056,37.6286 -9.55923,0 -13.99123,-2.34636 -13.99123,-12.427 l 0,-51.88053 z M 25.650745,804.61654 c -28.2431696,0 -45.53668,21.0303 -45.53668,44.05935 0,24.50638 19.4660604,42.49511 43.88554,42.49511 24.68019,0 45.27598,-16.9459 45.27598,-44.40696 0,-25.46231 -20.68269,-42.1475 -43.53794,-42.1475 l -0.0869,0 z m -2.69396,4.77961 c 17.11971,0 31.89306,14.07814 31.89306,40.75707 0,24.59329 -13.38292,36.23817 -27.98247,36.23817 -18.6839396,0 -32.5013696,-17.64112 -32.5013696,-41.01778 0,-24.07188 13.90433,-35.97746 28.5038796,-35.97746 l 0.0869,0 z m -56.48635,56.48635 c -6.86527,13.12221 -14.25194,20.33508 -27.72177,20.33508 -20.42198,0 -35.10843,-15.98998 -35.10843,-39.97495 0,-18.94465 11.81868,-36.84648 33.97871,-36.84648 14.16504,0 22.85524,5.56173 26.41823,19.63987 l 3.91059,-0.86902 c -0.78212,-7.21287 -1.73804,-12.6877 -2.78086,-19.90058 -3.64989,-0.60831 -13.03532,-3.64988 -24.15878,-3.64988 -30.15502,0 -51.793635,17.55422 -51.793635,44.32005 0,20.07438 14.947155,42.23441 48.491355,42.23441 9.64613,0 21.1172,-2.78086 24.94089,-3.64988 2.25946,-4.0844 5.82244,-14.07814 7.56049,-20.16129 l -3.73679,-1.47733 z M 320.16899,760.13453 c -2.12747,8.28723 -4.04218,13.30318 -6.02782,16.6835 -2.48204,4.25264 -6.3824,5.34307 -10.92098,5.34307 -3.33304,0 -6.09873,-0.10899 -8.08437,-1.19946 -2.19838,-1.41755 -2.55296,-4.14361 -2.55296,-11.66754 l 0,-62.26322 c 0,-13.6303 0.99282,-14.61167 9.1481,-15.70211 l 0,-5.6702 -32.55021,0 0,5.6702 c 8.2262,1.09044 9.36084,2.07181 9.36084,15.70211 l 0,60.73662 c 0,13.84839 -1.13464,14.72073 -10.5664,15.9202 l 0,5.67019 51.98105,0 c 0.78007,-4.47072 3.04937,-20.49996 3.90036,-27.47868 l -3.68761,-1.74468 z m -56.87422,29.22336 0,-5.67019 c -6.80789,-1.30851 -8.2262,-3.48937 -11.77197,-17.55583 -6.94972,-27.2606 -13.54487,-55.06641 -20.35276,-82.87223 l -5.46048,2.07181 -21.77106,81.34563 c -3.6167,13.73935 -4.75134,15.70211 -11.98472,17.01062 l -0.14183,5.67019 23.75669,0 0,-5.67019 c -7.72979,-1.5266 -7.94254,-3.81649 -6.3824,-11.12233 1.20557,-6.4335 2.69479,-12.32179 3.90035,-17.55583 l 20.5655,0 c 1.77288,6.86967 3.40394,13.73935 4.46767,18.42817 1.56014,6.76062 1.13465,8.61435 -5.17683,10.24999 l 0,5.67019 30.35184,0 z m -31.62831,-42.85366 -16.73606,0 c 2.69479,-11.34041 5.53141,-22.89891 8.50985,-34.34835 l 0.28367,0 7.94254,34.34835 z m -39.00352,-60.84566 -25.81324,0 0,5.6702 c 7.8007,0.65426 9.99908,3.48937 10.49549,10.68616 0.21275,4.57979 0.85099,11.88562 0.85099,26.06113 l 0,27.91486 -0.28367,0 -41.62739,-70.33235 -19.64359,0 0,5.6702 c 4.39675,0.65426 6.80789,1.74468 8.79352,5.56118 2.05655,3.81648 2.2693,6.65158 2.2693,17.0106 l 0,33.25794 c 0,14.06646 -0.63825,20.71806 -1.06374,26.17018 -0.4255,6.97871 -2.97845,9.48669 -8.79352,10.35903 l 0,5.67019 25.95507,0 0,-5.67019 c -7.87162,-0.65426 -9.71542,-3.70745 -10.21183,-11.01328 -0.35458,-4.79787 -0.85098,-11.44947 -0.85098,-25.51593 l 0.0709,-36.09303 0.21275,0 45.24408,80.03712 4.96409,0 0,-63.02652 c 0,-14.17551 0.63824,-21.48134 1.06373,-26.38826 0.49641,-7.74201 2.76571,-9.81382 8.36804,-10.35903 l 0,-5.6702 z m -82.12014,103.69932 0,-5.67019 c -7.94253,-1.19947 -8.86443,-2.07181 -8.86443,-15.81115 l 0,-60.84567 c 0,-13.6303 0.9219,-14.61167 8.86443,-15.70211 l 0,-5.6702 -31.911975,0 0,5.6702 c 7.94254,1.09044 9.00627,2.07181 9.00627,15.70211 l 0,60.84567 c 0,13.73934 -1.06373,14.61168 -9.00627,15.81115 l 0,5.67019 31.911975,0 z m -38.932615,0 0,-5.67019 c -8.50986,-1.30851 -8.86444,-2.72606 -9.07719,-17.55583 l -1.06373,-58.55578 c -0.21275,-13.52125 0.21275,-14.9388 8.79352,-16.24732 l 0,-5.6702 -21.20373,0 -21.27465,70.22331 -20.8491596,-70.22331 -21.9128804,0 0,5.6702 c 9.2190104,1.30852 9.9990804,3.70745 9.0771804,21.91753 l -1.63106,30.53187 c -0.85098,17.33775 -1.63105,25.40689 -2.26929,30.53188 -0.7091604,5.56116 -2.7657104,8.50531 -8.7935204,9.37765 l 0,5.67019 25.7423204,0 0,-5.67019 c -7.16247,-0.98138 -9.07718,-2.39893 -9.64451,-9.37765 -0.35457,-5.12499 -0.4964,-12.53987 -0.0709,-25.73401 l 1.4183,-41.76324 0.4255,0 21.9837996,81.56372 2.83662,0 23.8276,-82.87224 0.56733,0 0.14183,60.62759 c 0.14183,14.82977 -0.49641,16.24732 -8.43894,17.55583 l 0,5.67019 31.41556,0 z m -96.37416,0 0,-5.67019 c -7.94254,-1.19947 -8.86444,-2.07181 -8.86444,-15.81115 l 0,-60.84567 c 0,-13.6303 0.9219,-14.61167 8.86444,-15.70211 l 0,-5.6702 -31.91198,0 0,5.6702 c 7.94254,1.09044 9.00628,2.07181 9.00628,15.70211 l 0,60.84567 c 0,13.73934 -1.06374,14.61168 -9.00628,15.81115 l 0,5.67019 31.91198,0 z m -36.09599,-3.92551 c -2.48204,-1.30852 -4.11309,-2.94415 -6.31148,-6.54255 -2.05654,-3.38032 -4.39676,-8.61435 -8.15528,-17.44678 -3.19119,-7.30585 -7.09155,-17.88296 -8.65169,-22.57178 7.02064,-4.14361 13.19029,-11.77658 13.19029,-25.9521 0,-9.81381 -2.90754,-16.90158 -7.02064,-21.26327 -4.32584,-4.47074 -9.71542,-5.99733 -19.28902,-5.99733 l -29.429925,0 0,5.6702 c 7.72979,0.98139 8.79352,2.83511 8.79352,15.59308 l 0,60.9547 c 0,13.08509 -1.34739,14.50264 -9.21901,15.81115 l 0,5.67019 31.982885,0 0,-5.67019 c -8.013445,-1.30851 -9.077185,-2.72606 -9.077185,-15.81115 l 0,-23.00795 2.05656,0 c 3.403935,0 5.389575,1.96276 7.162455,6.65158 3.12028,8.50531 5.88599,17.01062 8.65169,23.55317 4.25493,10.0319 8.36803,14.61167 21.84197,15.59306 1.20557,0 2.34021,0.109 2.83663,0.109 l 0.63823,-5.34308 z m -43.187535,-46.88824 0,-38.92814 c 0,-3.16223 0.21275,-4.90691 0.92191,-5.88829 0.78007,-0.98138 2.19838,-1.74468 4.964075,-1.74468 6.02782,0 12.55205,6.21542 12.55205,23.22604 0,8.06913 -1.48923,14.28454 -5.10592,19.08241 -2.34021,3.16224 -6.09873,4.25266 -10.708235,4.25266 l -2.62388,0 z m -32.26655,20.49997 c -5.53141,16.68348 -12.33929,25.07975 -21.48739,25.07975 -15.03409,0 -25.88416,-19.19146 -25.88416,-48.63291 0,-23.33507 8.58078,-45.03452 24.67859,-45.03452 8.43895,0 17.23247,5.56116 20.5655,24.86167 l 3.90035,-0.98137 c -0.63824,-10.57712 -1.56014,-17.88296 -2.48205,-26.60636 -2.7657,-0.98137 -10.92098,-4.47073 -19.92725,-4.47073 -25.74232,0 -42.83296,22.57177 -42.83296,55.39355 0,25.40687 12.26838,53.21269 40.84733,53.21269 7.23338,0 17.51613,-3.48936 20.28183,-4.3617 1.77289,-5.45212 4.60951,-17.992 6.09873,-25.9521 l -3.75852,-2.50797 z m 186.639115,-90.06382 2.91133,-40.95379 -77.44155,10.00033 12.80988,-18.57206 -51.23953,-47.62068 22.70843,-4.28586 -5.82267,-24.28655 30.86016,4.28586 8.1517504,-18.57207 32.6069696,30.95345 -23.2906896,-69.5262 22.1261596,3.80965 32.86509,-28.62459 30.90941,28.46246 22.126165,-3.80966 -23.290705,69.5262 32.606985,-30.95345 8.15173,18.57207 30.86018,-4.28586 -5.82268,24.28655 22.70844,4.28586 -51.23954,47.62068 12.80988,18.57206 -77.441565,-10.00033 2.91135,40.95379 -6.26749,-0.39515 z"
         inkscape:connector-curvature="0" />
    </g>
    <text
       xml:space="preserve"
       style="font-style:normal;font-variant:normal;font-weight:600;font-stretch:normal;font-size:116.00772858px;line-height:125%;font-family:'Adobe Hebrew';-inkscape-font-specification:'Adobe Hebrew, Semi-Bold';text-align:center;letter-spacing:0px;word-spacing:0px;writing-mode:lr-tb;text-anchor:middle;fill:#ffffff;fill-opacity:1;stroke:none;stroke-width:1px;stroke-linecap:butt;stroke-linejoin:miter;stroke-opacity:1"
       x="-454.32523"
       y="853.06378"
       id="text5617-7"
       sodipodi:linespacing="125%"
       transform="scale(0.74754159,1.3377182)"><tspan
         sodipodi:role="line"
         id="tspan5619-9"
         x="-454.32523"
         y="853.06378"
         style="font-style:normal;font-variant:normal;font-weight:600;font-stretch:normal;font-size:116.00772858px;line-height:125%;font-family:'Adobe Hebrew';-inkscape-font-specification:'Adobe Hebrew, Semi-Bold';text-align:center;writing-mode:lr-tb;text-anchor:middle;fill:#ffffff">CRIMINAL</tspan><tspan
         sodipodi:role="line"
         x="-454.32523"
         y="998.07343"
         style="font-style:normal;font-variant:normal;font-weight:600;font-stretch:normal;font-size:116.00772858px;line-height:125%;font-family:'Adobe Hebrew';-inkscape-font-specification:'Adobe Hebrew, Semi-Bold';text-align:center;writing-mode:lr-tb;text-anchor:middle;fill:#ffffff"
         id="tspan5621-0" /></text>
    <text
       xml:space="preserve"
       style="font-style:normal;font-variant:normal;font-weight:normal;font-stretch:normal;font-size:114.49234009px;line-height:125%;font-family:'Adobe Hebrew';-inkscape-font-specification:'Adobe Hebrew, Normal';text-align:start;letter-spacing:0px;word-spacing:0px;writing-mode:lr-tb;text-anchor:start;fill:#000000;fill-opacity:1;stroke:none;stroke-width:1px;stroke-linecap:butt;stroke-linejoin:miter;stroke-opacity:1"
       x="-603.01074"
       y="975.77539"
       id="text5654-2"
       sodipodi:linespacing="125%"
       transform="scale(0.77619473,1.2883365)"><tspan
         sodipodi:role="line"
         id="tspan5656-7"
         x="-603.01074"
         y="975.77539"
         style="font-style:normal;font-variant:normal;font-weight:600;font-stretch:normal;font-size:114.49234009px;line-height:125%;font-family:'Adobe Hebrew';-inkscape-font-specification:'Adobe Hebrew, Semi-Bold';text-align:start;writing-mode:lr-tb;text-anchor:start;fill:#ffffff">CODE</tspan></text>
    <g
       transform="scale(0.74288808,1.3460978)"
       style="font-style:normal;font-variant:normal;font-weight:bold;font-stretch:normal;font-size:180.09358215px;line-height:125%;font-family:'Adobe Arabic';-inkscape-font-specification:'Adobe Arabic, Bold';text-align:center;letter-spacing:0px;word-spacing:0px;writing-mode:lr-tb;text-anchor:middle;fill:#ffffff;fill-opacity:1;stroke:none;stroke-width:1px;stroke-linecap:butt;stroke-linejoin:miter;stroke-opacity:1"
       id="text5617-3" />
    <path
       style="font-style:normal;font-variant:normal;font-weight:normal;font-stretch:normal;font-size:177.97544861px;line-height:125%;font-family:'Adobe Arabic';-inkscape-font-specification:'Adobe Arabic, Normal';text-align:start;letter-spacing:0px;word-spacing:0px;writing-mode:lr-tb;text-anchor:start;fill:#ffffff;fill-opacity:1;stroke:none;stroke-width:1px;stroke-linecap:butt;stroke-linejoin:miter;stroke-opacity:1"
       d="m -182.20508,1499.0887 c -1.76117,5.5658 -4.00267,10.377 -6.08406,13.3014 -2.72182,3.5848 -6.32424,4.5282 -15.05007,4.5282 -5.44364,0 -9.92665,0 -12.2482,-1.6038 -2.2415,-1.698 -2.88193,-4.8111 -2.88193,-11.3203 l 0,-25.3765 10.96734,0 c 10.48702,0 11.3676,0.7547 13.04873,10.8487 l 3.60241,0 0,-27.0746 -3.60241,0 c -1.52102,9.3393 -2.32155,10.4714 -13.04873,10.4714 l -10.96734,0 0,-30.9424 c 0,-4.1508 0.24016,-4.5282 4.16278,-4.5282 l 8.88595,0 c 8.24552,0 11.52771,0.9434 13.2889,3.9622 1.52101,3.0187 2.80187,6.2262 3.92262,11.9807 l 3.68246,-0.566 c -0.48032,-7.7356 -0.96064,-16.8862 -1.12074,-20.471 l -54.27632,0 0,4.1508 c 9.28621,0.9433 10.32691,1.3207 10.32691,13.9618 l 0,54.0547 c 0,11.3204 -1.0407,12.6411 -11.84793,13.5845 l 0,3.9621 58.75931,0 c 1.0407,-4.4338 3.36225,-17.1692 4.16279,-22.3577 l -3.68247,-0.566 z"
       id="path4182"
       inkscape:connector-curvature="0" />
    <path
       style="font-style:normal;font-variant:normal;font-weight:normal;font-stretch:normal;font-size:177.97544861px;line-height:125%;font-family:'Adobe Arabic';-inkscape-font-specification:'Adobe Arabic, Normal';text-align:start;letter-spacing:0px;word-spacing:0px;writing-mode:lr-tb;text-anchor:start;fill:#ffffff;fill-opacity:1;stroke:none;stroke-width:1px;stroke-linecap:butt;stroke-linejoin:miter;stroke-opacity:1"
       d="m -329.58368,1432.2985 0,4.2451 c 9.20616,0.849 10.24685,1.4151 10.24685,13.3015 l 0,54.7151 c 0,11.792 -1.04069,12.6411 -11.28755,13.4901 l 0,3.9621 29.77992,0 c 14.80992,0 27.05811,-3.5848 36.26427,-11.4147 9.36626,-8.1129 15.05007,-20.471 15.05007,-36.7912 0,-12.9241 -4.32289,-23.0181 -10.24685,-29.716 -7.44499,-8.1129 -19.13281,-11.792 -34.42304,-11.792 l -35.38367,0 z"
       id="path4180"
       inkscape:connector-curvature="0" />
    <path
       style="font-style:normal;font-variant:normal;font-weight:normal;font-stretch:normal;font-size:177.97544861px;line-height:125%;font-family:'Adobe Arabic';-inkscape-font-specification:'Adobe Arabic, Normal';text-align:start;letter-spacing:0px;word-spacing:0px;writing-mode:lr-tb;text-anchor:start;fill:#ffffff;fill-opacity:1;stroke:none;stroke-width:1px;stroke-linecap:butt;stroke-linejoin:miter;stroke-opacity:1"
       d="m -308.12933,1447.015 c 0,-5.3772 0.40026,-7.0753 1.52102,-8.0186 1.28086,-0.9434 4.24283,-1.8868 9.60642,-1.8868 8.56573,0 15.77056,2.0754 21.29425,6.4149 8.80589,6.5092 13.52905,18.207 13.52905,32.4518 0,21.6973 -10.72717,40.8476 -33.06211,40.8476 -8.8059,0 -12.88863,-2.5471 -12.88863,-13.4901 l 0,-56.3188 z"
       id="path4178"
       inkscape:connector-curvature="0" />
    <path
       style="font-style:normal;font-variant:normal;font-weight:normal;font-stretch:normal;font-size:177.97544861px;line-height:125%;font-family:'Adobe Arabic';-inkscape-font-specification:'Adobe Arabic, Normal';text-align:start;letter-spacing:0px;word-spacing:0px;writing-mode:lr-tb;text-anchor:start;fill:#ffffff;fill-opacity:1;stroke:none;stroke-width:1px;stroke-linecap:butt;stroke-linejoin:miter;stroke-opacity:1"
       d="m -379.29695,1430.2231 c -26.0174,0 -41.94807,22.8294 -41.94807,47.8286 0,26.6028 17.93201,46.1305 40.42705,46.1305 22.73522,0 41.70791,-18.3956 41.70791,-48.2059 0,-27.6406 -19.05274,-45.7532 -40.10684,-45.7532 l -0.08,0 z"
       id="path4176"
       inkscape:connector-curvature="0" />
    <path
       style="font-style:normal;font-variant:normal;font-weight:normal;font-stretch:normal;font-size:177.97544861px;line-height:125%;font-family:'Adobe Arabic';-inkscape-font-specification:'Adobe Arabic, Normal';text-align:start;letter-spacing:0px;word-spacing:0px;writing-mode:lr-tb;text-anchor:start;fill:#ffffff;fill-opacity:1;stroke:none;stroke-width:1px;stroke-linecap:butt;stroke-linejoin:miter;stroke-opacity:1"
       d="m -381.7786,1435.4116 c 15.77054,0 29.37965,15.2825 29.37965,44.2438 0,26.6972 -12.32825,39.3383 -25.77725,39.3383 -17.21152,0 -29.94003,-19.1503 -29.94003,-44.5268 0,-26.1312 12.80856,-39.0553 26.25756,-39.0553 l 0.0801,0 z"
       id="path4174"
       inkscape:connector-curvature="0" />
    <path
       style="font-style:normal;font-variant:normal;font-weight:normal;font-stretch:normal;font-size:177.97544861px;line-height:125%;font-family:'Adobe Arabic';-inkscape-font-specification:'Adobe Arabic, Normal';text-align:start;letter-spacing:0px;word-spacing:0px;writing-mode:lr-tb;text-anchor:start;fill:#ffffff;fill-opacity:1;stroke:none;stroke-width:1px;stroke-linecap:butt;stroke-linejoin:miter;stroke-opacity:1"
       d="m -433.81343,1496.7303 c -6.32423,14.2448 -13.12879,22.0747 -25.53709,22.0747 -18.81259,0 -32.34164,-17.3579 -32.34164,-43.3948 0,-20.5653 10.88729,-39.9986 31.30094,-39.9986 13.04874,0 21.0541,6.0375 24.3363,21.32 l 3.6024,-0.9433 c -0.72048,-7.83 -1.60107,-13.7732 -2.56171,-21.6031 -3.36225,-0.6603 -12.00804,-3.9621 -22.25489,-3.9621 -27.77859,0 -47.71193,19.0559 -47.71193,48.1116 0,21.7917 13.76922,45.8475 44.66989,45.8475 8.88595,0 19.45302,-3.0188 22.97537,-3.9622 2.0814,-4.4338 5.36359,-15.2825 6.96466,-21.886 l -3.4423,-1.6037 z"
       id="path4172"
       inkscape:connector-curvature="0" />
    <path
       style="font-style:normal;font-variant:normal;font-weight:normal;font-stretch:normal;font-size:177.97544861px;line-height:125%;font-family:'Adobe Arabic';-inkscape-font-specification:'Adobe Arabic, Normal';text-align:start;letter-spacing:0px;word-spacing:0px;writing-mode:lr-tb;text-anchor:start;fill:#ffffff;fill-opacity:1;stroke:none;stroke-width:1px;stroke-linecap:butt;stroke-linejoin:miter;stroke-opacity:1"
       d="m -107.98885,1381.9356 c -1.9598,8.9962 -3.72363,14.4413 -5.55278,18.1108 -2.28644,4.6164 -5.87942,5.8001 -10.06033,5.8001 -3.07037,0 -5.61812,-0.1183 -7.44727,-1.3021 -2.02513,-1.5388 -2.35176,-4.498 -2.35176,-12.6656 l 0,-67.5898 c 0,-14.7964 0.91457,-15.8617 8.42716,-17.0454 l 0,-6.1553 -29.98502,0 0,6.1553 c 7.57792,1.1837 8.62315,2.249 8.62315,17.0454 l 0,65.9326 c 0,15.0331 -1.04523,15.98 -9.7337,17.2821 l 0,6.1553 47.88457,0 c 0.7186,-4.8532 2.80905,-22.2537 3.59298,-29.8295 l -3.397,-1.8939 z"
       id="path4170"
       inkscape:connector-curvature="0" />
    <path
       style="font-style:normal;font-variant:normal;font-weight:normal;font-stretch:normal;font-size:177.97544861px;line-height:125%;font-family:'Adobe Arabic';-inkscape-font-specification:'Adobe Arabic, Normal';text-align:start;letter-spacing:0px;word-spacing:0px;writing-mode:lr-tb;text-anchor:start;fill:#ffffff;fill-opacity:1;stroke:none;stroke-width:1px;stroke-linecap:butt;stroke-linejoin:miter;stroke-opacity:1"
       d="m -160.38098,1413.659 0,-6.1553 c -6.27137,-1.4204 -7.57791,-3.7879 -10.84425,-19.0577 -6.40204,-29.5927 -12.47742,-59.7773 -18.7488,-89.9619 l -5.03018,2.2491 -20.05534,88.3047 c -3.33167,14.9147 -4.37689,17.0454 -11.04023,18.4658 l -0.13066,6.1553 21.8845,0 0,-6.1553 c -7.12063,-1.6572 -7.31661,-4.143 -5.87942,-12.0738 1.11056,-6.9839 2.48242,-13.3759 3.59298,-19.0577 l 18.94479,0 c 1.63317,7.4573 3.13568,14.9147 4.11558,20.0047 1.4372,7.3389 1.04523,9.3513 -4.76886,11.1268 l 0,6.1553 27.95989,0 z"
       id="path4168"
       inkscape:connector-curvature="0" />
    <path
       style="font-style:normal;font-variant:normal;font-weight:normal;font-stretch:normal;font-size:177.97544861px;line-height:125%;font-family:'Adobe Arabic';-inkscape-font-specification:'Adobe Arabic, Normal';text-align:start;letter-spacing:0px;word-spacing:0px;writing-mode:lr-tb;text-anchor:start;fill:#ffffff;fill-opacity:1;stroke:none;stroke-width:1px;stroke-linecap:butt;stroke-linejoin:miter;stroke-opacity:1"
       d="m -189.51675,1367.1392 -15.41714,0 c 2.48242,-12.3105 5.0955,-24.8578 7.83923,-37.2868 l 0.26131,0 7.3166,37.2868 z"
       id="path4166"
       inkscape:connector-curvature="0" />
    <path
       style="font-style:normal;font-variant:normal;font-weight:normal;font-stretch:normal;font-size:177.97544861px;line-height:125%;font-family:'Adobe Arabic';-inkscape-font-specification:'Adobe Arabic, Normal';text-align:start;letter-spacing:0px;word-spacing:0px;writing-mode:lr-tb;text-anchor:start;fill:#ffffff;fill-opacity:1;stroke:none;stroke-width:1px;stroke-linecap:butt;stroke-linejoin:miter;stroke-opacity:1"
       d="m -225.44651,1301.0883 -23.77897,0 0,6.1553 c 7.18595,0.7102 9.21109,3.7878 9.66838,11.6003 0.19598,4.9716 0.78391,12.9025 0.78391,28.2907 l 0,30.3029 -0.2613,0 -38.34686,-76.3492 -18.09554,0 0,6.1553 c 4.05027,0.7102 6.27138,1.8939 8.10053,6.0369 1.89449,4.143 2.09046,7.2206 2.09046,18.4659 l 0,36.1031 c 0,15.2698 -0.58794,22.4904 -0.9799,28.409 -0.39197,7.5757 -2.74373,10.2983 -8.10053,11.2452 l 0,6.1553 23.90963,0 0,-6.1553 c -7.25128,-0.7102 -8.94979,-4.0246 -9.40707,-11.9554 -0.32663,-5.2084 -0.78392,-12.429 -0.78392,-27.6988 l 0.0653,-39.1808 0.19598,0 41.67853,86.8842 4.57288,0 0,-68.4183 c 0,-15.3882 0.58794,-23.3191 0.97991,-28.6458 0.45728,-8.4043 2.54774,-10.6534 7.70856,-11.2452 l 0,-6.1553 z"
       id="path4164"
       inkscape:connector-curvature="0" />
    <path
       style="font-style:normal;font-variant:normal;font-weight:normal;font-stretch:normal;font-size:177.97544861px;line-height:125%;font-family:'Adobe Arabic';-inkscape-font-specification:'Adobe Arabic, Normal';text-align:start;letter-spacing:0px;word-spacing:0px;writing-mode:lr-tb;text-anchor:start;fill:#ffffff;fill-opacity:1;stroke:none;stroke-width:1px;stroke-linecap:butt;stroke-linejoin:miter;stroke-opacity:1"
       d="m -301.09498,1413.659 0,-6.1553 c -7.31662,-1.3021 -8.16585,-2.249 -8.16585,-17.1638 l 0,-66.0509 c 0,-14.7964 0.84923,-15.8617 8.16585,-17.0454 l 0,-6.1553 -29.39708,0 0,6.1553 c 7.3166,1.1837 8.29651,2.249 8.29651,17.0454 l 0,66.0509 c 0,14.9148 -0.97991,15.8617 -8.29651,17.1638 l 0,6.1553 29.39708,0 z"
       id="path4162"
       inkscape:connector-curvature="0" />
    <path
       style="font-style:normal;font-variant:normal;font-weight:normal;font-stretch:normal;font-size:177.97544861px;line-height:125%;font-family:'Adobe Arabic';-inkscape-font-specification:'Adobe Arabic, Normal';text-align:start;letter-spacing:0px;word-spacing:0px;writing-mode:lr-tb;text-anchor:start;fill:#ffffff;fill-opacity:1;stroke:none;stroke-width:1px;stroke-linecap:butt;stroke-linejoin:miter;stroke-opacity:1"
       d="m -336.95943,1413.659 0,-6.1553 c -7.83923,-1.4204 -8.16586,-2.9593 -8.36185,-19.0577 l -0.97989,-63.5652 c -0.19598,-14.678 0.19598,-16.2168 8.10052,-17.6372 l 0,-6.1553 -19.53272,0 -19.59805,76.2308 -19.20609,-76.2308 -20.186,0 0,6.1553 c 8.4925,1.4204 9.21109,4.0246 8.36184,23.7925 l -1.50252,33.1439 c -0.78392,18.8209 -1.50252,27.5804 -2.09046,33.1438 -0.65327,6.0369 -2.54774,9.233 -8.10053,10.1799 l 0,6.1553 23.71365,0 0,-6.1553 c -6.59801,-1.0653 -8.36184,-2.6041 -8.88445,-10.1799 -0.32664,-5.5634 -0.45729,-13.6126 -0.0653,-27.9355 l 1.30653,-45.3361 0.39197,0 20.25132,88.5415 2.61307,0 21.94982,-89.9619 0.52262,0 0.13065,65.8142 c 0.13065,16.0984 -0.45729,17.6373 -7.77389,19.0577 l 0,6.1553 28.93978,0 z"
       id="path4160"
       inkscape:connector-curvature="0" />
    <path
       style="font-style:normal;font-variant:normal;font-weight:normal;font-stretch:normal;font-size:177.97544861px;line-height:125%;font-family:'Adobe Arabic';-inkscape-font-specification:'Adobe Arabic, Normal';text-align:start;letter-spacing:0px;word-spacing:0px;writing-mode:lr-tb;text-anchor:start;fill:#ffffff;fill-opacity:1;stroke:none;stroke-width:1px;stroke-linecap:butt;stroke-linejoin:miter;stroke-opacity:1"
       d="m -425.73861,1413.659 0,-6.1553 c -7.31661,-1.3021 -8.16586,-2.249 -8.16586,-17.1638 l 0,-66.0509 c 0,-14.7964 0.84925,-15.8617 8.16586,-17.0454 l 0,-6.1553 -29.39708,0 0,6.1553 c 7.31661,1.1837 8.2965,2.249 8.2965,17.0454 l 0,66.0509 c 0,14.9148 -0.97989,15.8617 -8.2965,17.1638 l 0,6.1553 29.39708,0 z"
       id="path4158"
       inkscape:connector-curvature="0" />
    <path
       style="font-style:normal;font-variant:normal;font-weight:normal;font-stretch:normal;font-size:177.97544861px;line-height:125%;font-family:'Adobe Arabic';-inkscape-font-specification:'Adobe Arabic, Normal';text-align:start;letter-spacing:0px;word-spacing:0px;writing-mode:lr-tb;text-anchor:start;fill:#ffffff;fill-opacity:1;stroke:none;stroke-width:1px;stroke-linecap:butt;stroke-linejoin:miter;stroke-opacity:1"
       d="m -458.98997,1409.3977 c -2.28645,-1.4205 -3.78897,-3.1961 -5.81409,-7.1023 -1.89449,-3.6695 -4.05026,-9.3513 -7.5126,-18.9393 -2.9397,-7.9309 -6.53267,-19.4129 -7.96987,-24.5028 6.46736,-4.4981 12.1508,-12.7841 12.1508,-28.1723 0,-10.6534 -2.67841,-18.3475 -6.46736,-23.0823 -3.98494,-4.8532 -8.94978,-6.5104 -17.7689,-6.5104 l -27.11064,0 0,6.1553 c 7.12063,1.0653 8.10052,3.0776 8.10052,16.927 l 0,66.1693 c 0,14.2045 -1.24121,15.7434 -8.49249,17.1638 l 0,6.1553 29.46241,0 0,-6.1553 c -7.38193,-1.4204 -8.36183,-2.9593 -8.36183,-17.1638 l 0,-24.9762 1.89447,0 c 3.13569,0 4.96484,2.1307 6.59801,7.2206 2.87438,9.2329 5.42214,18.4659 7.96988,25.5681 3.91961,10.8901 7.70857,15.8617 20.12067,16.9271 1.11056,0 2.15579,0.1183 2.61307,0.1183 l 0.58795,-5.8002 z"
       id="path4156"
       inkscape:connector-curvature="0" />
    <path
       style="font-style:normal;font-variant:normal;font-weight:normal;font-stretch:normal;font-size:177.97544861px;line-height:125%;font-family:'Adobe Arabic';-inkscape-font-specification:'Adobe Arabic, Normal';text-align:start;letter-spacing:0px;word-spacing:0px;writing-mode:lr-tb;text-anchor:start;fill:#ffffff;fill-opacity:1;stroke:none;stroke-width:1px;stroke-linecap:butt;stroke-linejoin:miter;stroke-opacity:1"
       d="m -498.77402,1358.4982 0,-42.2584 c 0,-3.4328 0.19598,-5.3267 0.84925,-6.3921 0.71859,-1.0653 2.02513,-1.8939 4.57288,-1.8939 5.55277,0 11.56284,6.7471 11.56284,25.213 0,8.7595 -1.37186,15.5066 -4.70353,20.7149 -2.15578,3.4328 -5.6181,4.6165 -9.86434,4.6165 l -2.4171,0 z"
       id="path4154"
       inkscape:connector-curvature="0" />
    <path
       style="font-style:normal;font-variant:normal;font-weight:normal;font-stretch:normal;font-size:177.97544861px;line-height:125%;font-family:'Adobe Arabic';-inkscape-font-specification:'Adobe Arabic, Normal';text-align:start;letter-spacing:0px;word-spacing:0px;writing-mode:lr-tb;text-anchor:start;fill:#ffffff;fill-opacity:1;stroke:none;stroke-width:1px;stroke-linecap:butt;stroke-linejoin:miter;stroke-opacity:1"
       d="m -528.49774,1380.7519 c -5.09549,18.1108 -11.36687,27.2253 -19.79403,27.2253 -13.8493,0 -23.84431,-20.8333 -23.84431,-52.7934 0,-25.3314 7.90456,-48.8872 22.73375,-48.8872 7.77389,0 15.87442,6.0369 18.94478,26.9886 l 3.59298,-1.0654 c -0.58793,-11.4819 -1.43719,-19.4128 -2.28644,-28.8825 -2.54774,-1.0653 -10.06034,-4.8532 -18.35684,-4.8532 -23.71365,0 -39.45741,24.5028 -39.45741,60.1324 0,27.5805 11.30154,57.765 37.62825,57.765 6.66334,0 16.13574,-3.7878 18.68348,-4.7348 1.63317,-5.9185 4.24625,-19.5312 5.61812,-28.1723 l -3.46233,-2.7225 z"
       id="path4152"
       inkscape:connector-curvature="0" />
    <path
       inkscape:connector-curvature="0"
       style="font-style:normal;font-variant:normal;font-weight:normal;font-stretch:normal;font-size:177.97544861px;line-height:125%;font-family:'Adobe Arabic';-inkscape-font-specification:'Adobe Arabic, Normal';text-align:start;letter-spacing:0px;word-spacing:0px;writing-mode:lr-tb;text-anchor:start;fill:#000080;fill-opacity:1;stroke:none;stroke-width:1px;stroke-linecap:butt;stroke-linejoin:miter;stroke-opacity:1"
       d="m -709.60841,1331.2791 2.6819,-44.4574 -71.33859,10.8559 11.80037,-20.1609 -47.2015,-51.6946 20.91884,-4.6525 -5.3638,-26.3642 28.42816,4.6525 7.50933,-20.1609 30.03732,33.6015 -21.45523,-75.4741 20.38246,4.1355 30.27509,-31.0734 28.47352,30.8974 20.38246,-4.1355 -21.45522,75.4741 30.03731,-33.6015 7.50932,20.1609 28.42816,-4.6525 -5.3638,26.3642 20.9188,4.6525 -47.20144,51.6946 11.80037,20.1609 -71.3386,-10.8559 2.6819,44.4574 -5.77356,-0.429 z"
       id="path5749-2" />
    <path
       inkscape:connector-curvature="0"
       style="font-style:normal;font-variant:normal;font-weight:normal;font-stretch:normal;font-size:177.97544861px;line-height:125%;font-family:'Adobe Arabic';-inkscape-font-specification:'Adobe Arabic, Normal';text-align:start;letter-spacing:0px;word-spacing:0px;writing-mode:lr-tb;text-anchor:start;fill:#ffffff;fill-opacity:1;stroke:none;stroke-width:1px;stroke-linecap:butt;stroke-linejoin:miter;stroke-opacity:1"
       d="m -714.38854,1326.2118 2.6819,-44.4574 -71.33859,10.8559 11.80037,-20.1609 -47.2015,-51.6946 20.91884,-4.6525 -5.3638,-26.3642 28.42816,4.6525 7.50933,-20.1609 30.03732,33.6015 -21.45523,-75.4741 20.38246,4.1355 30.27509,-31.0734 28.47352,30.8974 20.38246,-4.1355 -21.45522,75.4741 30.03731,-33.6015 7.50932,20.1609 28.42817,-4.6525 -5.36381,26.3642 20.91883,4.6525 -47.20147,51.6946 11.80037,20.1609 -71.3386,-10.8559 2.6819,44.4574 -5.77356,-0.429 z"
       id="path5749-0-1" />
    <text
       xml:space="preserve"
       style="font-style:normal;font-variant:normal;font-weight:600;font-stretch:normal;font-size:116.00749969px;line-height:125%;font-family:'Adobe Hebrew';-inkscape-font-specification:'Adobe Hebrew, Semi-Bold';text-align:center;letter-spacing:0px;word-spacing:0px;writing-mode:lr-tb;text-anchor:middle;fill:#000080;fill-opacity:1;stroke:none;stroke-width:1px;stroke-linecap:butt;stroke-linejoin:miter;stroke-opacity:1"
       x="-1137.1183"
       y="1628.5415"
       id="text5617-7-0-1"
       sodipodi:linespacing="125%"
       transform="scale(0.74754159,1.3377182)"><tspan
         sodipodi:role="line"
         id="tspan4220-5"
         x="-1137.1183"
         y="1628.5415">EVIDENCE</tspan></text>
    <text
       xml:space="preserve"
       style="font-style:normal;font-variant:normal;font-weight:600;font-stretch:normal;font-size:116.00749969px;line-height:125%;font-family:'Adobe Hebrew';-inkscape-font-specification:'Adobe Hebrew, Semi-Bold';text-align:center;letter-spacing:0px;word-spacing:0px;writing-mode:lr-tb;text-anchor:middle;fill:#000080;fill-opacity:1;stroke:none;stroke-width:1px;stroke-linecap:butt;stroke-linejoin:miter;stroke-opacity:1"
       x="-1130.3065"
       y="1714.6263"
       id="text5617-7-0-9-7"
       sodipodi:linespacing="125%"
       transform="scale(0.74754159,1.3377182)"><tspan
         y="1714.6263"
         x="-1130.3065"
         sodipodi:role="line"
         id="tspan4240-8">ACT</tspan></text>
    <text
       xml:space="preserve"
       style="font-style:normal;font-variant:normal;font-weight:600;font-stretch:normal;font-size:116.00749969px;line-height:125%;font-family:'Adobe Hebrew';-inkscape-font-specification:'Adobe Hebrew, Semi-Bold';text-align:center;letter-spacing:0px;word-spacing:0px;writing-mode:lr-tb;text-anchor:middle;fill:#ffffff;fill-opacity:1;stroke:none;stroke-width:1px;stroke-linecap:butt;stroke-linejoin:miter;stroke-opacity:1"
       x="-1134.5962"
       y="1627.0035"
       id="text5617-7-0-92-1"
       sodipodi:linespacing="125%"
       transform="scale(0.74754159,1.3377182)"><tspan
         sodipodi:role="line"
         id="tspan4220-2-2"
         x="-1134.5962"
         y="1627.0035">EVIDENCE</tspan></text>
    <text
       xml:space="preserve"
       style="font-style:normal;font-variant:normal;font-weight:600;font-stretch:normal;font-size:116.00749969px;line-height:125%;font-family:'Adobe Hebrew';-inkscape-font-specification:'Adobe Hebrew, Semi-Bold';text-align:center;letter-spacing:0px;word-spacing:0px;writing-mode:lr-tb;text-anchor:middle;fill:#ffffff;fill-opacity:1;stroke:none;stroke-width:1px;stroke-linecap:butt;stroke-linejoin:miter;stroke-opacity:1"
       x="-1127.7844"
       y="1713.0884"
       id="text5617-7-0-9-9-3"
       sodipodi:linespacing="125%"
       transform="scale(0.74754159,1.3377182)"><tspan
         y="1713.0884"
         x="-1127.7844"
         sodipodi:role="line"
         id="tspan4240-2-8">ACT</tspan></text>
    <text
       xml:space="preserve"
       style="font-style:normal;font-variant:normal;font-weight:600;font-stretch:normal;font-size:128.47477722px;line-height:125%;font-family:'Adobe Hebrew';-inkscape-font-specification:'Adobe Hebrew, Semi-Bold';text-align:center;letter-spacing:0px;word-spacing:0px;writing-mode:lr-tb;text-anchor:middle;fill:#ffffff;fill-opacity:1;stroke:none;stroke-width:1px;stroke-linecap:butt;stroke-linejoin:miter;stroke-opacity:1"
       x="-1048.2836"
       y="2110.5674"
       id="text5617-7-0-92-1-6"
       sodipodi:linespacing="125%"
       transform="scale(0.82787952,1.2079052)"><tspan
         sodipodi:role="line"
         id="tspan4246"
         x="-1048.2836"
         y="2110.5674">IMMIGRATION</tspan></text>
    <text
       xml:space="preserve"
       style="font-style:normal;font-variant:normal;font-weight:600;font-stretch:normal;font-size:128.47477722px;line-height:125%;font-family:'Adobe Hebrew';-inkscape-font-specification:'Adobe Hebrew, Semi-Bold';text-align:center;letter-spacing:0px;word-spacing:0px;writing-mode:lr-tb;text-anchor:middle;fill:#ffffff;fill-opacity:1;stroke:none;stroke-width:1px;stroke-linecap:butt;stroke-linejoin:miter;stroke-opacity:1"
       x="-1057.1456"
       y="2217.6511"
       id="text5617-7-0-92-1-6-6"
       sodipodi:linespacing="125%"
       transform="scale(0.82787952,1.2079052)"><tspan
         sodipodi:role="line"
         id="tspan4290"
         x="-1057.1456"
         y="2217.6511">AND REFUGEE</tspan></text>
    <text
       xml:space="preserve"
       style="font-style:normal;font-variant:normal;font-weight:600;font-stretch:normal;font-size:116.00749969px;line-height:125%;font-family:'Adobe Hebrew';-inkscape-font-specification:'Adobe Hebrew, Semi-Bold';text-align:center;letter-spacing:0px;word-spacing:0px;writing-mode:lr-tb;text-anchor:middle;fill:#ffffff;fill-opacity:1;stroke:none;stroke-width:1px;stroke-linecap:butt;stroke-linejoin:miter;stroke-opacity:1"
       x="-1158.3256"
       y="2093.7097"
       id="text5617-7-0-92-1-6-6-6"
       sodipodi:linespacing="125%"
       transform="scale(0.74754159,1.3377182)"><tspan
         sodipodi:role="line"
         id="tspan4310"
         x="-1158.3256"
         y="2093.7097">PROTECTION ACT</tspan></text>
    <path
       inkscape:connector-curvature="0"
       id="path4200"
       d="m 343.88535,749.88758 2.22228,-36.55234 -59.65881,8.90715 9.82824,-16.55346 -39.48726,-42.602 17.52192,-3.78126 -4.53007,-21.67934 23.84575,3.78128 6.23952,-16.55346 25.12897,27.64521 -17.94926,-62.0967 17.09452,3.36127 25.29991,-25.54438 23.84688,25.4602 17.09458,-3.44503 -17.94928,62.09631 25.12898,-27.64479 6.23949,16.63721 23.84688,-3.86503 -4.53003,21.67891 17.52191,3.86544 -39.4884,42.51782 9.82935,16.55387 -59.65995,-8.90713 2.22228,36.55233 -4.78646,-0.33744 z"
       style="fill:#000080;fill-opacity:1;fill-rule:nonzero;stroke:none" />
    <path
       inkscape:connector-curvature="0"
       id="path4202"
       d="m 339.9536,747.45089 2.2223,-36.55234 -59.6588,8.90714 9.82933,-16.55385 -39.4884,-42.60199 17.52193,-3.78129 -4.53004,-21.67892 23.84689,3.78128 6.23835,-16.55345 25.12897,27.6448 -17.94926,-62.09632 17.09453,3.36127 25.29995,-25.54435 23.84688,25.4602 17.09453,-3.44503 -17.94927,62.0963 25.12898,-27.64521 6.23952,16.63763 23.84687,-3.86544 -4.53007,21.67933 17.52193,3.86542 -39.4884,42.51784 9.91483,16.55346 -59.74543,-8.90675 2.22231,36.55236 -4.78648,-0.33745 z"
       style="fill:#ffffff;fill-opacity:1;fill-rule:nonzero;stroke:none" />
    <path
       inkscape:connector-curvature="0"
       id="path4204"
       d="m 148.96554,850.31594 0,-3.47678 c -6.874,-0.98526 -8.28198,-2.1441 -11.76044,-11.82102 -6.87412,-19.06446 -13.58249,-38.7082 -20.37381,-58.00345 l -4.63783,1.21687 -21.781792,57.0182 c -3.72694,9.56111 -5.13486,10.48834 -12.00891,11.5894 l -0.16553,3.47678 23.769422,0 0,-3.47678 c -7.867882,-1.10106 -8.530442,-2.37597 -6.625582,-8.34424 1.32514,-4.34597 2.732977,-8.69193 4.140957,-12.80629 l 21.367655,0 c 2.07049,5.44704 3.80971,10.66219 5.05205,14.42859 1.49077,4.46205 0.8282,5.62088 -5.63181,6.72194 l 0,3.47678 28.65578,0 z m -29.73247,-30.0163 -17.88919,0 c 2.89876,-8.34424 5.88032,-17.03617 9.11032,-25.7281 l 0.16552,0 8.61323,25.7281 z"
       style="fill:#000080;fill-opacity:1;fill-rule:nonzero;stroke:none" />
    <path
       inkscape:connector-curvature="0"
       id="path4206"
       d="m 214.64193,830.0346 c -5.46617,11.29951 -11.67773,17.26805 -21.61623,17.26805 -15.40438,0 -26.50223,-13.67521 -26.50223,-34.07234 0,-16.45663 8.94454,-31.63779 25.59116,-31.63779 9.85571,0 17.39239,4.2299 20.45678,16.80347 l 3.64409,-0.75311 c -0.66254,-6.66389 -1.3251,-11.53056 -2.40178,-17.67295 -2.7331,-0.57954 -10.51826,-2.95524 -19.21445,-2.95524 -24.92863,0 -41.98961,15.52884 -41.98961,38.35972 0,17.61544 11.76045,36.56384 39.50497,36.56384 7.45389,0 17.06113,-2.14382 19.87701,-2.89723 1.82208,-3.70863 4.638,-12.16869 6.04594,-17.49964 l -3.39565,-1.50678 z"
       style="fill:#000080;fill-opacity:1;fill-rule:nonzero;stroke:none" />
    <path
       inkscape:connector-curvature="0"
       id="path4208"
       d="m 287.60708,830.0346 c -5.46618,11.29951 -11.67774,17.26805 -21.61624,17.26805 -15.40467,0 -26.50265,-13.67521 -26.50265,-34.07234 0,-16.45663 8.94465,-31.63779 25.59164,-31.63779 9.77283,0 17.30953,4.2299 20.45671,16.80347 l 3.64414,-0.75311 c -0.66259,-6.66389 -1.40796,-11.53056 -2.40182,-17.67295 -2.81588,-0.57954 -10.51822,-2.95524 -19.21441,-2.95524 -24.92908,0 -42.07299,15.52884 -42.07299,38.35972 0,17.61544 11.84335,36.56384 39.58837,36.56384 7.45387,0 17.06107,-2.14382 19.79416,-2.89723 1.90487,-3.70863 4.72078,-12.16869 6.12873,-17.49964 l -3.39564,-1.50678 z"
       style="fill:#000080;fill-opacity:1;fill-rule:nonzero;stroke:none" />
    <path
       inkscape:connector-curvature="0"
       id="path4210"
       d="m 349.05902,831.54138 c -1.73925,4.80944 -3.80974,8.46005 -5.63181,10.77799 -2.48462,2.7814 -6.04594,3.53453 -12.58876,3.53453 -4.38952,0 -8.19926,-0.11498 -10.10417,-1.15884 -2.07049,-1.21687 -2.56741,-3.82444 -2.56741,-9.03959 l 0,-19.70179 8.36489,0 c 9.11028,0 10.2698,0.52152 11.5949,8.46032 l 3.47849,0 0,-21.90365 -3.47849,0 c -1.3251,7.70666 -2.40177,8.46005 -11.5949,8.46005 l -8.36489,0 0,-24.22076 c 0,-3.36096 0.33142,-3.6506 3.89258,-3.6506 l 6.54284,0 c 6.62567,0 9.44157,0.75339 11.18083,2.89721 1.6564,2.31712 2.89871,5.33042 3.89256,9.56056 l 3.5613,-0.52151 c -0.41412,-6.43201 -0.82821,-14.02232 -0.91105,-16.39802 l -49.11164,0 0,3.59256 c 7.86687,0.7534 8.86071,1.15884 8.86071,10.95099 l 0,42.82231 c 0,9.21344 -0.99384,9.96684 -10.3515,10.83602 l 0,3.47678 53.16988,0 c 0.82824,-3.36097 2.98155,-13.5594 3.72694,-18.02144 l -3.5613,-0.75312 z"
       style="fill:#000080;fill-opacity:1;fill-rule:nonzero;stroke:none" />
    <path
       inkscape:connector-curvature="0"
       id="path4212"
       d="m 399.57974,795.44074 c -0.82822,-6.95354 -1.49077,-11.58831 -1.90486,-15.70267 -2.81593,-0.985 -8.19927,-2.72338 -14.24519,-2.72338 -14.41083,0 -23.18987,9.21343 -23.18987,20.80203 0,11.2995 8.77904,17.03617 17.97214,22.01944 8.11643,4.34596 13.16851,8.34425 13.16851,15.52966 0,7.47506 -4.38948,12.34253 -11.51211,12.34253 -10.51822,0 -16.23286,-12.05288 -18.05492,-18.94839 l -3.47846,1.04303 c 0.66254,6.08435 2.07052,15.64546 3.06438,18.25304 1.07664,0.52152 2.98153,1.39071 5.88026,2.25991 2.81591,0.98499 6.54285,1.62231 10.51826,1.62231 14.99053,0 24.92903,-9.56112 24.92903,-21.78758 0,-11.47333 -8.5305,-17.26805 -18.63467,-22.36739 -8.94466,-4.6356 -13.41698,-8.34425 -13.41698,-15.18172 0,-6.14156 4.14107,-11.35672 11.098,-11.35672 8.779,0 12.42315,7.99575 14.32801,14.94929 l 3.47847,-0.75339 z"
       style="fill:#000080;fill-opacity:1;fill-rule:nonzero;stroke:none" />
    <path
       inkscape:connector-curvature="0"
       id="path4214"
       d="m 451.67295,795.44074 c -0.82822,-6.95354 -1.40795,-11.58831 -1.82207,-15.70267 -2.8148,-0.985 -8.19815,-2.72338 -14.32691,-2.72338 -14.32799,0 -23.1898,9.21343 -23.1898,20.80203 0,11.2995 8.86181,17.03617 18.05491,22.01944 8.03364,4.34596 13.08568,8.34425 13.08568,15.52966 0,7.47506 -4.30664,12.34253 -11.42926,12.34253 -10.60106,0 -16.23286,-12.05288 -18.13776,-18.94839 l -3.39565,1.04303 c 0.57976,6.08435 2.07053,15.64546 2.98154,18.25304 1.15948,0.52152 2.98156,1.39071 5.88028,2.25991 2.81591,0.98499 6.54285,1.62231 10.60108,1.62231 14.99056,0 24.92796,-9.56112 24.92796,-21.78758 0,-11.47333 -8.61225,-17.26805 -18.63359,-22.36739 -9.02746,-4.6356 -13.41698,-8.34425 -13.41698,-15.18172 0,-6.14156 4.05824,-11.35672 11.01518,-11.35672 8.77903,0 12.42314,7.99575 14.40973,14.94929 l 3.39566,-0.75339 z"
       style="fill:#000080;fill-opacity:1;fill-rule:nonzero;stroke:none" />
    <path
       inkscape:connector-curvature="0"
       id="path4216"
       d="m 546.9997,796.65762 c -0.66254,-6.72166 -1.15946,-15.87652 -1.15946,-20.744 l -2.40179,0 c -1.82208,2.08605 -2.98157,2.72366 -5.88033,2.72366 l -42.73554,0 c -2.98154,0 -4.38949,-0.23271 -5.96309,-2.72366 l -2.4018,0 c -0.1655,5.85274 -0.82822,13.55887 -1.32514,21.14971 l 3.64415,0 c 1.32509,-5.33097 2.48462,-8.74996 4.14102,-10.83521 1.32515,-1.97026 3.39563,-3.12908 12.25749,-3.12908 l 4.88642,0 0,52.9041 c 0,9.09763 -0.91103,9.96684 -10.10413,10.83602 l 0,3.47678 32.87984,0 0,-3.47678 c -9.77283,-0.86918 -10.68388,-1.73839 -10.68388,-10.83602 l 0,-52.9041 6.04594,0 c 7.12258,0 9.27593,0.75339 11.09797,2.89721 1.57361,2.08552 3.06438,5.33042 4.14108,10.95128 l 3.56125,-0.28991 z"
       style="fill:#000080;fill-opacity:1;fill-rule:nonzero;stroke:none" />
    <path
       inkscape:connector-curvature="0"
       id="path4218"
       d="m 589.48679,777.01469 c -23.5211,0 -37.0209,18.54212 -37.0209,37.8382 0,21.26606 15.1562,37.08536 35.77858,37.08536 19.95875,0 36.52291,-14.5444 36.52291,-38.24446 0,-21.96143 -16.23289,-36.6791 -35.19775,-36.6791 l -0.083,0 z m -1.98769,4.46177 c 13.1674,0 23.18875,12.68966 23.18875,35.11482 0,20.68677 -9.44158,31.00099 -20.37284,31.00099 -14.41082,0 -23.76956,-15.47161 -23.76956,-35.11535 0,-19.93339 9.60721,-31.00046 20.87085,-31.00046 l 0.083,0 z"
       style="fill:#000080;fill-opacity:1;fill-rule:nonzero;stroke:none" />
    <path
       inkscape:connector-curvature="0"
       id="path4220"
       d="m 312.767,1033.4718 0,-3.4726 c -7.05068,-0.9922 -8.51956,-2.2323 -12.0449,-11.9672 -7.12316,-19.28532 -14.10038,-39.12892 -21.00417,-58.60017 l -4.84734,1.17829 -22.54744,57.66998 c -3.81912,9.6107 -5.21457,10.6031 -12.41213,11.7191 l -0.0736,3.4726 24.45701,0 0,-3.4726 c -8.15234,-1.116 -8.73987,-2.4184 -6.83034,-8.4326 1.39545,-4.4026 2.86434,-8.8056 4.25981,-12.9601 l 22.10677,0 c 2.12991,5.5187 3.96598,10.7277 5.28801,14.5722 1.4689,4.5261 0.8079,5.7045 -5.87557,6.8205 l 0,3.4726 29.52374,0 z m -30.6254,-30.3224 -18.50802,0 c 3.01126,-8.43362 6.09593,-17.23891 9.40094,-25.98241 l 0.22033,0 8.88675,25.98241 z"
       style="fill:#000080;fill-opacity:1;fill-rule:nonzero;stroke:none" />
    <path
       inkscape:connector-curvature="0"
       id="path4222"
       d="m 380.70318,1013.0091 c -5.65525,11.4101 -12.11836,17.4243 -22.32714,17.4243 -15.93749,0 -27.39482,-13.8276 -27.39482,-34.41532 0,-16.68082 9.18058,-31.99756 26.44002,-31.99756 10.13534,0 17.92046,4.27873 21.15202,16.99103 l 3.67225,-0.74414 c -0.58758,-6.69714 -1.322,-11.65791 -2.42368,-17.85908 -2.86433,-0.5581 -10.86979,-2.9765 -19.90347,-2.9765 -25.70557,0 -43.33223,15.6267 -43.33223,38.75685 0,17.79692 12.19176,36.95742 40.83511,36.95742 7.63825,0 17.62669,-2.2325 20.49103,-2.9765 1.90956,-3.7207 4.77392,-12.2773 6.31624,-17.6101 l -3.52533,-1.5504 z"
       style="fill:#000080;fill-opacity:1;fill-rule:nonzero;stroke:none" />
    <path
       inkscape:connector-curvature="0"
       id="path4224"
       d="m 453.04501,979.27515 c -0.66098,-6.82109 -1.17512,-15.99876 -1.17512,-20.95952 l -2.49709,0 c -1.90958,2.10847 -3.08467,2.72837 -6.09591,2.72837 l -44.0657,0 c -3.08466,0 -4.627,-0.18458 -6.2428,-2.72837 l -2.42367,0 c -0.22033,5.95302 -0.88133,13.70426 -1.39545,21.39369 l 3.74568,0 c 1.39545,-5.39493 2.57057,-8.86743 4.25978,-10.9759 1.39546,-1.98424 3.52535,-3.16254 12.70589,-3.16254 l 5.06767,0 0,53.45342 c 0,9.2386 -1.02822,10.1069 -10.50256,10.9749 l 0,3.4726 34.00383,0 0,-3.4726 c -10.06093,-0.868 -11.01568,-1.7363 -11.01568,-10.9749 l 0,-53.45342 6.16834,0 c 7.34445,0 9.62126,0.74413 11.53079,2.91441 1.61579,2.10845 3.08467,5.39493 4.25979,11.10012 l 3.67221,-0.31026 z"
       style="fill:#000080;fill-opacity:1;fill-rule:nonzero;stroke:none" />
    <path
       inkscape:connector-curvature="0"
       id="path4226"
       d="m 105.3519,949.31592 0,-3.77608 c -6.128607,-0.90917 -6.791197,-1.60856 -6.791197,-11.60806 l 0,-46.08101 c 0,-10.13959 0.66259,-10.83896 6.791197,-11.53801 l 0,-3.91616 -22.527097,0 0,3.91616 c 6.1287,0.69905 6.87408,1.39842 6.87408,11.53801 l 0,46.08101 c 0,9.9995 -0.74538,10.69889 -6.87408,11.60806 l 0,3.77608 22.527097,0 z"
       style="fill:#000080;fill-opacity:1;fill-rule:nonzero;stroke:none" />
    <path
       inkscape:connector-curvature="0"
       id="path4228"
       d="m 165.56224,872.3966 -18.96588,0 0,3.84611 c 5.71465,0.41957 7.45388,2.30761 7.86796,7.55216 0.16553,3.35651 0.49693,8.81085 0.49693,19.50973 l 0,24.19399 -0.24846,0 -31.5545,-55.10199 -13.33407,0 0,3.84611 c 3.56132,0.41957 5.2176,1.39844 6.7912,4.26568 1.49078,2.79687 1.65641,4.33539 1.65641,12.37714 l 0,25.10283 c 0,10.55913 -0.41409,15.94342 -0.66255,19.9293 -0.41408,5.31458 -2.319,7.06254 -6.7912,7.62218 l 0,3.77608 19.04858,0 0,-3.77608 c -5.63173,-0.55964 -7.1225,-2.44768 -7.53658,-7.97172 -0.24847,-3.63634 -0.57977,-9.02063 -0.57977,-19.57976 l 0,-27.90004 0.16552,0 33.45939,60.34622 3.23002,0 0,-47.12994 c 0,-10.69888 0.24847,-16.15322 0.57977,-19.78955 0.41396,-5.45433 2.07041,-6.9228 6.37707,-7.27234 l 0,-3.84611 z"
       style="fill:#000080;fill-opacity:1;fill-rule:nonzero;stroke:none" />
    <path
       inkscape:connector-curvature="0"
       id="path4230"
       d="m 207.30345,890.29812 c -0.3314,-6.43321 -0.74537,-14.75479 -0.74537,-17.90152 l -36.19227,0 0,3.91616 c 5.8802,0.69905 6.54274,1.39842 6.54274,12.02727 l 0,44.89237 c 0,10.69888 -0.66254,11.39827 -6.62554,12.30744 l 0,3.77608 23.18938,0 0,-3.77608 c -6.95663,-0.90917 -7.61917,-1.60856 -7.61917,-12.44719 l 0,-19.64946 7.12226,0 c 7.12257,0 7.70233,1.25869 8.61335,9.30012 l 2.56745,0 0,-23.35453 -2.56745,0 c -0.99384,7.6919 -1.49078,8.74081 -8.61335,8.74081 l -7.12226,0 0,-27.06189 c 0,-3.56629 0.24845,-3.91581 2.81556,-3.91581 l 4.80361,0 c 5.13488,0 6.95695,0.90883 8.61336,3.84577 1.15953,2.3076 1.9049,5.3146 2.65029,9.99985 l 2.56741,-0.69939 z"
       style="fill:#000080;fill-opacity:1;fill-rule:nonzero;stroke:none" />
    <path
       inkscape:connector-curvature="0"
       id="path4232"
       d="m 240.68027,870.64864 c -17.39237,0 -27.41371,19.85925 -27.41371,40.55664 0,22.86626 11.26365,39.8586 26.5027,39.8586 14.82492,0 27.08241,-15.59359 27.08241,-41.11728 0,-23.4946 -12.00903,-39.29796 -26.08855,-39.29796 l -0.083,0 z m -1.40795,4.75495 c 9.69004,0 17.14393,13.63584 17.14393,37.68974 0,22.2369 -6.95695,33.28564 -15.07341,33.28564 -10.68389,0 -17.64086,-16.64282 -17.64086,-37.69106 0,-21.39678 7.12262,-33.28432 15.48752,-33.28432 l 0.083,0 z"
       style="fill:#000080;fill-opacity:1;fill-rule:nonzero;stroke:none" />
    <path
       inkscape:connector-curvature="0"
       id="path4234"
       d="m 320.26997,946.86824 c -1.73923,-0.97888 -3.31281,-2.37731 -5.13489,-5.24455 -1.57358,-2.79688 -3.39562,-6.29346 -6.1287,-12.7967 -2.40184,-5.24456 -5.46618,-13.14624 -6.7085,-16.92231 5.46618,-3.35552 9.85568,-9.29947 9.85568,-19.50875 0,-7.34237 -2.07055,-12.58692 -5.21773,-15.73365 -3.06438,-3.21676 -6.95586,-4.26568 -13.41586,-4.26568 l -20.95365,0 0,3.91616 c 5.88027,0.69905 6.54281,1.67825 6.54281,11.32822 l 0,46.15106 c 0,9.92947 -0.82818,10.83863 -6.87413,11.7478 l 0,3.77608 22.44447,0 0,-3.77608 c -6.12876,-0.90917 -6.79132,-1.81833 -6.79132,-11.7478 l 0,-17.76176 1.82208,0 c 3.23001,0 4.55511,1.46847 5.96309,4.89502 2.31896,6.01364 4.72079,12.7967 6.95582,18.1113 3.39568,7.55215 6.54285,10.62884 14.74212,11.04841 0.91102,0.13874 1.90487,0.2808 2.48462,0.2808 l 0.41409,-3.49626 z m -32.38182,-35.31309 0,-28.80919 c 0,-2.7972 0.24847,-4.05589 0.74538,-4.75495 0.49693,-0.69938 1.65641,-1.18899 3.80978,-1.18899 5.05204,0 10.18583,4.54551 10.18583,17.3422 0,6.1534 -1.15948,10.83863 -3.89147,14.33489 -1.90487,2.30661 -4.47233,3.07604 -8.19927,3.07604 l -2.65025,0 z"
       style="fill:#000080;fill-opacity:1;fill-rule:nonzero;stroke:none" />
    <path
       inkscape:connector-curvature="0"
       id="path4236"
       d="m 387.76898,949.31592 0,-3.77608 c -6.46003,-1.04891 -6.70849,-1.81833 -6.87414,-13.49609 l -0.7454,-43.35385 c -0.16553,-10.83896 0.1655,-11.39827 6.70849,-12.37714 l 0,-3.91616 -14.74209,0 -16.72981,54.8922 -16.39854,-54.8922 -14.90773,0 0,3.91616 c 6.95695,0.97887 7.45386,2.09781 6.79132,16.43271 l -1.15952,23.63467 c -0.57973,12.44685 -1.15949,18.11096 -1.57358,22.09681 -0.57975,4.40543 -2.07054,6.29346 -6.62569,6.99285 l 0,3.84612 18.80035,0 0,-3.84612 c -5.21771,-0.83913 -6.95694,-1.74829 -7.12262,-7.13259 -0.24845,-4.19564 -0.24845,-9.64998 0.083,-19.29994 l 0.99385,-32.09566 0.24845,0 16.81266,61.67492 1.90487,0 18.2206,-63.00366 0.33141,0 0.24846,46.43088 c 0.083,11.67776 -0.33142,12.44718 -6.37723,13.49609 l 0,3.77608 22.11317,0 z"
       style="fill:#000080;fill-opacity:1;fill-rule:nonzero;stroke:none" />
    <path
       inkscape:connector-curvature="0"
       id="path4238"
       d="m 443.83868,949.31592 0,-3.77608 c -5.0521,-1.04891 -6.12873,-2.3076 -8.61335,-12.65696 -5.13493,-20.4886 -10.10417,-41.53587 -15.07343,-62.23424 l -3.47848,1.25868 -16.15005,61.18533 c -2.81589,10.27933 -3.80973,11.32825 -8.94466,12.44719 l 0,3.77608 17.47521,0 0,-3.77608 c -5.79746,-1.11894 -6.21156,-2.51739 -4.88642,-8.95092 0.99386,-4.61521 2.07052,-9.30012 3.06435,-13.70555 l 15.90161,0 c 1.49077,5.80386 2.81591,11.39794 3.72694,15.45384 1.07667,4.75495 0.57974,6.08369 -4.22386,7.20263 l 0,3.77608 21.20214,0 z m -21.94754,-32.23672 -13.2513,0 c 2.15333,-8.94961 4.38949,-18.31977 6.70849,-27.62021 l 0.16551,0 6.37718,27.62021 z"
       style="fill:#000080;fill-opacity:1;fill-rule:nonzero;stroke:none" />
    <path
       inkscape:connector-curvature="0"
       id="path4240"
       d="m 487.89825,891.69655 c -0.49694,-7.20228 -0.82819,-16.99235 -0.82819,-22.2369 l -1.82207,0 c -1.32515,2.2379 -2.23616,2.93695 -4.30669,2.93695 l -31.63645,0 c -2.23616,0 -3.31285,-0.2808 -4.47232,-2.93695 l -1.73923,0 c -0.16552,6.29347 -0.66256,14.545 -0.99385,22.72651 l 2.65023,0 c 0.99386,-5.73416 1.82209,-9.4402 3.06439,-11.67777 0.99386,-2.09782 2.48353,-3.3565 9.10919,-3.3565 l 3.6441,0 0,56.77989 c 0,9.78973 -0.74539,10.69889 -7.53667,11.60806 l 0,3.77608 24.34932,0 0,-3.77608 c -7.20541,-0.90917 -7.868,-1.81833 -7.868,-11.60806 l 0,-56.77989 4.38954,0 c 5.30049,0 6.95695,0.83912 8.28205,3.14672 1.15952,2.16753 2.23618,5.66411 3.06439,11.74779 l 2.65026,-0.34985 z"
       style="fill:#000080;fill-opacity:1;fill-rule:nonzero;stroke:none" />
    <path
       inkscape:connector-curvature="0"
       id="path4242"
       d="m 515.31195,949.31592 0,-3.77608 c -6.04594,-0.90917 -6.70848,-1.60856 -6.70848,-11.60806 l 0,-46.08101 c 0,-10.13959 0.66254,-10.83896 6.70848,-11.53801 l 0,-3.91616 -22.44445,0 0,3.91616 c 6.12876,0.69905 6.87415,1.39842 6.87415,11.53801 l 0,46.08101 c 0,9.9995 -0.74539,10.69889 -6.87415,11.60806 l 0,3.77608 22.44445,0 z"
       style="fill:#000080;fill-opacity:1;fill-rule:nonzero;stroke:none" />
    <path
       inkscape:connector-curvature="0"
       id="path4244"
       d="m 548.35747,870.64864 c -17.39237,0 -27.41371,19.85925 -27.41371,40.55664 0,22.86626 11.26365,39.8586 26.50268,39.8586 14.82493,0 27.08242,-15.59359 27.08242,-41.11728 0,-23.4946 -12.00903,-39.29796 -26.08857,-39.29796 l -0.083,0 z m -1.40795,4.75495 c 9.69004,0 17.14392,13.63584 17.14392,37.68974 0,22.2369 -6.95695,33.28564 -15.07343,33.28564 -10.68389,0 -17.64083,-16.64282 -17.64083,-37.69106 0,-21.39678 7.12262,-33.28432 15.48752,-33.28432 l 0.083,0 z"
       style="fill:#000080;fill-opacity:1;fill-rule:nonzero;stroke:none" />
    <path
       inkscape:connector-curvature="0"
       id="path4246"
       d="m 634.07593,872.3966 -18.96597,0 0,3.84611 c 5.71462,0.41957 7.45386,2.30761 7.86796,7.55216 0.24846,3.35651 0.49692,8.81085 0.49692,19.50973 l 0,24.19399 -0.24846,0 -31.5536,-55.10199 -13.3342,0 0,3.84611 c 3.56133,0.41957 5.21774,1.39844 6.87417,4.26568 1.40795,2.79687 1.57357,4.33539 1.57357,12.37714 l 0,25.10283 c 0,10.55913 -0.33141,15.94342 -0.66256,19.9293 -0.41409,5.31458 -2.319,7.06254 -6.79132,7.62218 l 0,3.77608 19.04882,0 0,-3.77608 c -5.63184,-0.55964 -7.12262,-2.44768 -7.53671,-7.97172 -0.24846,-3.63634 -0.49692,-9.02063 -0.49692,-19.57976 l 0,-27.90004 0.16551,0 33.37571,60.34622 3.23001,0 0,-47.12994 c 0,-10.69888 0.24847,-16.15322 0.57972,-19.78955 0.41413,-5.45433 2.07054,-6.9228 6.37724,-7.27234 l 0,-3.84611 z"
       style="fill:#000080;fill-opacity:1;fill-rule:nonzero;stroke:none" />
    <path
       inkscape:connector-curvature="0"
       id="path4248"
       d="m 146.06683,848.11379 0,-3.41873 c -6.7912,-0.98499 -8.28198,-2.20186 -11.67761,-11.82101 -6.95687,-19.12223 -13.66537,-38.76599 -20.37387,-58.06123 l -4.63783,1.21687 -21.864552,57.01819 c -3.72692,9.56113 -5.05206,10.54612 -12.00893,11.64718 l -0.083,3.41873 23.686527,0 0,-3.41873 c -7.867837,-1.10106 -8.447607,-2.43372 -6.625527,-8.40228 1.32511,-4.28792 2.81589,-8.63388 4.14103,-12.74797 l 21.450372,0 c 2.07053,5.38899 3.80976,10.60414 5.05208,14.37054 1.40794,4.46178 0.82817,5.67865 -5.71465,6.77971 l 0,3.41873 28.6558,0 z m -29.64963,-30.01601 -17.889175,0 c 2.898705,-8.34424 5.880255,-17.03617 9.027425,-25.67005 l 0.24846,0 8.61329,25.67005 z"
       style="fill:#ffffff;fill-opacity:1;fill-rule:nonzero;stroke:none" />
    <path
       inkscape:connector-curvature="0"
       id="path4250"
       d="m 211.82602,827.83273 c -5.46617,11.2995 -11.67776,17.26804 -21.61626,17.26804 -15.40434,0 -26.50221,-13.67547 -26.50221,-34.07233 0,-16.4569 8.86169,-31.63805 25.50838,-31.63805 9.85565,0 17.39236,4.23016 20.53954,16.80374 l 3.56131,-0.75339 c -0.57975,-6.60586 -1.32514,-11.4725 -2.31899,-17.67266 -2.81589,-0.52152 -10.60105,-2.95526 -19.29724,-2.95526 -24.92861,0 -41.98962,15.52884 -41.98962,38.41749 0,17.55768 11.84329,36.50607 39.505,36.50607 7.45386,0 17.14392,-2.14411 19.877,-2.89722 1.90486,-3.70864 4.63795,-12.16868 6.12873,-17.44188 l -3.39564,-1.56455 z"
       style="fill:#ffffff;fill-opacity:1;fill-rule:nonzero;stroke:none" />
    <path
       inkscape:connector-curvature="0"
       id="path4252"
       d="m 284.70837,827.83273 c -5.46619,11.2995 -11.67775,17.26804 -21.61624,17.26804 -15.40468,0 -26.41987,-13.67547 -26.41987,-34.07233 0,-16.4569 8.86182,-31.63805 25.50881,-31.63805 9.8557,0 17.39238,4.23016 20.45677,16.80374 l 3.64408,-0.75339 c -0.57971,-6.60586 -1.3251,-11.4725 -2.40178,-17.67266 -2.7331,-0.52152 -10.51825,-2.95526 -19.21444,-2.95526 -24.92907,0 -41.99017,15.52884 -41.99017,38.41749 0,17.55768 11.76058,36.50607 39.50554,36.50607 7.45388,0 17.06111,-2.14411 19.877,-2.89722 1.82207,-3.70864 4.63799,-12.16868 6.12877,-17.44188 l -3.47847,-1.56455 z"
       style="fill:#ffffff;fill-opacity:1;fill-rule:nonzero;stroke:none" />
    <path
       inkscape:connector-curvature="0"
       id="path4254"
       d="m 346.24313,829.39728 c -1.73923,4.75167 -3.80977,8.46004 -5.71464,10.71994 -2.48463,2.83947 -5.9631,3.59285 -12.50595,3.59285 -4.47233,0 -8.28209,-0.11497 -10.10412,-1.21687 -2.07054,-1.15909 -2.65029,-3.76668 -2.65029,-8.98184 l 0,-19.75954 8.44771,0 c 9.0275,0 10.18697,0.57955 11.51212,8.46004 l 3.56131,0 0,-21.90364 -3.56131,0 c -1.32515,7.70693 -2.31901,8.46032 -11.51212,8.46032 l -8.44771,0 0,-24.163 c 0,-3.3607 0.3314,-3.70837 3.97538,-3.70837 l 6.54287,0 c 6.54286,0 9.35874,0.75312 11.09798,2.95526 1.65644,2.25989 2.89876,5.27237 3.97539,9.50226 l 3.47848,-0.52152 c -0.41408,-6.37317 -0.82818,-13.9643 -0.91102,-16.39803 l -49.02881,0 0,3.59285 c 7.86688,0.75311 8.77789,1.21685 8.77789,10.951 l 0,42.82229 c 0,9.21344 -0.91101,10.02459 -10.35149,10.89378 l 0,3.41873 53.16988,0 c 0.82818,-3.36068 3.06434,-13.5594 3.72694,-17.96312 l -3.47849,-0.75339 z"
       style="fill:#ffffff;fill-opacity:1;fill-rule:nonzero;stroke:none" />
    <path
       inkscape:connector-curvature="0"
       id="path4256"
       d="m 396.68103,793.29692 c -0.82823,-6.95298 -1.408,-11.64663 -1.82208,-15.76072 -2.81593,-0.985 -8.19927,-2.72338 -14.32799,-2.72338 -14.32804,0 -23.18984,9.21345 -23.18984,20.8598 0,11.24147 8.8618,16.97814 18.05493,22.01945 8.03364,4.2882 13.08572,8.34424 13.08572,15.47162 0,7.47505 -4.30671,12.34253 -11.42927,12.34253 -10.60112,0 -16.2329,-11.99486 -18.13776,-18.9484 l -3.3957,1.10108 c 0.57976,6.08435 2.07053,15.58742 2.98156,18.195 1.15952,0.52152 2.98155,1.3907 5.88029,2.25989 2.81589,0.98527 6.54283,1.62259 10.60106,1.62259 14.99058,0 24.92908,-9.50308 24.92908,-21.78785 0,-11.47333 -8.61338,-17.21 -18.63468,-22.30908 -9.02749,-4.69364 -13.41697,-8.34425 -13.41697,-15.18198 0,-6.19961 4.14102,-11.41476 11.01515,-11.41476 8.779,0 12.42312,8.05461 14.41081,15.00732 l 3.39569,-0.75311 z"
       style="fill:#ffffff;fill-opacity:1;fill-rule:nonzero;stroke:none" />
    <path
       inkscape:connector-curvature="0"
       id="path4258"
       d="m 448.85702,793.29692 c -0.82709,-6.95298 -1.48964,-11.64663 -1.90377,-15.76072 -2.81589,-0.985 -8.19926,-2.72338 -14.24516,-2.72338 -14.41083,0 -23.18986,9.21345 -23.18986,20.8598 0,11.24147 8.77903,16.97814 17.97214,22.01945 8.11644,4.2882 13.16851,8.34424 13.16851,15.47162 0,7.47505 -4.38952,12.34253 -11.51211,12.34253 -10.51825,0 -16.23288,-11.99486 -18.05492,-18.9484 l -3.47847,1.10108 c 0.66255,6.08435 2.07049,15.58742 3.06435,18.195 1.07668,0.52152 2.98154,1.3907 5.88029,2.25989 2.81589,0.98527 6.54283,1.62259 10.51821,1.62259 14.99059,0 24.928,-9.50308 24.928,-21.78785 0,-11.47333 -8.52947,-17.21 -18.63359,-22.30908 -8.94464,-4.69364 -13.41697,-8.34425 -13.41697,-15.18198 0,-6.19961 4.14102,-11.41476 11.09797,-11.41476 8.77902,0 12.42312,8.05461 14.32803,15.00732 l 3.47735,-0.75311 z"
       style="fill:#ffffff;fill-opacity:1;fill-rule:nonzero;stroke:none" />
    <path
       inkscape:connector-curvature="0"
       id="path4260"
       d="m 544.10099,794.45575 c -0.57977,-6.72111 -1.07668,-15.81847 -1.07668,-20.68595 l -2.4018,0 c -1.90486,2.02802 -2.98153,2.66534 -5.88026,2.66534 l -42.73555,0 c -2.98154,0 -4.47233,-0.17248 -6.04594,-2.66534 l -2.319,0 c -0.24845,5.85246 -0.82818,13.55939 -1.40794,21.14943 l 3.64412,0 c 1.32514,-5.33096 2.48462,-8.80691 4.14106,-10.89296 1.32511,-1.91223 3.39564,-3.1291 12.34028,-3.1291 l 4.88642,0 0,52.90411 c 0,9.15541 -0.99386,10.02459 -10.18695,10.89378 l 0,3.41873 32.87987,0 0,-3.41873 c -9.69003,-0.86919 -10.60104,-1.73837 -10.60104,-10.89378 l 0,-52.90411 5.9631,0 c 7.12256,0 9.35874,0.75312 11.18081,2.95526 1.57357,2.02802 2.98155,5.27237 4.14102,10.951 l 3.47848,-0.34768 z"
       style="fill:#ffffff;fill-opacity:1;fill-rule:nonzero;stroke:none" />
    <path
       inkscape:connector-curvature="0"
       id="path4262"
       d="m 586.67092,774.81282 c -23.52115,0 -37.10375,18.54187 -37.10375,37.83794 0,21.26632 15.23904,37.08562 35.86143,37.08562 19.9587,0 36.44005,-14.48662 36.44005,-38.24446 0,-21.90365 -16.23289,-36.6791 -35.11494,-36.6791 l -0.083,0 z m -1.9877,4.46177 c 13.08458,0 23.1887,12.68939 23.1887,35.11454 0,20.74482 -9.44157,31.05932 -20.37282,31.05932 -14.41083,0 -23.85241,-15.52965 -23.85241,-35.1734 0,-19.93339 9.60724,-31.00046 20.9537,-31.00046 l 0.083,0 z"
       style="fill:#ffffff;fill-opacity:1;fill-rule:nonzero;stroke:none" />
    <path
       inkscape:connector-curvature="0"
       id="path4264"
       d="m 310.26986,1031.1775 0,-3.5345 c -7.05067,-0.9914 -8.51953,-2.1697 -12.04488,-11.9055 -7.19658,-19.28532 -14.10036,-39.12861 -21.07759,-58.662 l -4.77388,1.24013 -22.54748,57.60797 c -3.89255,9.6737 -5.288,10.6038 -12.41213,11.7194 l -0.14678,3.5345 24.53049,0 0,-3.5345 c -8.15234,-1.1156 -8.81335,-2.4179 -6.9038,-8.4327 1.39547,-4.4029 2.93779,-8.7435 4.33324,-12.8983 l 22.10679,0 c 2.12991,5.457 3.96599,10.7277 5.21458,14.5726 1.46887,4.4648 0.88132,5.6428 -5.87559,6.7584 l 0,3.5345 29.59718,0 z m -30.69879,-30.3844 -18.43457,0 c 3.01121,-8.43362 6.09588,-17.17709 9.40089,-25.98272 l 0.22033,0 8.81335,25.98272 z"
       style="fill:#ffffff;fill-opacity:1;fill-rule:nonzero;stroke:none" />
    <path
       inkscape:connector-curvature="0"
       id="path4266"
       d="m 378.13259,1010.6528 c -5.6552,11.4098 -12.04487,17.4241 -22.32711,17.4241 -15.93747,0 -27.32134,-13.7655 -27.32134,-34.41512 0,-16.61902 9.18054,-31.99758 26.36656,-31.99758 10.13534,0 17.92047,4.27875 21.152,16.99104 l 3.74569,-0.74413 c -0.661,-6.69715 -1.39547,-11.5961 -2.49714,-17.85908 -2.86433,-0.5581 -10.86976,-2.97653 -19.83001,-2.97653 -25.77903,0 -43.40569,15.68853 -43.40569,38.81858 0,17.73522 12.19179,36.89572 40.83515,36.89572 7.71167,0 17.62669,-2.1704 20.491,-2.9145 1.90955,-3.7818 4.84735,-12.2775 6.31623,-17.6724 l -3.52534,-1.5501 z"
       style="fill:#ffffff;fill-opacity:1;fill-rule:nonzero;stroke:none" />
    <path
       inkscape:connector-curvature="0"
       id="path4268"
       d="m 450.47447,976.91884 c -0.58758,-6.82108 -1.17512,-15.99876 -1.17512,-20.89771 l -2.42366,0 c -1.90955,2.04636 -3.08468,2.72867 -6.09589,2.72867 l -44.1392,0 c -3.08466,0 -4.55354,-0.24902 -6.16933,-2.72867 l -2.49708,0 c -0.22034,5.89122 -0.80793,13.64246 -1.39547,21.33188 l 3.74567,0 c 1.39546,-5.39492 2.57056,-8.86772 4.33322,-10.9759 1.39546,-1.92242 3.52533,-3.16254 12.70593,-3.16254 l 4.9942,0 0,53.45313 c 0,9.2398 -0.95479,10.1078 -10.42912,10.9753 l 0,3.5345 33.93038,0 0,-3.5345 c -10.0609,-0.8675 -11.01571,-1.7355 -11.01571,-10.9753 l 0,-53.45313 6.24184,0 c 7.34443,0 9.62121,0.80595 11.53075,2.97651 1.6158,2.04635 3.08468,5.33283 4.25981,11.03772 l 3.59878,-0.30996 z"
       style="fill:#ffffff;fill-opacity:1;fill-rule:nonzero;stroke:none" />
    <path
       inkscape:connector-curvature="0"
       id="path4270"
       d="m 102.45319,946.65845 0,-3.70604 c -6.045817,-0.97886 -6.708357,-1.67825 -6.708357,-11.67775 l 0,-46.08135 c 0,-10.06954 0.66254,-10.76859 6.708357,-11.46798 l 0,-3.98586 -22.444267,0 0,3.98586 c 6.12869,0.69939 6.79129,1.39844 6.79129,11.46798 l 0,46.08135 c 0,9.9995 -0.6626,10.69889 -6.79129,11.67775 l 0,3.70604 22.444267,0 z"
       style="fill:#ffffff;fill-opacity:1;fill-rule:nonzero;stroke:none" />
    <path
       inkscape:connector-curvature="0"
       id="path4272"
       d="m 162.66348,869.73947 -18.88292,0 0,3.84611 c 5.63169,0.48929 7.37092,2.30761 7.78506,7.55216 0.24846,3.35653 0.57972,8.88055 0.57972,19.57945 l 0,24.19398 -0.24846,0 -31.55452,-55.1717 -13.33402,0 0,3.84611 c 3.47849,0.48929 5.21772,1.39845 6.79129,4.33539 1.49065,2.72718 1.57349,4.26568 1.57349,12.30711 l 0,25.10314 c 0,10.62884 -0.33142,15.94344 -0.66244,19.9293 -0.41414,5.31425 -2.319,7.06254 -6.70848,7.69189 l 0,3.70604 18.96583,0 0,-3.70604 c -5.54899,-0.62935 -7.12258,-2.44734 -7.53668,-8.04175 -0.16551,-3.636 -0.49693,-8.9506 -0.49693,-19.57944 l 0,-27.90001 0.16552,0 33.37658,60.41622 3.23002,0 0,-47.13024 c 0,-10.6989 0.3314,-16.22292 0.57972,-19.78923 0.4141,-5.45433 2.07052,-6.99284 6.3771,-7.34238 l 0,-3.84611 z"
       style="fill:#ffffff;fill-opacity:1;fill-rule:nonzero;stroke:none" />
    <path
       inkscape:connector-curvature="0"
       id="path4274"
       d="m 204.48759,887.64098 c -0.41414,-6.36348 -0.7454,-14.75477 -0.7454,-17.90151 l -36.27508,0 0,3.98586 c 5.88025,0.69939 6.62564,1.39844 6.62564,11.95758 l 0,44.89237 c 0,10.69888 -0.74539,11.39827 -6.70849,12.37713 l 0,3.70604 23.27223,0 0,-3.70604 c -7.03944,-0.97886 -7.6192,-1.67825 -7.6192,-12.44718 l 0,-19.71951 7.03947,0 c 7.12257,0 7.78513,1.32874 8.69619,9.37049 l 2.48462,0 0,-23.42489 -2.48462,0 c -0.99386,7.69224 -1.57362,8.74114 -8.69619,8.74114 l -7.03947,0 0,-26.99218 c 0,-3.63601 0.24846,-3.98586 2.73308,-3.98586 l 4.88612,0 c 5.1349,0 6.95693,0.97921 8.53054,3.84612 1.24231,2.30761 1.90486,5.38429 2.7331,9.99949 l 2.56746,-0.69905 z"
       style="fill:#ffffff;fill-opacity:1;fill-rule:nonzero;stroke:none" />
    <path
       inkscape:connector-curvature="0"
       id="path4276"
       d="m 237.86436,867.99117 c -17.39239,0 -27.41369,19.9293 -27.41369,40.62703 0,22.7962 11.26362,39.78854 26.50267,39.78854 14.74213,0 26.99958,-15.59389 26.99958,-41.04624 0,-23.56563 -12.009,-39.36933 -26.00574,-39.36933 l -0.083,0 z m -1.49079,4.75529 c 9.77288,0 17.22675,13.63583 17.22675,37.68974 0,22.23688 -7.03978,33.28531 -15.15621,33.28531 -10.60105,0 -17.55801,-16.64248 -17.55801,-37.68975 0,-21.39776 7.12258,-33.2853 15.40469,-33.2853 l 0.083,0 z"
       style="fill:#ffffff;fill-opacity:1;fill-rule:nonzero;stroke:none" />
    <path
       inkscape:connector-curvature="0"
       id="path4278"
       d="m 317.45409,944.21111 c -1.82207,-0.90916 -3.31283,-2.3076 -5.13491,-5.24455 -1.65641,-2.7972 -3.39565,-6.29348 -6.12874,-12.79671 -2.40179,-5.24455 -5.46507,-13.14622 -6.79018,-16.8526 5.54788,-3.35552 9.93736,-9.29912 9.93736,-19.57843 0,-7.34238 -2.07048,-12.51723 -5.2177,-15.66395 -3.06325,-3.28649 -7.03865,-4.3354 -13.41585,-4.3354 l -21.03651,0 0,3.98586 c 5.88029,0.69939 6.62568,1.60822 6.62568,11.2582 l 0,46.2211 c 0,9.85974 -0.82821,10.76892 -6.87415,11.74778 l 0,3.70604 22.44446,0 0,-3.70604 c -6.12872,-0.97886 -6.87412,-1.88804 -6.87412,-11.74778 l 0,-17.83149 1.82204,0 c 3.23,0 4.638,1.53851 6.04593,4.89504 2.23615,6.01365 4.63795,12.79669 6.95695,18.181 3.39453,7.55215 6.45893,10.55914 14.6582,11.0484 0.99385,0.0694 1.9877,0.20813 2.56742,0.20813 l 0.41412,-3.49625 z m -32.46466,-35.24338 0,-28.87889 c 0,-2.79721 0.24847,-4.05589 0.82818,-4.75529 0.49694,-0.69905 1.65644,-1.18865 3.80978,-1.18865 5.05208,0 10.18696,4.54517 10.18696,17.34187 0,6.15372 -1.15947,10.83896 -3.89256,14.33521 -1.9877,2.30761 -4.55518,3.14575 -8.19927,3.14575 l -2.73309,0 z"
       style="fill:#ffffff;fill-opacity:1;fill-rule:nonzero;stroke:none" />
    <path
       inkscape:connector-curvature="0"
       id="path4280"
       d="m 384.95307,946.65845 0,-3.70604 c -6.46002,-1.0489 -6.79133,-1.88804 -6.95696,-13.49608 l -0.74538,-43.42389 c -0.16552,-10.83863 0.24846,-11.39794 6.79132,-12.30711 l 0,-3.98586 -14.82496,0 -16.72978,54.89186 -16.39852,-54.89186 -14.82497,0 0,3.98586 c 6.87416,0.90917 7.45388,2.09783 6.7085,16.36299 l -1.07666,23.63435 c -0.66258,12.44718 -1.15951,18.18134 -1.5736,22.09716 -0.57976,4.40542 -2.15334,6.29346 -6.62565,6.99284 l 0,3.84578 18.71748,0 0,-3.84578 c -5.21771,-0.83912 -6.87412,-1.7483 -7.12257,-7.06288 -0.24847,-4.19565 -0.24847,-9.71968 0.083,-19.36965 l 1.07669,-32.09566 0.24845,0 16.72979,61.67493 1.9877,0 18.22059,-62.93362 0.24847,0 0.24847,46.43054 c 0.083,11.60804 -0.33143,12.44718 -6.3772,13.49608 l 0,3.70604 22.19597,0 z"
       style="fill:#ffffff;fill-opacity:1;fill-rule:nonzero;stroke:none" />
    <path
       inkscape:connector-curvature="0"
       id="path4282"
       d="m 441.02275,946.65845 0,-3.70604 c -5.05204,-1.0489 -6.12872,-2.37764 -8.69619,-12.72667 -5.13487,-20.48892 -10.10412,-41.53584 -15.07337,-62.23457 l -3.39565,1.2587 -16.23288,61.25536 c -2.73309,10.20963 -3.72694,11.25852 -8.86182,12.44718 l -0.083,3.70604 17.558,0 0,-3.70604 c -5.79748,-1.18866 -6.29438,-2.58742 -4.88642,-8.95058 0.99385,-4.68525 2.07051,-9.3705 3.06435,-13.77592 l 15.81881,0 c 1.57357,5.8042 2.81588,11.39829 3.80973,15.52388 1.07669,4.75528 0.57975,6.01396 -4.22387,7.20262 l 0,3.70604 21.20215,0 z m -22.03033,-32.2364 -13.25134,0 c 2.15336,-8.94959 4.38952,-18.25005 6.79132,-27.55048 l 0.1655,0 6.29441,27.55048 z"
       style="fill:#ffffff;fill-opacity:1;fill-rule:nonzero;stroke:none" />
    <path
       inkscape:connector-curvature="0"
       id="path4284"
       d="m 484.99952,889.03943 c -0.41408,-7.20263 -0.82822,-16.99236 -0.82822,-22.23691 l -1.73924,0 c -1.40794,2.23757 -2.23616,2.93695 -4.38949,2.93695 l -31.63644,0 c -2.23616,0 -3.31283,-0.20812 -4.47232,-2.93695 l -1.73924,0 c -0.1655,6.29346 -0.57976,14.54501 -0.99386,22.7265 l 2.65026,0 c 0.99386,-5.73415 1.90487,-9.44018 3.06438,-11.60805 0.99386,-2.09781 2.56743,-3.42655 9.19199,-3.42655 l 3.56132,0 0,56.78024 c 0,9.78971 -0.66256,10.69889 -7.53559,11.67775 l 0,3.70604 24.43103,0 0,-3.70604 c -7.20542,-0.97886 -7.9508,-1.88804 -7.9508,-11.67775 l 0,-56.78024 4.47232,0 c 5.30056,0 6.87412,0.83913 8.2821,3.14673 1.15948,2.23789 2.23616,5.73415 3.06434,11.74779 l 2.56746,-0.34951 z"
       style="fill:#ffffff;fill-opacity:1;fill-rule:nonzero;stroke:none" />
    <path
       inkscape:connector-curvature="0"
       id="path4286"
       d="m 512.49603,946.65845 0,-3.70604 c -6.0459,-0.97886 -6.79128,-1.67825 -6.79128,-11.67775 l 0,-46.08135 c 0,-10.06954 0.74538,-10.76859 6.79128,-11.46798 l 0,-3.98586 -22.44441,0 0,3.98586 c 6.12871,0.69939 6.79127,1.39844 6.79127,11.46798 l 0,46.08135 c 0,9.9995 -0.66256,10.69889 -6.79127,11.67775 l 0,3.70604 22.44441,0 z"
       style="fill:#ffffff;fill-opacity:1;fill-rule:nonzero;stroke:none" />
    <path
       inkscape:connector-curvature="0"
       id="path4288"
       d="m 545.54153,867.99117 c -17.39236,0 -27.41366,19.9293 -27.41366,40.62703 0,22.7962 11.26361,39.78854 26.50266,39.78854 14.74211,0 26.99958,-15.59389 26.99958,-41.04624 0,-23.56563 -12.00899,-39.36933 -26.00573,-39.36933 l -0.083,0 z m -1.49076,4.75529 c 9.77286,0 17.14391,13.63583 17.14391,37.68974 0,22.23688 -6.95694,33.28531 -15.07338,33.28531 -10.60104,0 -17.64084,-16.64248 -17.64084,-37.68975 0,-21.39776 7.12258,-33.2853 15.48752,-33.2853 l 0.083,0 z"
       style="fill:#ffffff;fill-opacity:1;fill-rule:nonzero;stroke:none" />
    <path
       inkscape:connector-curvature="0"
       id="path4290"
       d="m 631.17719,869.73947 -18.88316,0 0,3.84611 c 5.63184,0.48929 7.45387,2.30761 7.78517,7.55216 0.24846,3.35653 0.57975,8.88055 0.57975,19.57945 l 0,24.19398 -0.24846,0 -31.55365,-55.1717 -13.33412,0 0,3.84611 c 3.47847,0.48929 5.2177,1.39845 6.79128,4.33539 1.49076,2.72718 1.65643,4.26568 1.65643,12.30711 l 0,25.10314 c 0,10.62884 -0.41411,15.94344 -0.74538,19.9293 -0.33141,5.31425 -2.23617,7.06254 -6.70848,7.69189 l 0,3.70604 18.96595,0 0,-3.70604 c -5.54897,-0.62935 -7.12259,-2.44734 -7.45388,-8.04175 -0.24848,-3.636 -0.57973,-8.9506 -0.57973,-19.57944 l 0,-27.90001 0.1655,0 33.37569,60.41622 3.23001,0 0,-47.13024 c 0,-10.6989 0.33141,-16.22292 0.6626,-19.78923 0.33142,-5.45433 2.07049,-6.99284 6.29435,-7.34238 l 0,-3.84611 z"
       style="fill:#ffffff;fill-opacity:1;fill-rule:nonzero;stroke:none" />
  </g>
</svg>
