<?xml version="1.0" encoding="UTF-8" standalone="no"?>
<!-- Created with Inkscape (http://www.inkscape.org/) -->

<svg
   xmlns:dc="http://purl.org/dc/elements/1.1/"
   xmlns:cc="http://creativecommons.org/ns#"
   xmlns:rdf="http://www.w3.org/1999/02/22-rdf-syntax-ns#"
   xmlns:svg="http://www.w3.org/2000/svg"
   xmlns="http://www.w3.org/2000/svg"
   xmlns:sodipodi="http://sodipodi.sourceforge.net/DTD/sodipodi-0.dtd"
   xmlns:inkscape="http://www.inkscape.org/namespaces/inkscape"
   width="1024"
   height="500"
   viewBox="0 0 1024 499.99999"
   id="svg2"
   version="1.1"
   inkscape:version="0.91 r13725"
   inkscape:export-filename="C:\Users\gcgol\Desktop\Projects\Android Studio\pocketlaw-debug\app-latest\screenshots\logos\banner.png"
   inkscape:export-xdpi="90"
   inkscape:export-ydpi="90"
   sodipodi:docname="banner.svg">
  <defs
     id="defs4">
    <pattern
       y="0"
       x="0"
       height="6"
       width="6"
       patternUnits="userSpaceOnUse"
       id="EMFhbasepattern" />
    <pattern
       y="0"
       x="0"
       height="6"
       width="6"
       patternUnits="userSpaceOnUse"
       id="EMFhbasepattern-8" />
  </defs>
  <sodipodi:namedview
     id="base"
     pagecolor="#ffffff"
     bordercolor="#666666"
     borderopacity="1.0"
     inkscape:pageopacity="0.0"
     inkscape:pageshadow="2"
     inkscape:zoom="0.49497475"
     inkscape:cx="338.82191"
     inkscape:cy="188.87401"
     inkscape:document-units="px"
     inkscape:current-layer="layer1"
     showgrid="false"
     units="px"
     inkscape:window-width="1474"
     inkscape:window-height="841"
     inkscape:window-x="-8"
     inkscape:window-y="-8"
     inkscape:window-maximized="1" />
  <metadata
     id="metadata7">
    <rdf:RDF>
      <cc:Work
         rdf:about="">
        <dc:format>image/svg+xml</dc:format>
        <dc:type
           rdf:resource="http://purl.org/dc/dcmitype/StillImage" />
        <dc:title />
      </cc:Work>
    </rdf:RDF>
  </metadata>
  <g
     inkscape:groupmode="layer"
     id="layer2"
     inkscape:label="Layer 2"
     sodipodi:insensitive="true">
    <text
       xml:space="preserve"
       style="font-style:normal;font-variant:normal;font-weight:600;font-stretch:normal;font-size:116.00749969px;line-height:125%;font-family:'Adobe Hebrew';-inkscape-font-specification:'Adobe Hebrew, Semi-Bold';text-align:center;letter-spacing:0px;word-spacing:0px;writing-mode:lr-tb;text-anchor:middle;fill:#ffffff;fill-opacity:1;stroke:none;stroke-width:1px;stroke-linecap:butt;stroke-linejoin:miter;stroke-opacity:1"
       x="-291.54178"
       y="1741.1796"
       id="text5617-7-0-92-1-6-3"
       sodipodi:linespacing="125%"
       transform="scale(0.74754159,1.3377182)"><tspan
         y="1741.1796"
         x="-291.54178"
         sodipodi:role="line"
         id="tspan4246-6">IMMIGRATION</tspan></text>
    <rect
       style="fill:#ff0000;fill-opacity:1;stroke:none;stroke-width:2;stroke-miterlimit:4;stroke-dasharray:none;stroke-opacity:1"
       id="rect5600-6"
       width="1688.0812"
       height="1385.021"
       x="-1358.3263"
       y="1384.6323" />
    <rect
       style="fill:#ff0000;fill-opacity:1;stroke:none;stroke-width:2;stroke-miterlimit:4;stroke-dasharray:none;stroke-opacity:1"
       id="rect5600"
       width="1033.4637"
       height="502.16391"
       x="-7.8600988"
       y="-0.88549364" />
  </g>
  <g
     inkscape:label="Layer 1"
     inkscape:groupmode="layer"
     id="layer1"
     transform="translate(0,-552.36219)">
    <path
       style="fill:#ff0000;fill-rule:evenodd;stroke:none;stroke-width:1px;stroke-linecap:butt;stroke-linejoin:miter;stroke-opacity:1"
       d="m -250.87802,898.80099 3.57143,-61.42858 -95,14.99998 15.71429,-27.85712 -62.85715,-71.42857 27.85715,-6.42857 -7.14286,-36.42857 37.85714,6.42857 10,-27.85715 40,46.42858 -28.57143,-104.28572 27.14286,5.71429 40.31665,-42.93541 37.91754,42.69221 27.14286,-5.71429 -28.57143,104.28572 40,-46.42858 10,27.85715 37.85714,-6.42857 -7.14286,36.42857 27.857151,6.42857 -62.857151,71.42857 15.71429,27.85712 -95,-14.99998 3.57143,61.42858 -7.68852,-0.5927 z"
       id="path3338"
       inkscape:connector-curvature="0"
       sodipodi:nodetypes="ccccccccccccccccccccccccccc" />
    <flowRoot
       xml:space="preserve"
       id="flowRoot5623"
       style="font-style:normal;font-weight:normal;font-size:40px;line-height:125%;font-family:sans-serif;letter-spacing:0px;word-spacing:0px;fill:#000000;fill-opacity:1;stroke:none;stroke-width:1px;stroke-linecap:butt;stroke-linejoin:miter;stroke-opacity:1"><flowRegion
         id="flowRegion5625"><rect
           id="rect5627"
           width="238.57143"
           height="102.85714"
           x="57.142857"
           y="319.14285" /></flowRegion><flowPara
         id="flowPara5629" /></flowRoot>    <rect
       style="fill:#0000ff;fill-opacity:1;stroke:none;stroke-width:2;stroke-miterlimit:4;stroke-dasharray:none;stroke-opacity:1"
       id="rect5631"
       width="800"
       height="600"
       x="-897.14282"
       y="996.64789" />
    <g
       transform="scale(0.74288808,1.3460978)"
       style="font-style:normal;font-variant:normal;font-weight:bold;font-stretch:normal;font-size:180.09358215px;line-height:125%;font-family:'Adobe Arabic';-inkscape-font-specification:'Adobe Arabic, Bold';text-align:center;letter-spacing:0px;word-spacing:0px;writing-mode:lr-tb;text-anchor:middle;fill:#cccccc;fill-opacity:1;stroke:none;stroke-width:1px;stroke-linecap:butt;stroke-linejoin:miter;stroke-opacity:1"
       id="text5617" />
    <g
       transform="matrix(0.92119281,0,0,1.0855491,232.13204,855.99)"
       style="font-style:normal;font-variant:normal;font-weight:normal;font-stretch:normal;font-size:177.97544861px;line-height:125%;font-family:'Adobe Arabic';-inkscape-font-specification:'Adobe Arabic, Normal';text-align:start;letter-spacing:0px;word-spacing:0px;writing-mode:lr-tb;text-anchor:start;fill:#000080;fill-opacity:1;stroke:none;stroke-width:1px;stroke-linecap:butt;stroke-linejoin:miter;stroke-opacity:1"
       id="text5654">
      <path
         id="path5793"
         style="font-style:normal;font-variant:normal;font-weight:normal;font-stretch:normal;font-size:177.97544861px;line-height:125%;font-family:'Adobe Arabic';-inkscape-font-specification:'Adobe Arabic, Normal';text-align:start;writing-mode:lr-tb;text-anchor:start;fill:#000080"
         d="m 239.60366,868.05505 c -1.91185,5.12722 -4.34511,9.55923 -6.60456,12.25319 -2.95467,3.30228 -6.86526,4.1713 -16.33759,4.1713 -5.90934,0 -10.77586,0 -13.29602,-1.47733 -2.43326,-1.56424 -3.12847,-4.43201 -3.12847,-10.42825 l 0,-23.37666 11.90558,0 c 11.38417,0 12.3401,0.69522 14.16504,9.99374 l 3.91059,0 0,-24.9409 -3.91059,0 c -1.65114,8.60331 -2.52016,9.64613 -14.16504,9.64613 l -11.90558,0 0,-28.50388 c 0,-3.82369 0.2607,-4.1713 4.51891,-4.1713 l 9.64613,0 c 8.95091,0 12.51389,0.86902 14.42574,3.64989 1.65114,2.78087 3.04157,5.73554 4.2582,11.03656 l 3.9975,-0.52141 c -0.52142,-7.12597 -1.04283,-15.55547 -1.21663,-18.85775 l -58.91961,0 0,3.82369 c 10.08064,0.86902 11.21037,1.21663 11.21037,12.86151 l 0,49.79489 c 0,10.42825 -1.12973,11.64488 -12.86151,12.5139 l 0,3.64988 63.78612,0 c 1.12973,-4.08439 3.64989,-15.81617 4.51891,-20.59579 l -3.99749,-0.52141 z m -159.986725,-61.52667 0,3.9106 c 9.99374,0.78211 11.12346,1.30353 11.12346,12.25319 l 0,50.4032 c 0,10.86276 -1.12972,11.64488 -12.25319,12.427 l 0,3.64988 32.327575,0 c 16.07689,0 29.37291,-3.30227 39.36664,-10.51515 10.16755,-7.47357 16.33759,-18.85775 16.33759,-33.89181 0,-11.90558 -4.69271,-21.2041 -11.12346,-27.37415 -8.08189,-7.47358 -20.7696,-10.86276 -37.36789,-10.86276 l -38.410725,0 z m 23.289765,13.55673 c 0,-4.95342 0.43451,-6.51766 1.65113,-7.38668 1.39044,-0.86902 4.60581,-1.73804 10.42825,-1.73804 9.29853,0 17.11971,1.91184 23.11596,5.90934 9.55922,5.99624 14.68645,16.7721 14.68645,29.89431 0,19.98748 -11.64488,37.6286 -35.89056,37.6286 -9.55923,0 -13.99123,-2.34636 -13.99123,-12.427 l 0,-51.88053 z M 25.650745,804.61654 c -28.2431696,0 -45.53668,21.0303 -45.53668,44.05935 0,24.50638 19.4660604,42.49511 43.88554,42.49511 24.68019,0 45.27598,-16.9459 45.27598,-44.40696 0,-25.46231 -20.68269,-42.1475 -43.53794,-42.1475 l -0.0869,0 z m -2.69396,4.77961 c 17.11971,0 31.89306,14.07814 31.89306,40.75707 0,24.59329 -13.38292,36.23817 -27.98247,36.23817 -18.6839396,0 -32.5013696,-17.64112 -32.5013696,-41.01778 0,-24.07188 13.90433,-35.97746 28.5038796,-35.97746 l 0.0869,0 z m -56.48635,56.48635 c -6.86527,13.12221 -14.25194,20.33508 -27.72177,20.33508 -20.42198,0 -35.10843,-15.98998 -35.10843,-39.97495 0,-18.94465 11.81868,-36.84648 33.97871,-36.84648 14.16504,0 22.85524,5.56173 26.41823,19.63987 l 3.91059,-0.86902 c -0.78212,-7.21287 -1.73804,-12.6877 -2.78086,-19.90058 -3.64989,-0.60831 -13.03532,-3.64988 -24.15878,-3.64988 -30.15502,0 -51.793635,17.55422 -51.793635,44.32005 0,20.07438 14.947155,42.23441 48.491355,42.23441 9.64613,0 21.1172,-2.78086 24.94089,-3.64988 2.25946,-4.0844 5.82244,-14.07814 7.56049,-20.16129 l -3.73679,-1.47733 z M 320.16899,760.13453 c -2.12747,8.28723 -4.04218,13.30318 -6.02782,16.6835 -2.48204,4.25264 -6.3824,5.34307 -10.92098,5.34307 -3.33304,0 -6.09873,-0.10899 -8.08437,-1.19946 -2.19838,-1.41755 -2.55296,-4.14361 -2.55296,-11.66754 l 0,-62.26322 c 0,-13.6303 0.99282,-14.61167 9.1481,-15.70211 l 0,-5.6702 -32.55021,0 0,5.6702 c 8.2262,1.09044 9.36084,2.07181 9.36084,15.70211 l 0,60.73662 c 0,13.84839 -1.13464,14.72073 -10.5664,15.9202 l 0,5.67019 51.98105,0 c 0.78007,-4.47072 3.04937,-20.49996 3.90036,-27.47868 l -3.68761,-1.74468 z m -56.87422,29.22336 0,-5.67019 c -6.80789,-1.30851 -8.2262,-3.48937 -11.77197,-17.55583 -6.94972,-27.2606 -13.54487,-55.06641 -20.35276,-82.87223 l -5.46048,2.07181 -21.77106,81.34563 c -3.6167,13.73935 -4.75134,15.70211 -11.98472,17.01062 l -0.14183,5.67019 23.75669,0 0,-5.67019 c -7.72979,-1.5266 -7.94254,-3.81649 -6.3824,-11.12233 1.20557,-6.4335 2.69479,-12.32179 3.90035,-17.55583 l 20.5655,0 c 1.77288,6.86967 3.40394,13.73935 4.46767,18.42817 1.56014,6.76062 1.13465,8.61435 -5.17683,10.24999 l 0,5.67019 30.35184,0 z m -31.62831,-42.85366 -16.73606,0 c 2.69479,-11.34041 5.53141,-22.89891 8.50985,-34.34835 l 0.28367,0 7.94254,34.34835 z m -39.00352,-60.84566 -25.81324,0 0,5.6702 c 7.8007,0.65426 9.99908,3.48937 10.49549,10.68616 0.21275,4.57979 0.85099,11.88562 0.85099,26.06113 l 0,27.91486 -0.28367,0 -41.62739,-70.33235 -19.64359,0 0,5.6702 c 4.39675,0.65426 6.80789,1.74468 8.79352,5.56118 2.05655,3.81648 2.2693,6.65158 2.2693,17.0106 l 0,33.25794 c 0,14.06646 -0.63825,20.71806 -1.06374,26.17018 -0.4255,6.97871 -2.97845,9.48669 -8.79352,10.35903 l 0,5.67019 25.95507,0 0,-5.67019 c -7.87162,-0.65426 -9.71542,-3.70745 -10.21183,-11.01328 -0.35458,-4.79787 -0.85098,-11.44947 -0.85098,-25.51593 l 0.0709,-36.09303 0.21275,0 45.24408,80.03712 4.96409,0 0,-63.02652 c 0,-14.17551 0.63824,-21.48134 1.06373,-26.38826 0.49641,-7.74201 2.76571,-9.81382 8.36804,-10.35903 l 0,-5.6702 z m -82.12014,103.69932 0,-5.67019 c -7.94253,-1.19947 -8.86443,-2.07181 -8.86443,-15.81115 l 0,-60.84567 c 0,-13.6303 0.9219,-14.61167 8.86443,-15.70211 l 0,-5.6702 -31.911975,0 0,5.6702 c 7.94254,1.09044 9.00627,2.07181 9.00627,15.70211 l 0,60.84567 c 0,13.73934 -1.06373,14.61168 -9.00627,15.81115 l 0,5.67019 31.911975,0 z m -38.932615,0 0,-5.67019 c -8.50986,-1.30851 -8.86444,-2.72606 -9.07719,-17.55583 l -1.06373,-58.55578 c -0.21275,-13.52125 0.21275,-14.9388 8.79352,-16.24732 l 0,-5.6702 -21.20373,0 -21.27465,70.22331 -20.8491596,-70.22331 -21.9128804,0 0,5.6702 c 9.2190104,1.30852 9.9990804,3.70745 9.0771804,21.91753 l -1.63106,30.53187 c -0.85098,17.33775 -1.63105,25.40689 -2.26929,30.53188 -0.7091604,5.56116 -2.7657104,8.50531 -8.7935204,9.37765 l 0,5.67019 25.7423204,0 0,-5.67019 c -7.16247,-0.98138 -9.07718,-2.39893 -9.64451,-9.37765 -0.35457,-5.12499 -0.4964,-12.53987 -0.0709,-25.73401 l 1.4183,-41.76324 0.4255,0 21.9837996,81.56372 2.83662,0 23.8276,-82.87224 0.56733,0 0.14183,60.62759 c 0.14183,14.82977 -0.49641,16.24732 -8.43894,17.55583 l 0,5.67019 31.41556,0 z m -96.37416,0 0,-5.67019 c -7.94254,-1.19947 -8.86444,-2.07181 -8.86444,-15.81115 l 0,-60.84567 c 0,-13.6303 0.9219,-14.61167 8.86444,-15.70211 l 0,-5.6702 -31.91198,0 0,5.6702 c 7.94254,1.09044 9.00628,2.07181 9.00628,15.70211 l 0,60.84567 c 0,13.73934 -1.06374,14.61168 -9.00628,15.81115 l 0,5.67019 31.91198,0 z m -36.09599,-3.92551 c -2.48204,-1.30852 -4.11309,-2.94415 -6.31148,-6.54255 -2.05654,-3.38032 -4.39676,-8.61435 -8.15528,-17.44678 -3.19119,-7.30585 -7.09155,-17.88296 -8.65169,-22.57178 7.02064,-4.14361 13.19029,-11.77658 13.19029,-25.9521 0,-9.81381 -2.90754,-16.90158 -7.02064,-21.26327 -4.32584,-4.47074 -9.71542,-5.99733 -19.28902,-5.99733 l -29.429925,0 0,5.6702 c 7.72979,0.98139 8.79352,2.83511 8.79352,15.59308 l 0,60.9547 c 0,13.08509 -1.34739,14.50264 -9.21901,15.81115 l 0,5.67019 31.982885,0 0,-5.67019 c -8.013445,-1.30851 -9.077185,-2.72606 -9.077185,-15.81115 l 0,-23.00795 2.05656,0 c 3.403935,0 5.389575,1.96276 7.162455,6.65158 3.12028,8.50531 5.88599,17.01062 8.65169,23.55317 4.25493,10.0319 8.36803,14.61167 21.84197,15.59306 1.20557,0 2.34021,0.109 2.83663,0.109 l 0.63823,-5.34308 z m -43.187535,-46.88824 0,-38.92814 c 0,-3.16223 0.21275,-4.90691 0.92191,-5.88829 0.78007,-0.98138 2.19838,-1.74468 4.964075,-1.74468 6.02782,0 12.55205,6.21542 12.55205,23.22604 0,8.06913 -1.48923,14.28454 -5.10592,19.08241 -2.34021,3.16224 -6.09873,4.25266 -10.708235,4.25266 l -2.62388,0 z m -32.26655,20.49997 c -5.53141,16.68348 -12.33929,25.07975 -21.48739,25.07975 -15.03409,0 -25.88416,-19.19146 -25.88416,-48.63291 0,-23.33507 8.58078,-45.03452 24.67859,-45.03452 8.43895,0 17.23247,5.56116 20.5655,24.86167 l 3.90035,-0.98137 c -0.63824,-10.57712 -1.56014,-17.88296 -2.48205,-26.60636 -2.7657,-0.98137 -10.92098,-4.47073 -19.92725,-4.47073 -25.74232,0 -42.83296,22.57177 -42.83296,55.39355 0,25.40687 12.26838,53.21269 40.84733,53.21269 7.23338,0 17.51613,-3.48936 20.28183,-4.3617 1.77289,-5.45212 4.60951,-17.992 6.09873,-25.9521 l -3.75852,-2.50797 z m 186.639115,-90.06382 2.91133,-40.95379 -77.44155,10.00033 12.80988,-18.57206 -51.23953,-47.62068 22.70843,-4.28586 -5.82267,-24.28655 30.86016,4.28586 8.1517504,-18.57207 32.6069696,30.95345 -23.2906896,-69.5262 22.1261596,3.80965 32.86509,-28.62459 30.90941,28.46246 22.126165,-3.80966 -23.290705,69.5262 32.606985,-30.95345 8.15173,18.57207 30.86018,-4.28586 -5.82268,24.28655 22.70844,4.28586 -51.23954,47.62068 12.80988,18.57206 -77.441565,-10.00033 2.91135,40.95379 -6.26749,-0.39515 z"
         inkscape:connector-curvature="0" />
    </g>
    <text
       xml:space="preserve"
       style="font-style:normal;font-variant:normal;font-weight:600;font-stretch:normal;font-size:116.00772858px;line-height:125%;font-family:'Adobe Hebrew';-inkscape-font-specification:'Adobe Hebrew, Semi-Bold';text-align:center;letter-spacing:0px;word-spacing:0px;writing-mode:lr-tb;text-anchor:middle;fill:#ffffff;fill-opacity:1;stroke:none;stroke-width:1px;stroke-linecap:butt;stroke-linejoin:miter;stroke-opacity:1"
       x="-454.32523"
       y="853.06378"
       id="text5617-7"
       sodipodi:linespacing="125%"
       transform="scale(0.74754159,1.3377182)"><tspan
         sodipodi:role="line"
         id="tspan5619-9"
         x="-454.32523"
         y="853.06378"
         style="font-style:normal;font-variant:normal;font-weight:600;font-stretch:normal;font-size:116.00772858px;line-height:125%;font-family:'Adobe Hebrew';-inkscape-font-specification:'Adobe Hebrew, Semi-Bold';text-align:center;writing-mode:lr-tb;text-anchor:middle;fill:#ffffff">CRIMINAL</tspan><tspan
         sodipodi:role="line"
         x="-454.32523"
         y="998.07343"
         style="font-style:normal;font-variant:normal;font-weight:600;font-stretch:normal;font-size:116.00772858px;line-height:125%;font-family:'Adobe Hebrew';-inkscape-font-specification:'Adobe Hebrew, Semi-Bold';text-align:center;writing-mode:lr-tb;text-anchor:middle;fill:#ffffff"
         id="tspan5621-0" /></text>
    <text
       xml:space="preserve"
       style="font-style:normal;font-variant:normal;font-weight:normal;font-stretch:normal;font-size:114.49234009px;line-height:125%;font-family:'Adobe Hebrew';-inkscape-font-specification:'Adobe Hebrew, Normal';text-align:start;letter-spacing:0px;word-spacing:0px;writing-mode:lr-tb;text-anchor:start;fill:#000000;fill-opacity:1;stroke:none;stroke-width:1px;stroke-linecap:butt;stroke-linejoin:miter;stroke-opacity:1"
       x="-603.01074"
       y="975.77539"
       id="text5654-2"
       sodipodi:linespacing="125%"
       transform="scale(0.77619473,1.2883365)"><tspan
         sodipodi:role="line"
         id="tspan5656-7"
         x="-603.01074"
         y="975.77539"
         style="font-style:normal;font-variant:normal;font-weight:600;font-stretch:normal;font-size:114.49234009px;line-height:125%;font-family:'Adobe Hebrew';-inkscape-font-specification:'Adobe Hebrew, Semi-Bold';text-align:start;writing-mode:lr-tb;text-anchor:start;fill:#ffffff">CODE</tspan></text>
    <g
       transform="scale(0.74288808,1.3460978)"
       style="font-style:normal;font-variant:normal;font-weight:bold;font-stretch:normal;font-size:180.09358215px;line-height:125%;font-family:'Adobe Arabic';-inkscape-font-specification:'Adobe Arabic, Bold';text-align:center;letter-spacing:0px;word-spacing:0px;writing-mode:lr-tb;text-anchor:middle;fill:#ffffff;fill-opacity:1;stroke:none;stroke-width:1px;stroke-linecap:butt;stroke-linejoin:miter;stroke-opacity:1"
       id="text5617-3" />
    <path
       style="font-style:normal;font-variant:normal;font-weight:normal;font-stretch:normal;font-size:177.97544861px;line-height:125%;font-family:'Adobe Arabic';-inkscape-font-specification:'Adobe Arabic, Normal';text-align:start;letter-spacing:0px;word-spacing:0px;writing-mode:lr-tb;text-anchor:start;fill:#ffffff;fill-opacity:1;stroke:none;stroke-width:1px;stroke-linecap:butt;stroke-linejoin:miter;stroke-opacity:1"
       d="m -182.20508,1499.0887 c -1.76117,5.5658 -4.00267,10.377 -6.08406,13.3014 -2.72182,3.5848 -6.32424,4.5282 -15.05007,4.5282 -5.44364,0 -9.92665,0 -12.2482,-1.6038 -2.2415,-1.698 -2.88193,-4.8111 -2.88193,-11.3203 l 0,-25.3765 10.96734,0 c 10.48702,0 11.3676,0.7547 13.04873,10.8487 l 3.60241,0 0,-27.0746 -3.60241,0 c -1.52102,9.3393 -2.32155,10.4714 -13.04873,10.4714 l -10.96734,0 0,-30.9424 c 0,-4.1508 0.24016,-4.5282 4.16278,-4.5282 l 8.88595,0 c 8.24552,0 11.52771,0.9434 13.2889,3.9622 1.52101,3.0187 2.80187,6.2262 3.92262,11.9807 l 3.68246,-0.566 c -0.48032,-7.7356 -0.96064,-16.8862 -1.12074,-20.471 l -54.27632,0 0,4.1508 c 9.28621,0.9433 10.32691,1.3207 10.32691,13.9618 l 0,54.0547 c 0,11.3204 -1.0407,12.6411 -11.84793,13.5845 l 0,3.9621 58.75931,0 c 1.0407,-4.4338 3.36225,-17.1692 4.16279,-22.3577 l -3.68247,-0.566 z"
       id="path4182"
       inkscape:connector-curvature="0" />
    <path
       style="font-style:normal;font-variant:normal;font-weight:normal;font-stretch:normal;font-size:177.97544861px;line-height:125%;font-family:'Adobe Arabic';-inkscape-font-specification:'Adobe Arabic, Normal';text-align:start;letter-spacing:0px;word-spacing:0px;writing-mode:lr-tb;text-anchor:start;fill:#ffffff;fill-opacity:1;stroke:none;stroke-width:1px;stroke-linecap:butt;stroke-linejoin:miter;stroke-opacity:1"
       d="m -329.58368,1432.2985 0,4.2451 c 9.20616,0.849 10.24685,1.4151 10.24685,13.3015 l 0,54.7151 c 0,11.792 -1.04069,12.6411 -11.28755,13.4901 l 0,3.9621 29.77992,0 c 14.80992,0 27.05811,-3.5848 36.26427,-11.4147 9.36626,-8.1129 15.05007,-20.471 15.05007,-36.7912 0,-12.9241 -4.32289,-23.0181 -10.24685,-29.716 -7.44499,-8.1129 -19.13281,-11.792 -34.42304,-11.792 l -35.38367,0 z"
       id="path4180"
       inkscape:connector-curvature="0" />
    <path
       style="font-style:normal;font-variant:normal;font-weight:normal;font-stretch:normal;font-size:177.97544861px;line-height:125%;font-family:'Adobe Arabic';-inkscape-font-specification:'Adobe Arabic, Normal';text-align:start;letter-spacing:0px;word-spacing:0px;writing-mode:lr-tb;text-anchor:start;fill:#ffffff;fill-opacity:1;stroke:none;stroke-width:1px;stroke-linecap:butt;stroke-linejoin:miter;stroke-opacity:1"
       d="m -308.12933,1447.015 c 0,-5.3772 0.40026,-7.0753 1.52102,-8.0186 1.28086,-0.9434 4.24283,-1.8868 9.60642,-1.8868 8.56573,0 15.77056,2.0754 21.29425,6.4149 8.80589,6.5092 13.52905,18.207 13.52905,32.4518 0,21.6973 -10.72717,40.8476 -33.06211,40.8476 -8.8059,0 -12.88863,-2.5471 -12.88863,-13.4901 l 0,-56.3188 z"
       id="path4178"
       inkscape:connector-curvature="0" />
    <path
       style="font-style:normal;font-variant:normal;font-weight:normal;font-stretch:normal;font-size:177.97544861px;line-height:125%;font-family:'Adobe Arabic';-inkscape-font-specification:'Adobe Arabic, Normal';text-align:start;letter-spacing:0px;word-spacing:0px;writing-mode:lr-tb;text-anchor:start;fill:#ffffff;fill-opacity:1;stroke:none;stroke-width:1px;stroke-linecap:butt;stroke-linejoin:miter;stroke-opacity:1"
       d="m -379.29695,1430.2231 c -26.0174,0 -41.94807,22.8294 -41.94807,47.8286 0,26.6028 17.93201,46.1305 40.42705,46.1305 22.73522,0 41.70791,-18.3956 41.70791,-48.2059 0,-27.6406 -19.05274,-45.7532 -40.10684,-45.7532 l -0.08,0 z"
       id="path4176"
       inkscape:connector-curvature="0" />
    <path
       style="font-style:normal;font-variant:normal;font-weight:normal;font-stretch:normal;font-size:177.97544861px;line-height:125%;font-family:'Adobe Arabic';-inkscape-font-specification:'Adobe Arabic, Normal';text-align:start;letter-spacing:0px;word-spacing:0px;writing-mode:lr-tb;text-anchor:start;fill:#ffffff;fill-opacity:1;stroke:none;stroke-width:1px;stroke-linecap:butt;stroke-linejoin:miter;stroke-opacity:1"
       d="m -381.7786,1435.4116 c 15.77054,0 29.37965,15.2825 29.37965,44.2438 0,26.6972 -12.32825,39.3383 -25.77725,39.3383 -17.21152,0 -29.94003,-19.1503 -29.94003,-44.5268 0,-26.1312 12.80856,-39.0553 26.25756,-39.0553 l 0.0801,0 z"
       id="path4174"
       inkscape:connector-curvature="0" />
    <path
       style="font-style:normal;font-variant:normal;font-weight:normal;font-stretch:normal;font-size:177.97544861px;line-height:125%;font-family:'Adobe Arabic';-inkscape-font-specification:'Adobe Arabic, Normal';text-align:start;letter-spacing:0px;word-spacing:0px;writing-mode:lr-tb;text-anchor:start;fill:#ffffff;fill-opacity:1;stroke:none;stroke-width:1px;stroke-linecap:butt;stroke-linejoin:miter;stroke-opacity:1"
       d="m -433.81343,1496.7303 c -6.32423,14.2448 -13.12879,22.0747 -25.53709,22.0747 -18.81259,0 -32.34164,-17.3579 -32.34164,-43.3948 0,-20.5653 10.88729,-39.9986 31.30094,-39.9986 13.04874,0 21.0541,6.0375 24.3363,21.32 l 3.6024,-0.9433 c -0.72048,-7.83 -1.60107,-13.7732 -2.56171,-21.6031 -3.36225,-0.6603 -12.00804,-3.9621 -22.25489,-3.9621 -27.77859,0 -47.71193,19.0559 -47.71193,48.1116 0,21.7917 13.76922,45.8475 44.66989,45.8475 8.88595,0 19.45302,-3.0188 22.97537,-3.9622 2.0814,-4.4338 5.36359,-15.2825 6.96466,-21.886 l -3.4423,-1.6037 z"
       id="path4172"
       inkscape:connector-curvature="0" />
    <path
       style="font-style:normal;font-variant:normal;font-weight:normal;font-stretch:normal;font-size:177.97544861px;line-height:125%;font-family:'Adobe Arabic';-inkscape-font-specification:'Adobe Arabic, Normal';text-align:start;letter-spacing:0px;word-spacing:0px;writing-mode:lr-tb;text-anchor:start;fill:#ffffff;fill-opacity:1;stroke:none;stroke-width:1px;stroke-linecap:butt;stroke-linejoin:miter;stroke-opacity:1"
       d="m -107.98885,1381.9356 c -1.9598,8.9962 -3.72363,14.4413 -5.55278,18.1108 -2.28644,4.6164 -5.87942,5.8001 -10.06033,5.8001 -3.07037,0 -5.61812,-0.1183 -7.44727,-1.3021 -2.02513,-1.5388 -2.35176,-4.498 -2.35176,-12.6656 l 0,-67.5898 c 0,-14.7964 0.91457,-15.8617 8.42716,-17.0454 l 0,-6.1553 -29.98502,0 0,6.1553 c 7.57792,1.1837 8.62315,2.249 8.62315,17.0454 l 0,65.9326 c 0,15.0331 -1.04523,15.98 -9.7337,17.2821 l 0,6.1553 47.88457,0 c 0.7186,-4.8532 2.80905,-22.2537 3.59298,-29.8295 l -3.397,-1.8939 z"
       id="path4170"
       inkscape:connector-curvature="0" />
    <path
       style="font-style:normal;font-variant:normal;font-weight:normal;font-stretch:normal;font-size:177.97544861px;line-height:125%;font-family:'Adobe Arabic';-inkscape-font-specification:'Adobe Arabic, Normal';text-align:start;letter-spacing:0px;word-spacing:0px;writing-mode:lr-tb;text-anchor:start;fill:#ffffff;fill-opacity:1;stroke:none;stroke-width:1px;stroke-linecap:butt;stroke-linejoin:miter;stroke-opacity:1"
       d="m -160.38098,1413.659 0,-6.1553 c -6.27137,-1.4204 -7.57791,-3.7879 -10.84425,-19.0577 -6.40204,-29.5927 -12.47742,-59.7773 -18.7488,-89.9619 l -5.03018,2.2491 -20.05534,88.3047 c -3.33167,14.9147 -4.37689,17.0454 -11.04023,18.4658 l -0.13066,6.1553 21.8845,0 0,-6.1553 c -7.12063,-1.6572 -7.31661,-4.143 -5.87942,-12.0738 1.11056,-6.9839 2.48242,-13.3759 3.59298,-19.0577 l 18.94479,0 c 1.63317,7.4573 3.13568,14.9147 4.11558,20.0047 1.4372,7.3389 1.04523,9.3513 -4.76886,11.1268 l 0,6.1553 27.95989,0 z"
       id="path4168"
       inkscape:connector-curvature="0" />
    <path
       style="font-style:normal;font-variant:normal;font-weight:normal;font-stretch:normal;font-size:177.97544861px;line-height:125%;font-family:'Adobe Arabic';-inkscape-font-specification:'Adobe Arabic, Normal';text-align:start;letter-spacing:0px;word-spacing:0px;writing-mode:lr-tb;text-anchor:start;fill:#ffffff;fill-opacity:1;stroke:none;stroke-width:1px;stroke-linecap:butt;stroke-linejoin:miter;stroke-opacity:1"
       d="m -189.51675,1367.1392 -15.41714,0 c 2.48242,-12.3105 5.0955,-24.8578 7.83923,-37.2868 l 0.26131,0 7.3166,37.2868 z"
       id="path4166"
       inkscape:connector-curvature="0" />
    <path
       style="font-style:normal;font-variant:normal;font-weight:normal;font-stretch:normal;font-size:177.97544861px;line-height:125%;font-family:'Adobe Arabic';-inkscape-font-specification:'Adobe Arabic, Normal';text-align:start;letter-spacing:0px;word-spacing:0px;writing-mode:lr-tb;text-anchor:start;fill:#ffffff;fill-opacity:1;stroke:none;stroke-width:1px;stroke-linecap:butt;stroke-linejoin:miter;stroke-opacity:1"
       d="m -225.44651,1301.0883 -23.77897,0 0,6.1553 c 7.18595,0.7102 9.21109,3.7878 9.66838,11.6003 0.19598,4.9716 0.78391,12.9025 0.78391,28.2907 l 0,30.3029 -0.2613,0 -38.34686,-76.3492 -18.09554,0 0,6.1553 c 4.05027,0.7102 6.27138,1.8939 8.10053,6.0369 1.89449,4.143 2.09046,7.2206 2.09046,18.4659 l 0,36.1031 c 0,15.2698 -0.58794,22.4904 -0.9799,28.409 -0.39197,7.5757 -2.74373,10.2983 -8.10053,11.2452 l 0,6.1553 23.90963,0 0,-6.1553 c -7.25128,-0.7102 -8.94979,-4.0246 -9.40707,-11.9554 -0.32663,-5.2084 -0.78392,-12.429 -0.78392,-27.6988 l 0.0653,-39.1808 0.19598,0 41.67853,86.8842 4.57288,0 0,-68.4183 c 0,-15.3882 0.58794,-23.3191 0.97991,-28.6458 0.45728,-8.4043 2.54774,-10.6534 7.70856,-11.2452 l 0,-6.1553 z"
       id="path4164"
       inkscape:connector-curvature="0" />
    <path
       style="font-style:normal;font-variant:normal;font-weight:normal;font-stretch:normal;font-size:177.97544861px;line-height:125%;font-family:'Adobe Arabic';-inkscape-font-specification:'Adobe Arabic, Normal';text-align:start;letter-spacing:0px;word-spacing:0px;writing-mode:lr-tb;text-anchor:start;fill:#ffffff;fill-opacity:1;stroke:none;stroke-width:1px;stroke-linecap:butt;stroke-linejoin:miter;stroke-opacity:1"
       d="m -301.09498,1413.659 0,-6.1553 c -7.31662,-1.3021 -8.16585,-2.249 -8.16585,-17.1638 l 0,-66.0509 c 0,-14.7964 0.84923,-15.8617 8.16585,-17.0454 l 0,-6.1553 -29.39708,0 0,6.1553 c 7.3166,1.1837 8.29651,2.249 8.29651,17.0454 l 0,66.0509 c 0,14.9148 -0.97991,15.8617 -8.29651,17.1638 l 0,6.1553 29.39708,0 z"
       id="path4162"
       inkscape:connector-curvature="0" />
    <path
       style="font-style:normal;font-variant:normal;font-weight:normal;font-stretch:normal;font-size:177.97544861px;line-height:125%;font-family:'Adobe Arabic';-inkscape-font-specification:'Adobe Arabic, Normal';text-align:start;letter-spacing:0px;word-spacing:0px;writing-mode:lr-tb;text-anchor:start;fill:#ffffff;fill-opacity:1;stroke:none;stroke-width:1px;stroke-linecap:butt;stroke-linejoin:miter;stroke-opacity:1"
       d="m -336.95943,1413.659 0,-6.1553 c -7.83923,-1.4204 -8.16586,-2.9593 -8.36185,-19.0577 l -0.97989,-63.5652 c -0.19598,-14.678 0.19598,-16.2168 8.10052,-17.6372 l 0,-6.1553 -19.53272,0 -19.59805,76.2308 -19.20609,-76.2308 -20.186,0 0,6.1553 c 8.4925,1.4204 9.21109,4.0246 8.36184,23.7925 l -1.50252,33.1439 c -0.78392,18.8209 -1.50252,27.5804 -2.09046,33.1438 -0.65327,6.0369 -2.54774,9.233 -8.10053,10.1799 l 0,6.1553 23.71365,0 0,-6.1553 c -6.59801,-1.0653 -8.36184,-2.6041 -8.88445,-10.1799 -0.32664,-5.5634 -0.45729,-13.6126 -0.0653,-27.9355 l 1.30653,-45.3361 0.39197,0 20.25132,88.5415 2.61307,0 21.94982,-89.9619 0.52262,0 0.13065,65.8142 c 0.13065,16.0984 -0.45729,17.6373 -7.77389,19.0577 l 0,6.1553 28.93978,0 z"
       id="path4160"
       inkscape:connector-curvature="0" />
    <path
       style="font-style:normal;font-variant:normal;font-weight:normal;font-stretch:normal;font-size:177.97544861px;line-height:125%;font-family:'Adobe Arabic';-inkscape-font-specification:'Adobe Arabic, Normal';text-align:start;letter-spacing:0px;word-spacing:0px;writing-mode:lr-tb;text-anchor:start;fill:#ffffff;fill-opacity:1;stroke:none;stroke-width:1px;stroke-linecap:butt;stroke-linejoin:miter;stroke-opacity:1"
       d="m -425.73861,1413.659 0,-6.1553 c -7.31661,-1.3021 -8.16586,-2.249 -8.16586,-17.1638 l 0,-66.0509 c 0,-14.7964 0.84925,-15.8617 8.16586,-17.0454 l 0,-6.1553 -29.39708,0 0,6.1553 c 7.31661,1.1837 8.2965,2.249 8.2965,17.0454 l 0,66.0509 c 0,14.9148 -0.97989,15.8617 -8.2965,17.1638 l 0,6.1553 29.39708,0 z"
       id="path4158"
       inkscape:connector-curvature="0" />
    <path
       style="font-style:normal;font-variant:normal;font-weight:normal;font-stretch:normal;font-size:177.97544861px;line-height:125%;font-family:'Adobe Arabic';-inkscape-font-specification:'Adobe Arabic, Normal';text-align:start;letter-spacing:0px;word-spacing:0px;writing-mode:lr-tb;text-anchor:start;fill:#ffffff;fill-opacity:1;stroke:none;stroke-width:1px;stroke-linecap:butt;stroke-linejoin:miter;stroke-opacity:1"
       d="m -458.98997,1409.3977 c -2.28645,-1.4205 -3.78897,-3.1961 -5.81409,-7.1023 -1.89449,-3.6695 -4.05026,-9.3513 -7.5126,-18.9393 -2.9397,-7.9309 -6.53267,-19.4129 -7.96987,-24.5028 6.46736,-4.4981 12.1508,-12.7841 12.1508,-28.1723 0,-10.6534 -2.67841,-18.3475 -6.46736,-23.0823 -3.98494,-4.8532 -8.94978,-6.5104 -17.7689,-6.5104 l -27.11064,0 0,6.1553 c 7.12063,1.0653 8.10052,3.0776 8.10052,16.927 l 0,66.1693 c 0,14.2045 -1.24121,15.7434 -8.49249,17.1638 l 0,6.1553 29.46241,0 0,-6.1553 c -7.38193,-1.4204 -8.36183,-2.9593 -8.36183,-17.1638 l 0,-24.9762 1.89447,0 c 3.13569,0 4.96484,2.1307 6.59801,7.2206 2.87438,9.2329 5.42214,18.4659 7.96988,25.5681 3.91961,10.8901 7.70857,15.8617 20.12067,16.9271 1.11056,0 2.15579,0.1183 2.61307,0.1183 l 0.58795,-5.8002 z"
       id="path4156"
       inkscape:connector-curvature="0" />
    <path
       style="font-style:normal;font-variant:normal;font-weight:normal;font-stretch:normal;font-size:177.97544861px;line-height:125%;font-family:'Adobe Arabic';-inkscape-font-specification:'Adobe Arabic, Normal';text-align:start;letter-spacing:0px;word-spacing:0px;writing-mode:lr-tb;text-anchor:start;fill:#ffffff;fill-opacity:1;stroke:none;stroke-width:1px;stroke-linecap:butt;stroke-linejoin:miter;stroke-opacity:1"
       d="m -498.77402,1358.4982 0,-42.2584 c 0,-3.4328 0.19598,-5.3267 0.84925,-6.3921 0.71859,-1.0653 2.02513,-1.8939 4.57288,-1.8939 5.55277,0 11.56284,6.7471 11.56284,25.213 0,8.7595 -1.37186,15.5066 -4.70353,20.7149 -2.15578,3.4328 -5.6181,4.6165 -9.86434,4.6165 l -2.4171,0 z"
       id="path4154"
       inkscape:connector-curvature="0" />
    <path
       style="font-style:normal;font-variant:normal;font-weight:normal;font-stretch:normal;font-size:177.97544861px;line-height:125%;font-family:'Adobe Arabic';-inkscape-font-specification:'Adobe Arabic, Normal';text-align:start;letter-spacing:0px;word-spacing:0px;writing-mode:lr-tb;text-anchor:start;fill:#ffffff;fill-opacity:1;stroke:none;stroke-width:1px;stroke-linecap:butt;stroke-linejoin:miter;stroke-opacity:1"
       d="m -528.49774,1380.7519 c -5.09549,18.1108 -11.36687,27.2253 -19.79403,27.2253 -13.8493,0 -23.84431,-20.8333 -23.84431,-52.7934 0,-25.3314 7.90456,-48.8872 22.73375,-48.8872 7.77389,0 15.87442,6.0369 18.94478,26.9886 l 3.59298,-1.0654 c -0.58793,-11.4819 -1.43719,-19.4128 -2.28644,-28.8825 -2.54774,-1.0653 -10.06034,-4.8532 -18.35684,-4.8532 -23.71365,0 -39.45741,24.5028 -39.45741,60.1324 0,27.5805 11.30154,57.765 37.62825,57.765 6.66334,0 16.13574,-3.7878 18.68348,-4.7348 1.63317,-5.9185 4.24625,-19.5312 5.61812,-28.1723 l -3.46233,-2.7225 z"
       id="path4152"
       inkscape:connector-curvature="0" />
    <path
       inkscape:connector-curvature="0"
       style="font-style:normal;font-variant:normal;font-weight:normal;font-stretch:normal;font-size:177.97544861px;line-height:125%;font-family:'Adobe Arabic';-inkscape-font-specification:'Adobe Arabic, Normal';text-align:start;letter-spacing:0px;word-spacing:0px;writing-mode:lr-tb;text-anchor:start;fill:#000080;fill-opacity:1;stroke:none;stroke-width:1px;stroke-linecap:butt;stroke-linejoin:miter;stroke-opacity:1"
       d="m -709.60841,1331.2791 2.6819,-44.4574 -71.33859,10.8559 11.80037,-20.1609 -47.2015,-51.6946 20.91884,-4.6525 -5.3638,-26.3642 28.42816,4.6525 7.50933,-20.1609 30.03732,33.6015 -21.45523,-75.4741 20.38246,4.1355 30.27509,-31.0734 28.47352,30.8974 20.38246,-4.1355 -21.45522,75.4741 30.03731,-33.6015 7.50932,20.1609 28.42816,-4.6525 -5.3638,26.3642 20.9188,4.6525 -47.20144,51.6946 11.80037,20.1609 -71.3386,-10.8559 2.6819,44.4574 -5.77356,-0.429 z"
       id="path5749-2" />
    <path
       inkscape:connector-curvature="0"
       style="font-style:normal;font-variant:normal;font-weight:normal;font-stretch:normal;font-size:177.97544861px;line-height:125%;font-family:'Adobe Arabic';-inkscape-font-specification:'Adobe Arabic, Normal';text-align:start;letter-spacing:0px;word-spacing:0px;writing-mode:lr-tb;text-anchor:start;fill:#ffffff;fill-opacity:1;stroke:none;stroke-width:1px;stroke-linecap:butt;stroke-linejoin:miter;stroke-opacity:1"
       d="m -714.38854,1326.2118 2.6819,-44.4574 -71.33859,10.8559 11.80037,-20.1609 -47.2015,-51.6946 20.91884,-4.6525 -5.3638,-26.3642 28.42816,4.6525 7.50933,-20.1609 30.03732,33.6015 -21.45523,-75.4741 20.38246,4.1355 30.27509,-31.0734 28.47352,30.8974 20.38246,-4.1355 -21.45522,75.4741 30.03731,-33.6015 7.50932,20.1609 28.42817,-4.6525 -5.36381,26.3642 20.91883,4.6525 -47.20147,51.6946 11.80037,20.1609 -71.3386,-10.8559 2.6819,44.4574 -5.77356,-0.429 z"
       id="path5749-0-1" />
    <text
       xml:space="preserve"
       style="font-style:normal;font-variant:normal;font-weight:600;font-stretch:normal;font-size:116.00749969px;line-height:125%;font-family:'Adobe Hebrew';-inkscape-font-specification:'Adobe Hebrew, Semi-Bold';text-align:center;letter-spacing:0px;word-spacing:0px;writing-mode:lr-tb;text-anchor:middle;fill:#000080;fill-opacity:1;stroke:none;stroke-width:1px;stroke-linecap:butt;stroke-linejoin:miter;stroke-opacity:1"
       x="-1137.1183"
       y="1628.5415"
       id="text5617-7-0-1"
       sodipodi:linespacing="125%"
       transform="scale(0.74754159,1.3377182)"><tspan
         sodipodi:role="line"
         id="tspan4220-5"
         x="-1137.1183"
         y="1628.5415">EVIDENCE</tspan></text>
    <text
       xml:space="preserve"
       style="font-style:normal;font-variant:normal;font-weight:600;font-stretch:normal;font-size:116.00749969px;line-height:125%;font-family:'Adobe Hebrew';-inkscape-font-specification:'Adobe Hebrew, Semi-Bold';text-align:center;letter-spacing:0px;word-spacing:0px;writing-mode:lr-tb;text-anchor:middle;fill:#000080;fill-opacity:1;stroke:none;stroke-width:1px;stroke-linecap:butt;stroke-linejoin:miter;stroke-opacity:1"
       x="-1130.3065"
       y="1714.6263"
       id="text5617-7-0-9-7"
       sodipodi:linespacing="125%"
       transform="scale(0.74754159,1.3377182)"><tspan
         y="1714.6263"
         x="-1130.3065"
         sodipodi:role="line"
         id="tspan4240-8">ACT</tspan></text>
    <text
       xml:space="preserve"
       style="font-style:normal;font-variant:normal;font-weight:600;font-stretch:normal;font-size:116.00749969px;line-height:125%;font-family:'Adobe Hebrew';-inkscape-font-specification:'Adobe Hebrew, Semi-Bold';text-align:center;letter-spacing:0px;word-spacing:0px;writing-mode:lr-tb;text-anchor:middle;fill:#ffffff;fill-opacity:1;stroke:none;stroke-width:1px;stroke-linecap:butt;stroke-linejoin:miter;stroke-opacity:1"
       x="-1134.5962"
       y="1627.0035"
       id="text5617-7-0-92-1"
       sodipodi:linespacing="125%"
       transform="scale(0.74754159,1.3377182)"><tspan
         sodipodi:role="line"
         id="tspan4220-2-2"
         x="-1134.5962"
         y="1627.0035">EVIDENCE</tspan></text>
    <text
       xml:space="preserve"
       style="font-style:normal;font-variant:normal;font-weight:600;font-stretch:normal;font-size:116.00749969px;line-height:125%;font-family:'Adobe Hebrew';-inkscape-font-specification:'Adobe Hebrew, Semi-Bold';text-align:center;letter-spacing:0px;word-spacing:0px;writing-mode:lr-tb;text-anchor:middle;fill:#ffffff;fill-opacity:1;stroke:none;stroke-width:1px;stroke-linecap:butt;stroke-linejoin:miter;stroke-opacity:1"
       x="-1127.7844"
       y="1713.0884"
       id="text5617-7-0-9-9-3"
       sodipodi:linespacing="125%"
       transform="scale(0.74754159,1.3377182)"><tspan
         y="1713.0884"
         x="-1127.7844"
         sodipodi:role="line"
         id="tspan4240-2-8">ACT</tspan></text>
    <text
       xml:space="preserve"
       style="font-style:normal;font-variant:normal;font-weight:600;font-stretch:normal;font-size:128.47477722px;line-height:125%;font-family:'Adobe Hebrew';-inkscape-font-specification:'Adobe Hebrew, Semi-Bold';text-align:center;letter-spacing:0px;word-spacing:0px;writing-mode:lr-tb;text-anchor:middle;fill:#ffffff;fill-opacity:1;stroke:none;stroke-width:1px;stroke-linecap:butt;stroke-linejoin:miter;stroke-opacity:1"
       x="-1048.2836"
       y="2110.5674"
       id="text5617-7-0-92-1-6"
       sodipodi:linespacing="125%"
       transform="scale(0.82787952,1.2079052)"><tspan
         sodipodi:role="line"
         id="tspan4246"
         x="-1048.2836"
         y="2110.5674">IMMIGRATION</tspan></text>
    <text
       xml:space="preserve"
       style="font-style:normal;font-variant:normal;font-weight:600;font-stretch:normal;font-size:128.47477722px;line-height:125%;font-family:'Adobe Hebrew';-inkscape-font-specification:'Adobe Hebrew, Semi-Bold';text-align:center;letter-spacing:0px;word-spacing:0px;writing-mode:lr-tb;text-anchor:middle;fill:#ffffff;fill-opacity:1;stroke:none;stroke-width:1px;stroke-linecap:butt;stroke-linejoin:miter;stroke-opacity:1"
       x="-1057.1456"
       y="2217.6511"
       id="text5617-7-0-92-1-6-6"
       sodipodi:linespacing="125%"
       transform="scale(0.82787952,1.2079052)"><tspan
         sodipodi:role="line"
         id="tspan4290"
         x="-1057.1456"
         y="2217.6511">AND REFUGEE</tspan></text>
    <text
       xml:space="preserve"
       style="font-style:normal;font-variant:normal;font-weight:600;font-stretch:normal;font-size:116.00749969px;line-height:125%;font-family:'Adobe Hebrew';-inkscape-font-specification:'Adobe Hebrew, Semi-Bold';text-align:center;letter-spacing:0px;word-spacing:0px;writing-mode:lr-tb;text-anchor:middle;fill:#ffffff;fill-opacity:1;stroke:none;stroke-width:1px;stroke-linecap:butt;stroke-linejoin:miter;stroke-opacity:1"
       x="-1158.3256"
       y="2093.7097"
       id="text5617-7-0-92-1-6-6-6"
       sodipodi:linespacing="125%"
       transform="scale(0.74754159,1.3377182)"><tspan
         sodipodi:role="line"
         id="tspan4310"
         x="-1158.3256"
         y="2093.7097">PROTECTION ACT</tspan></text>
    <path
       inkscape:connector-curvature="0"
       style="font-style:normal;font-variant:normal;font-weight:normal;font-stretch:normal;font-size:177.97544861px;line-height:125%;font-family:'Adobe Arabic';-inkscape-font-specification:'Adobe Arabic, Normal';text-align:start;letter-spacing:0px;word-spacing:0px;writing-mode:lr-tb;text-anchor:start;fill:#000080;fill-opacity:1;stroke:none;stroke-width:1px;stroke-linecap:butt;stroke-linejoin:miter;stroke-opacity:1"
       d="m 297.02299,779.08653 2.68618,-43.56485 -71.45294,10.63797 11.81928,-19.75607 -47.27716,-50.65673 20.95235,-4.55905 -5.3724,-25.8349 28.47374,4.55915 7.52137,-19.75614 30.08551,32.92685 -21.48966,-73.95874 20.41515,4.05247 30.32364,-30.44952 28.51916,30.27706 20.41512,-4.05247 -21.4896,73.95873 30.08547,-32.92686 7.52133,19.75615 28.47378,-4.55915 -5.37243,25.8349 20.9524,4.55905 -47.27715,50.65673 11.81927,19.75607 -71.45297,-10.63788 2.68618,43.56476 -5.78282,-0.42044 z"
       id="path5749-2-1" />
    <path
       inkscape:connector-curvature="0"
       style="font-style:normal;font-variant:normal;font-weight:normal;font-stretch:normal;font-size:177.97544861px;line-height:125%;font-family:'Adobe Arabic';-inkscape-font-specification:'Adobe Arabic, Normal';text-align:start;letter-spacing:0px;word-spacing:0px;writing-mode:lr-tb;text-anchor:start;fill:#ffffff;fill-opacity:1;stroke:none;stroke-width:1px;stroke-linecap:butt;stroke-linejoin:miter;stroke-opacity:1"
       d="m 294.66687,777.19648 2.68619,-43.56475 -71.45295,10.63797 11.8193,-19.75617 -47.2772,-50.65663 20.95236,-4.55915 -5.37239,-25.8348 28.47375,4.55905 7.52136,-19.75609 30.08548,32.9268 -21.48961,-73.95869 20.41513,4.05247 30.32365,-30.44951 28.51915,30.27706 20.41514,-4.05246 -21.48963,73.95866 30.08548,-32.9268 7.52136,19.75609 28.47375,-4.55905 -5.37244,25.8348 20.95239,4.55915 -47.27715,50.65663 11.81929,19.75617 -71.45298,-10.63797 2.68621,43.56475 -5.78284,-0.42034 z"
       id="path5749-0" />
    <text
       xml:space="preserve"
       style="font-style:normal;font-variant:normal;font-weight:600;font-stretch:normal;font-size:123.41969299px;line-height:125%;font-family:'Adobe Hebrew';-inkscape-font-specification:'Adobe Hebrew, Semi-Bold';text-align:center;letter-spacing:0px;word-spacing:0px;writing-mode:lr-tb;text-anchor:middle;fill:#000080;fill-opacity:1;stroke:none;stroke-width:1px;stroke-linecap:butt;stroke-linejoin:miter;stroke-opacity:1"
       x="460.62186"
       y="592.69977"
       id="text5617-7-0-92-1-6-68-2"
       sodipodi:linespacing="125%"
       transform="scale(0.64751835,1.5443578)"><tspan
         sodipodi:role="line"
         id="tspan4194"
         x="460.62186"
         y="592.69977">COPYRIGHT</tspan></text>
    <text
       xml:space="preserve"
       style="font-style:normal;font-variant:normal;font-weight:600;font-stretch:normal;font-size:123.41969299px;line-height:125%;font-family:'Adobe Hebrew';-inkscape-font-specification:'Adobe Hebrew, Semi-Bold';text-align:center;letter-spacing:0px;word-spacing:0px;writing-mode:lr-tb;text-anchor:middle;fill:#ffffff;fill-opacity:1;stroke:none;stroke-width:1px;stroke-linecap:butt;stroke-linejoin:miter;stroke-opacity:1"
       x="457.62088"
       y="591.41827"
       id="text5617-7-0-92-1-6-68-2-82"
       sodipodi:linespacing="125%"
       transform="scale(0.64751835,1.5443578)"><tspan
         sodipodi:role="line"
         id="tspan4192"
         x="457.62088"
         y="591.41827">COPYRIGHT</tspan></text>
    <text
       xml:space="preserve"
       style="font-style:normal;font-variant:normal;font-weight:600;font-stretch:normal;font-size:120.84654999px;line-height:125%;font-family:'Adobe Hebrew';-inkscape-font-specification:'Adobe Hebrew, Semi-Bold';text-align:center;letter-spacing:0px;word-spacing:0px;writing-mode:lr-tb;text-anchor:middle;fill:#000080;fill-opacity:1;stroke:none;stroke-width:1px;stroke-linecap:butt;stroke-linejoin:miter;stroke-opacity:1"
       x="405.10809"
       y="750.26727"
       id="text5617-7-0-92-1-6-68-2-3"
       sodipodi:linespacing="125%"
       transform="scale(0.72530986,1.3787211)"><tspan
         sodipodi:role="line"
         id="tspan4243"
         x="405.10809"
         y="750.26727">ACT</tspan></text>
    <text
       xml:space="preserve"
       style="font-style:normal;font-variant:normal;font-weight:600;font-stretch:normal;font-size:120.84654999px;line-height:125%;font-family:'Adobe Hebrew';-inkscape-font-specification:'Adobe Hebrew, Semi-Bold';text-align:center;letter-spacing:0px;word-spacing:0px;writing-mode:lr-tb;text-anchor:middle;fill:#ffffff;fill-opacity:1;stroke:none;stroke-width:1px;stroke-linecap:butt;stroke-linejoin:miter;stroke-opacity:1"
       x="402.16965"
       y="749.01239"
       id="text5617-7-0-92-1-6-68-2-82-5"
       sodipodi:linespacing="125%"
       transform="scale(0.72530986,1.3787211)"><tspan
         sodipodi:role="line"
         id="tspan4241"
         x="402.16965"
         y="749.01239">ACT</tspan></text>
  </g>
</svg>
