<?xml version="1.0" encoding="UTF-8" standalone="no"?>
<!-- Created with Inkscape (http://www.inkscape.org/) -->

<svg
   xmlns:dc="http://purl.org/dc/elements/1.1/"
   xmlns:cc="http://creativecommons.org/ns#"
   xmlns:rdf="http://www.w3.org/1999/02/22-rdf-syntax-ns#"
   xmlns:svg="http://www.w3.org/2000/svg"
   xmlns="http://www.w3.org/2000/svg"
   xmlns:sodipodi="http://sodipodi.sourceforge.net/DTD/sodipodi-0.dtd"
   xmlns:inkscape="http://www.inkscape.org/namespaces/inkscape"
   width="512"
   height="512"
   viewBox="0 0 511.99999 511.99999"
   id="svg2"
   version="1.1"
   inkscape:version="0.91 r13725"
   inkscape:export-filename="C:\Users\gcgol\Desktop\Projects\Android Studio\reference-criminal-code\screenshots\logos\logo2.png"
   inkscape:export-xdpi="90"
   inkscape:export-ydpi="90"
   sodipodi:docname="logo.svg">
  <defs
     id="defs4" />
  <sodipodi:namedview
     id="base"
     pagecolor="#ffffff"
     bordercolor="#666666"
     borderopacity="1.0"
     inkscape:pageopacity="0.0"
     inkscape:pageshadow="2"
     inkscape:zoom="0.7"
     inkscape:cx="2.3588957"
     inkscape:cy="278.18086"
     inkscape:document-units="px"
     inkscape:current-layer="layer1"
     showgrid="false"
     units="px"
     inkscape:window-width="1474"
     inkscape:window-height="841"
     inkscape:window-x="-8"
     inkscape:window-y="-8"
     inkscape:window-maximized="1" />
  <metadata
     id="metadata7">
    <rdf:RDF>
      <cc:Work
         rdf:about="">
        <dc:format>image/svg+xml</dc:format>
        <dc:type
           rdf:resource="http://purl.org/dc/dcmitype/StillImage" />
        <dc:title></dc:title>
      </cc:Work>
    </rdf:RDF>
  </metadata>
  <g
     inkscape:label="Layer 1"
     inkscape:groupmode="layer"
     id="layer1"
     transform="translate(0,-540.36219)">
    <path
       style="fill:#ff0000;fill-rule:evenodd;stroke:none;stroke-width:1px;stroke-linecap:butt;stroke-linejoin:miter;stroke-opacity:1"
       d="m -250.87802,898.80099 3.57143,-61.42858 -95,14.99998 15.71429,-27.85712 -62.85715,-71.42857 27.85715,-6.42857 -7.14286,-36.42857 37.85714,6.42857 10,-27.85715 40,46.42858 -28.57143,-104.28572 27.14286,5.71429 40.31665,-42.93541 37.91754,42.69221 27.14286,-5.71429 -28.57143,104.28572 40,-46.42858 10,27.85715 37.85714,-6.42857 -7.14286,36.42857 27.857151,6.42857 -62.857151,71.42857 15.71429,27.85712 -95,-14.99998 3.57143,61.42858 -7.68852,-0.5927 z"
       id="path3338"
       inkscape:connector-curvature="0"
       sodipodi:nodetypes="ccccccccccccccccccccccccccc" />
    <rect
       style="fill:#ff0000;fill-opacity:1;stroke:none;stroke-width:2;stroke-miterlimit:4;stroke-dasharray:none;stroke-opacity:1"
       id="rect5600"
       width="514.28571"
       height="514.28571"
       x="-1.4285715"
       y="539.50507" />
    <flowRoot
       xml:space="preserve"
       id="flowRoot5623"
       style="fill:black;stroke:none;stroke-opacity:1;stroke-width:1px;stroke-linejoin:miter;stroke-linecap:butt;fill-opacity:1;font-family:sans-serif;font-style:normal;font-weight:normal;font-size:40px;line-height:125%;letter-spacing:0px;word-spacing:0px"><flowRegion
         id="flowRegion5625"><rect
           id="rect5627"
           width="238.57143"
           height="102.85714"
           x="57.142857"
           y="319.14285" /></flowRegion><flowPara
         id="flowPara5629"></flowPara></flowRoot>    <rect
       style="fill:#0000ff;fill-opacity:1;stroke:none;stroke-width:2;stroke-miterlimit:4;stroke-dasharray:none;stroke-opacity:1"
       id="rect5631"
       width="800"
       height="600"
       x="-897.14282"
       y="996.64789" />
    <g
       transform="scale(0.74288808,1.3460978)"
       style="font-style:normal;font-variant:normal;font-weight:bold;font-stretch:normal;font-size:180.09358215px;line-height:125%;font-family:'Adobe Arabic';-inkscape-font-specification:'Adobe Arabic, Bold';text-align:center;letter-spacing:0px;word-spacing:0px;writing-mode:lr-tb;text-anchor:middle;fill:#cccccc;fill-opacity:1;stroke:none;stroke-width:1px;stroke-linecap:butt;stroke-linejoin:miter;stroke-opacity:1"
       id="text5617" />
    <g
       transform="scale(0.92119281,1.0855491)"
       style="font-style:normal;font-variant:normal;font-weight:normal;font-stretch:normal;font-size:177.97544861px;line-height:125%;font-family:'Adobe Arabic';-inkscape-font-specification:'Adobe Arabic, Normal';text-align:start;letter-spacing:0px;word-spacing:0px;writing-mode:lr-tb;text-anchor:start;fill:#000080;fill-opacity:1;stroke:none;stroke-width:1px;stroke-linecap:butt;stroke-linejoin:miter;stroke-opacity:1"
       id="text5654">
      <path
         id="path5793"
         style="font-style:normal;font-variant:normal;font-weight:normal;font-stretch:normal;font-size:177.97544861px;line-height:125%;font-family:'Adobe Arabic';-inkscape-font-specification:'Adobe Arabic, Normal';text-align:start;writing-mode:lr-tb;text-anchor:start;fill:#000080"
         d="m 458.91769,933.19322 c -1.91185,5.12722 -4.34511,9.55923 -6.60456,12.25319 -2.95467,3.30228 -6.86526,4.1713 -16.33759,4.1713 -5.90934,0 -10.77586,0 -13.29602,-1.47733 -2.43326,-1.56424 -3.12847,-4.43201 -3.12847,-10.42825 l 0,-23.37666 11.90558,0 c 11.38417,0 12.3401,0.69522 14.16504,9.99374 l 3.91059,0 0,-24.9409 -3.91059,0 c -1.65114,8.60331 -2.52016,9.64613 -14.16504,9.64613 l -11.90558,0 0,-28.50388 c 0,-3.82369 0.2607,-4.1713 4.51891,-4.1713 l 9.64613,0 c 8.95091,0 12.51389,0.86902 14.42574,3.64989 1.65114,2.78087 3.04157,5.73554 4.2582,11.03656 l 3.9975,-0.52141 c -0.52142,-7.12597 -1.04283,-15.55547 -1.21663,-18.85775 l -58.91961,0 0,3.82369 c 10.08064,0.86902 11.21037,1.21663 11.21037,12.86151 l 0,49.79489 c 0,10.42825 -1.12973,11.64488 -12.86151,12.5139 l 0,3.64988 63.78612,0 c 1.12973,-4.08439 3.64989,-15.81617 4.51891,-20.59579 l -3.99749,-0.52141 z m -159.98672,-61.52667 0,3.9106 c 9.99374,0.78211 11.12346,1.30353 11.12346,12.25319 l 0,50.4032 c 0,10.86276 -1.12972,11.64488 -12.25319,12.427 l 0,3.64988 32.32757,0 c 16.07689,0 29.37291,-3.30227 39.36664,-10.51515 10.16755,-7.47357 16.33759,-18.85775 16.33759,-33.89181 0,-11.90558 -4.69271,-21.2041 -11.12346,-27.37415 -8.08189,-7.47358 -20.7696,-10.86276 -37.36789,-10.86276 l -38.41072,0 z m 23.28976,13.55673 c 0,-4.95342 0.43451,-6.51766 1.65113,-7.38668 1.39044,-0.86902 4.60581,-1.73804 10.42825,-1.73804 9.29853,0 17.11971,1.91184 23.11596,5.90934 9.55922,5.99624 14.68645,16.7721 14.68645,29.89431 0,19.98748 -11.64488,37.6286 -35.89056,37.6286 -9.55923,0 -13.99123,-2.34636 -13.99123,-12.427 l 0,-51.88053 z m -77.25595,-15.46857 c -28.24317,0 -45.53668,21.0303 -45.53668,44.05935 0,24.50638 19.46606,42.49511 43.88554,42.49511 24.68019,0 45.27598,-16.9459 45.27598,-44.40696 0,-25.46231 -20.68269,-42.1475 -43.53794,-42.1475 l -0.0869,0 z m -2.69396,4.77961 c 17.11971,0 31.89306,14.07814 31.89306,40.75707 0,24.59329 -13.38292,36.23817 -27.98247,36.23817 -18.68394,0 -32.50137,-17.64112 -32.50137,-41.01778 0,-24.07188 13.90433,-35.97746 28.50388,-35.97746 l 0.0869,0 z m -56.48635,56.48635 c -6.86527,13.12221 -14.25194,20.33508 -27.72177,20.33508 -20.42198,0 -35.10843,-15.98998 -35.10843,-39.97495 0,-18.94465 11.81868,-36.84648 33.97871,-36.84648 14.16504,0 22.85524,5.56173 26.41823,19.63987 l 3.91059,-0.86902 c -0.78212,-7.21287 -1.73804,-12.6877 -2.78086,-19.90058 -3.64989,-0.60831 -13.03532,-3.64988 -24.15878,-3.64988 -30.15502,0 -51.79364,17.55422 -51.79364,44.32005 0,20.07438 14.94716,42.23441 48.49136,42.23441 9.64613,0 21.1172,-2.78086 24.94089,-3.64988 2.25946,-4.0844 5.82244,-14.07814 7.56049,-20.16129 l -3.73679,-1.47733 z M 539.48302,825.2727 c -2.12747,8.28723 -4.04218,13.30318 -6.02782,16.6835 -2.48204,4.25264 -6.3824,5.34307 -10.92098,5.34307 -3.33304,0 -6.09873,-0.10899 -8.08437,-1.19946 -2.19838,-1.41755 -2.55296,-4.14361 -2.55296,-11.66754 l 0,-62.26322 c 0,-13.6303 0.99282,-14.61167 9.1481,-15.70211 l 0,-5.6702 -32.55021,0 0,5.6702 c 8.2262,1.09044 9.36084,2.07181 9.36084,15.70211 l 0,60.73662 c 0,13.84839 -1.13464,14.72073 -10.5664,15.9202 l 0,5.67019 51.98105,0 c 0.78007,-4.47072 3.04937,-20.49996 3.90036,-27.47868 l -3.68761,-1.74468 z m -56.87422,29.22336 0,-5.67019 c -6.80789,-1.30851 -8.2262,-3.48937 -11.77197,-17.55583 -6.94972,-27.2606 -13.54487,-55.06641 -20.35276,-82.87223 l -5.46048,2.07181 -21.77106,81.34563 c -3.6167,13.73935 -4.75134,15.70211 -11.98472,17.01062 l -0.14183,5.67019 23.75669,0 0,-5.67019 c -7.72979,-1.5266 -7.94254,-3.81649 -6.3824,-11.12233 1.20557,-6.4335 2.69479,-12.32179 3.90035,-17.55583 l 20.5655,0 c 1.77288,6.86967 3.40394,13.73935 4.46767,18.42817 1.56014,6.76062 1.13465,8.61435 -5.17683,10.24999 l 0,5.67019 30.35184,0 z m -31.62831,-42.85366 -16.73606,0 c 2.69479,-11.34041 5.53141,-22.89891 8.50985,-34.34835 l 0.28367,0 7.94254,34.34835 z m -39.00352,-60.84566 -25.81324,0 0,5.6702 c 7.8007,0.65426 9.99908,3.48937 10.49549,10.68616 0.21275,4.57979 0.85099,11.88562 0.85099,26.06113 l 0,27.91486 -0.28367,0 -41.62739,-70.33235 -19.64359,0 0,5.6702 c 4.39675,0.65426 6.80789,1.74468 8.79352,5.56118 2.05655,3.81648 2.2693,6.65158 2.2693,17.0106 l 0,33.25794 c 0,14.06646 -0.63825,20.71806 -1.06374,26.17018 -0.4255,6.97871 -2.97845,9.48669 -8.79352,10.35903 l 0,5.67019 25.95507,0 0,-5.67019 c -7.87162,-0.65426 -9.71542,-3.70745 -10.21183,-11.01328 -0.35458,-4.79787 -0.85098,-11.44947 -0.85098,-25.51593 l 0.0709,-36.09303 0.21275,0 45.24408,80.03712 4.96409,0 0,-63.02652 c 0,-14.17551 0.63824,-21.48134 1.06373,-26.38826 0.49641,-7.74201 2.76571,-9.81382 8.36804,-10.35903 l 0,-5.6702 z m -82.12014,103.69932 0,-5.67019 c -7.94253,-1.19947 -8.86443,-2.07181 -8.86443,-15.81115 l 0,-60.84567 c 0,-13.6303 0.9219,-14.61167 8.86443,-15.70211 l 0,-5.6702 -31.91197,0 0,5.6702 c 7.94254,1.09044 9.00627,2.07181 9.00627,15.70211 l 0,60.84567 c 0,13.73934 -1.06373,14.61168 -9.00627,15.81115 l 0,5.67019 31.91197,0 z m -38.93261,0 0,-5.67019 c -8.50986,-1.30851 -8.86444,-2.72606 -9.07719,-17.55583 l -1.06373,-58.55578 c -0.21275,-13.52125 0.21275,-14.9388 8.79352,-16.24732 l 0,-5.6702 -21.20373,0 -21.27465,70.22331 -20.84916,-70.22331 -21.91288,0 0,5.6702 c 9.21901,1.30852 9.99908,3.70745 9.07718,21.91753 l -1.63106,30.53187 c -0.85098,17.33775 -1.63105,25.40689 -2.26929,30.53188 -0.70916,5.56116 -2.76571,8.50531 -8.79352,9.37765 l 0,5.67019 25.74232,0 0,-5.67019 c -7.16247,-0.98138 -9.07718,-2.39893 -9.64451,-9.37765 -0.35457,-5.12499 -0.4964,-12.53987 -0.0709,-25.73401 l 1.4183,-41.76324 0.4255,0 21.9838,81.56372 2.83662,0 23.8276,-82.87224 0.56733,0 0.14183,60.62759 c 0.14183,14.82977 -0.49641,16.24732 -8.43894,17.55583 l 0,5.67019 31.41556,0 z m -96.37416,0 0,-5.67019 c -7.94254,-1.19947 -8.86444,-2.07181 -8.86444,-15.81115 l 0,-60.84567 c 0,-13.6303 0.9219,-14.61167 8.86444,-15.70211 l 0,-5.6702 -31.91198,0 0,5.6702 c 7.94254,1.09044 9.00628,2.07181 9.00628,15.70211 l 0,60.84567 c 0,13.73934 -1.06374,14.61168 -9.00628,15.81115 l 0,5.67019 31.91198,0 z m -36.09599,-3.92551 c -2.48204,-1.30852 -4.11309,-2.94415 -6.31148,-6.54255 -2.05654,-3.38032 -4.39676,-8.61435 -8.15528,-17.44678 -3.19119,-7.30585 -7.09155,-17.88296 -8.65169,-22.57178 7.02064,-4.14361 13.19029,-11.77658 13.19029,-25.9521 0,-9.81381 -2.90754,-16.90158 -7.02064,-21.26327 -4.32584,-4.47074 -9.71542,-5.99733 -19.28902,-5.99733 l -29.429926,0 0,5.6702 c 7.729786,0.98139 8.793516,2.83511 8.793516,15.59308 l 0,60.9547 c 0,13.08509 -1.34739,14.50264 -9.21901,15.81115 l 0,5.67019 31.98289,0 0,-5.67019 c -8.01345,-1.30851 -9.07719,-2.72606 -9.07719,-15.81115 l 0,-23.00795 2.05656,0 c 3.40394,0 5.38958,1.96276 7.16246,6.65158 3.12028,8.50531 5.88599,17.01062 8.65169,23.55317 4.25493,10.0319 8.36803,14.61167 21.84197,15.59306 1.20557,0 2.34021,0.109 2.83663,0.109 l 0.63823,-5.34308 z m -43.18754,-46.88824 0,-38.92814 c 0,-3.16223 0.21275,-4.90691 0.92191,-5.88829 0.78007,-0.98138 2.19838,-1.74468 4.96408,-1.74468 6.02782,0 12.55205,6.21542 12.55205,23.22604 0,8.06913 -1.48923,14.28454 -5.10592,19.08241 -2.34021,3.16224 -6.09873,4.25266 -10.70824,4.25266 l -2.62388,0 z m -32.266542,20.49997 c -5.53141,16.68348 -12.339298,25.07975 -21.487397,25.07975 -15.034085,0 -25.884155,-19.19146 -25.884155,-48.63291 0,-23.33507 8.580775,-45.03452 24.678592,-45.03452 8.438944,0 17.232465,5.56116 20.565495,24.86167 l 3.900354,-0.98137 c -0.638242,-10.57712 -1.560142,-17.88296 -2.48205,-26.60636 -2.7657,-0.98137 -10.920982,-4.47073 -19.92725,-4.47073 -25.742324,0 -42.832958,22.57177 -42.832958,55.39355 0,25.40687 12.26838,53.21269 40.847325,53.21269 7.23338,0 17.516127,-3.48936 20.281831,-4.3617 1.772889,-5.45212 4.609507,-17.992 6.09873,-25.9521 l -3.758517,-2.50797 z m 186.639112,-90.06382 2.91133,-40.95379 -77.44155,10.00033 12.80988,-18.57206 -51.23953,-47.62068 22.70843,-4.28586 -5.82267,-24.28655 30.86016,4.28586 8.15175,-18.57207 32.60697,30.95345 -23.29069,-69.5262 22.12616,3.80965 32.86509,-28.62459 30.90941,28.46246 22.12616,-3.80966 -23.2907,69.5262 32.60698,-30.95345 8.15173,18.57207 30.86018,-4.28586 -5.82268,24.28655 22.70844,4.28586 -51.23954,47.62068 12.80988,18.57206 -77.44156,-10.00033 2.91135,40.95379 -6.26749,-0.39515 z" />
    </g>
    <text
       xml:space="preserve"
       style="font-style:normal;font-variant:normal;font-weight:600;font-stretch:normal;font-size:116.00772858px;line-height:125%;font-family:'Adobe Hebrew';-inkscape-font-specification:'Adobe Hebrew, Semi-Bold';text-align:center;letter-spacing:0px;word-spacing:0px;writing-mode:lr-tb;text-anchor:middle;fill:#ffffff;fill-opacity:1;stroke:none;stroke-width:1px;stroke-linecap:butt;stroke-linejoin:miter;stroke-opacity:1"
       x="-600.26556"
       y="937.63849"
       id="text5617-7"
       sodipodi:linespacing="125%"
       transform="scale(0.74754159,1.3377182)"><tspan
         sodipodi:role="line"
         id="tspan5619-9"
         x="-600.26556"
         y="937.63849"
         style="font-style:normal;font-variant:normal;font-weight:600;font-stretch:normal;font-size:116.00772858px;line-height:125%;font-family:'Adobe Hebrew';-inkscape-font-specification:'Adobe Hebrew, Semi-Bold';text-align:center;writing-mode:lr-tb;text-anchor:middle;fill:#ffffff">CRIMINAL</tspan><tspan
         sodipodi:role="line"
         x="-600.26556"
         y="1082.6482"
         style="font-style:normal;font-variant:normal;font-weight:600;font-stretch:normal;font-size:116.00772858px;line-height:125%;font-family:'Adobe Hebrew';-inkscape-font-specification:'Adobe Hebrew, Semi-Bold';text-align:center;writing-mode:lr-tb;text-anchor:middle;fill:#ffffff"
         id="tspan5621-0" /></text>
    <text
       xml:space="preserve"
       style="font-style:normal;font-variant:normal;font-weight:normal;font-stretch:normal;font-size:114.49234009px;line-height:125%;font-family:'Adobe Hebrew';-inkscape-font-specification:'Adobe Hebrew, Normal';text-align:start;letter-spacing:0px;word-spacing:0px;writing-mode:lr-tb;text-anchor:start;fill:#000000;fill-opacity:1;stroke:none;stroke-width:1px;stroke-linecap:butt;stroke-linejoin:miter;stroke-opacity:1"
       x="-743.56372"
       y="1063.5918"
       id="text5654-2"
       sodipodi:linespacing="125%"
       transform="scale(0.77619473,1.2883365)"><tspan
         sodipodi:role="line"
         id="tspan5656-7"
         x="-743.56372"
         y="1063.5918"
         style="font-style:normal;font-variant:normal;font-weight:600;font-stretch:normal;font-size:114.49234009px;line-height:125%;font-family:'Adobe Hebrew';-inkscape-font-specification:'Adobe Hebrew, Semi-Bold';text-align:start;writing-mode:lr-tb;text-anchor:start;fill:#ffffff">CODE</tspan></text>
    <g
       transform="scale(0.74288808,1.3460978)"
       style="font-style:normal;font-variant:normal;font-weight:bold;font-stretch:normal;font-size:180.09358215px;line-height:125%;font-family:'Adobe Arabic';-inkscape-font-specification:'Adobe Arabic, Bold';text-align:center;letter-spacing:0px;word-spacing:0px;writing-mode:lr-tb;text-anchor:middle;fill:#ffffff;fill-opacity:1;stroke:none;stroke-width:1px;stroke-linecap:butt;stroke-linejoin:miter;stroke-opacity:1"
       id="text5617-3" />
    <g
       transform="matrix(0.92119279,0,0,1.0855491,-264.96634,-22.825603)"
       style="font-style:normal;font-variant:normal;font-weight:normal;font-stretch:normal;font-size:177.97544861px;line-height:125%;font-family:'Adobe Arabic';-inkscape-font-specification:'Adobe Arabic, Normal';text-align:start;letter-spacing:0px;word-spacing:0px;writing-mode:lr-tb;text-anchor:start;fill:#ffffff;fill-opacity:1;stroke:none;stroke-width:1px;stroke-linecap:butt;stroke-linejoin:miter;stroke-opacity:1"
       id="text5654-9">
      <path
         id="path5749"
         style="font-style:normal;font-variant:normal;font-weight:normal;font-stretch:normal;font-size:177.97544861px;line-height:125%;font-family:'Adobe Arabic';-inkscape-font-specification:'Adobe Arabic, Normal';text-align:start;writing-mode:lr-tb;text-anchor:start;fill:#ffffff"
         d="m 741.20412,949.73149 c -1.91184,5.12722 -4.3451,9.55923 -6.60455,12.25319 -2.95467,3.30228 -6.86527,4.1713 -16.33759,4.1713 -5.90934,0 -10.77586,0 -13.29602,-1.47733 -2.43326,-1.56424 -3.12848,-4.43201 -3.12848,-10.42825 l 0,-23.37666 11.90559,0 c 11.38417,0 12.34009,0.69522 14.16504,9.99374 l 3.91059,0 0,-24.9409 -3.91059,0 c -1.65114,8.60331 -2.52016,9.64613 -14.16504,9.64613 l -11.90559,0 0,-28.50388 c 0,-3.82369 0.26071,-4.1713 4.51891,-4.1713 l 9.64613,0 c 8.95092,0 12.5139,0.86902 14.42575,3.64989 1.65114,2.78087 3.04157,5.73554 4.2582,11.03656 l 3.99749,-0.52141 c -0.52141,-7.12597 -1.04282,-15.55547 -1.21662,-18.85775 l -58.91961,0 0,3.82369 c 10.08064,0.86902 11.21037,1.21663 11.21037,12.86151 l 0,49.79489 c 0,10.42825 -1.12973,11.64488 -12.86151,12.5139 l 0,3.64988 63.78612,0 c 1.12973,-4.08439 3.64989,-15.81617 4.51891,-20.59579 l -3.9975,-0.52141 z m -159.98671,-61.52667 0,3.91059 c 9.99374,0.78212 11.12346,1.30353 11.12346,12.2532 l 0,50.4032 c 0,10.86276 -1.12972,11.64488 -12.25319,12.427 l 0,3.64988 32.32757,0 c 16.07689,0 29.3729,-3.30228 39.36664,-10.51515 10.16754,-7.47358 16.33759,-18.85775 16.33759,-33.89181 0,-11.90558 -4.69271,-21.2041 -11.12346,-27.37415 -8.0819,-7.47358 -20.7696,-10.86276 -37.3679,-10.86276 l -38.41071,0 z m 23.28975,13.55672 c 0,-4.95341 0.43451,-6.51765 1.65114,-7.38667 1.39044,-0.86902 4.60581,-1.73804 10.42825,-1.73804 9.29852,0 17.11971,1.91184 23.11595,5.90934 9.55923,5.99624 14.68645,16.7721 14.68645,29.89431 0,19.98748 -11.64487,37.6286 -35.89055,37.6286 -9.55923,0 -13.99124,-2.34636 -13.99124,-12.427 l 0,-51.88054 z m -77.25594,-15.46857 c -28.24317,0 -45.53669,21.03031 -45.53669,44.05936 0,24.50638 19.46607,42.49511 43.88555,42.49511 24.68019,0 45.27598,-16.9459 45.27598,-44.40696 0,-25.46231 -20.68269,-42.14751 -43.53794,-42.14751 l -0.0869,0 z m -2.69396,4.77962 c 17.1197,0 31.89306,14.07813 31.89306,40.75707 0,24.59329 -13.38292,36.23817 -27.98247,36.23817 -18.68395,0 -32.50138,-17.64112 -32.50138,-41.01778 0,-24.07188 13.90433,-35.97746 28.50388,-35.97746 l 0.0869,0 z m -56.48636,56.48635 c -6.86526,13.12221 -14.25194,20.33508 -27.72176,20.33508 -20.42199,0 -35.10844,-15.98998 -35.10844,-39.97495 0,-18.94465 11.81869,-36.84648 33.97871,-36.84648 14.16504,0 22.85525,5.56173 26.41824,19.63987 l 3.91059,-0.86902 c -0.78212,-7.21288 -1.73804,-12.68771 -2.78087,-19.90058 -3.64988,-0.60831 -13.03531,-3.64989 -24.15877,-3.64989 -30.15502,0 -51.79364,17.55422 -51.79364,44.32006 0,20.07438 14.94716,42.23441 48.49136,42.23441 9.64613,0 21.1172,-2.78087 24.94089,-3.64989 2.25946,-4.08439 5.82244,-14.07813 7.56048,-20.16128 l -3.73679,-1.47733 z M 821.76948,841.81091 c -2.12746,8.28722 -4.04218,13.30317 -6.02782,16.68349 -2.48204,4.25266 -6.38239,5.34308 -10.92098,5.34308 -3.33303,0 -6.09874,-0.109 -8.08437,-1.19947 -2.19838,-1.41755 -2.55296,-4.14361 -2.55296,-11.66754 l 0,-62.26322 c 0,-13.6303 0.99282,-14.61167 9.1481,-15.70211 l 0,-5.67019 -32.55021,0 0,5.67019 c 8.2262,1.09044 9.36085,2.07181 9.36085,15.70211 l 0,60.73662 c 0,13.8484 -1.13465,14.72074 -10.56641,15.9202 l 0,5.67021 51.98105,0 c 0.78008,-4.47074 3.04937,-20.49998 3.90036,-27.4787 l -3.68761,-1.74467 z m -56.87423,29.22337 0,-5.67021 c -6.80788,-1.30851 -8.22619,-3.48936 -11.77197,-17.55583 -6.94972,-27.2606 -13.54485,-55.06641 -20.35274,-82.87222 l -5.4605,2.0718 -21.77106,81.34563 c -3.61669,13.73935 -4.75133,15.70211 -11.98471,17.01062 l -0.14184,5.67021 23.7567,0 0,-5.67021 c -7.72979,-1.52659 -7.94254,-3.81648 -6.3824,-11.12233 1.20557,-6.4335 2.69479,-12.32179 3.90035,-17.55583 l 20.5655,0 c 1.77289,6.86967 3.40394,13.73935 4.46767,18.42817 1.56015,6.76063 1.13465,8.61435 -5.17683,10.24999 l 0,5.67021 30.35183,0 z m -31.62831,-42.85367 -16.73606,0 c 2.69479,-11.34042 5.53142,-22.89891 8.50987,-34.34836 l 0.28366,0 7.94253,34.34836 z m -39.00352,-60.84566 -25.81324,0 0,5.67019 c 7.80071,0.65426 9.99909,3.48937 10.4955,10.68616 0.21275,4.57979 0.85098,11.88563 0.85098,26.06114 l 0,27.91485 -0.28366,0 -41.62739,-70.33234 -19.6436,0 0,5.67019 c 4.39676,0.65426 6.80789,1.74469 8.79352,5.56118 2.05656,3.81648 2.2693,6.65158 2.2693,17.01061 l 0,33.25793 c 0,14.06648 -0.63824,20.71806 -1.06373,26.17018 -0.4255,6.97871 -2.97846,9.48669 -8.79352,10.35903 l 0,5.67021 25.95507,0 0,-5.67021 c -7.87162,-0.65425 -9.71543,-3.70745 -10.21183,-11.01328 -0.35458,-4.79787 -0.85099,-11.44945 -0.85099,-25.51593 l 0.0709,-36.09303 0.21275,0 45.24409,80.03713 4.96408,0 0,-63.02652 c 0,-14.17551 0.63824,-21.48135 1.06374,-26.38827 0.4964,-7.742 2.7657,-9.8138 8.36802,-10.35903 l 0,-5.67019 z m -82.12013,103.69933 0,-5.67021 c -7.94254,-1.19946 -8.86443,-2.0718 -8.86443,-15.81115 l 0,-60.84567 c 0,-13.6303 0.92189,-14.61167 8.86443,-15.70211 l 0,-5.67019 -31.91197,0 0,5.67019 c 7.94253,1.09044 9.00627,2.07181 9.00627,15.70211 l 0,60.84567 c 0,13.73935 -1.06374,14.61169 -9.00627,15.81115 l 0,5.67021 31.91197,0 z m -38.93262,0 0,-5.67021 c -8.50986,-1.30851 -8.86444,-2.72606 -9.07719,-17.55583 l -1.06372,-58.55577 c -0.21275,-13.52126 0.21274,-14.93881 8.79351,-16.24733 l 0,-5.67019 -21.20373,0 -21.27464,70.22331 -20.84916,-70.22331 -21.91289,0 0,5.67019 c 9.21902,1.30852 9.99909,3.70745 9.07719,21.91753 l -1.63106,30.53187 c -0.85099,17.33775 -1.63106,25.40689 -2.2693,30.53188 -0.70916,5.56117 -2.7657,8.50531 -8.79352,9.37765 l 0,5.67021 25.74233,0 0,-5.67021 c -7.16247,-0.98138 -9.07719,-2.39893 -9.64451,-9.37765 -0.35458,-5.12499 -0.49641,-12.53987 -0.0709,-25.73401 l 1.41831,-41.76324 0.4255,0 21.9838,81.56372 2.83662,0 23.82761,-82.87222 0.56732,0 0.14183,60.62757 c 0.14183,14.82977 -0.49641,16.24732 -8.43894,17.55583 l 0,5.67021 31.41556,0 z m -96.37416,0 0,-5.67021 c -7.94253,-1.19946 -8.86444,-2.0718 -8.86444,-15.81115 l 0,-60.84567 c 0,-13.6303 0.92191,-14.61167 8.86444,-15.70211 l 0,-5.67019 -31.91197,0 0,5.67019 c 7.94254,1.09044 9.00626,2.07181 9.00626,15.70211 l 0,60.84567 c 0,13.73935 -1.06372,14.61169 -9.00626,15.81115 l 0,5.67021 31.91197,0 z m -36.09598,-3.92553 c -2.48205,-1.30851 -4.11311,-2.94414 -6.31148,-6.54255 -2.05656,-3.38032 -4.39676,-8.61435 -8.15529,-17.44678 -3.19119,-7.30585 -7.09154,-17.88296 -8.65169,-22.57178 7.02064,-4.14361 13.19029,-11.77658 13.19029,-25.95209 0,-9.81382 -2.90754,-16.90157 -7.02064,-21.26328 -4.32585,-4.47074 -9.71542,-5.99732 -19.28901,-5.99732 l -29.42993,0 0,5.67019 c 7.72979,0.98139 8.79351,2.83511 8.79351,15.59308 l 0,60.9547 c 0,13.08509 -1.34739,14.50264 -9.21901,15.81115 l 0,5.67021 31.98289,0 0,-5.67021 c -8.01345,-1.30851 -9.07718,-2.72606 -9.07718,-15.81115 l 0,-23.00794 2.05654,0 c 3.40395,0 5.38958,1.96275 7.16247,6.65158 3.12028,8.50531 5.88599,17.01062 8.65169,23.55316 4.25493,10.0319 8.36803,14.61168 21.84198,15.59306 1.20556,0 2.34021,0.109 2.83661,0.109 l 0.63825,-5.34308 z m -43.18754,-46.88824 0,-38.92814 c 0,-3.16223 0.21275,-4.90691 0.9219,-5.88829 0.78007,-0.98137 2.19838,-1.74468 4.96409,-1.74468 6.02781,0 12.55203,6.21542 12.55203,23.22604 0,8.06914 -1.48922,14.28456 -5.10591,19.08241 -2.34021,3.16224 -6.09873,4.25266 -10.70823,4.25266 l -2.62388,0 z m -32.26655,20.49998 c -5.53141,16.68349 -12.3393,25.07975 -21.4874,25.07975 -15.03409,0 -25.88416,-19.19147 -25.88416,-48.63292 0,-23.33507 8.58078,-45.03451 24.6786,-45.03451 8.43894,0 17.23246,5.56117 20.56549,24.86166 l 3.90035,-0.98137 c -0.63823,-10.57712 -1.56014,-17.88296 -2.48204,-26.60634 -2.7657,-0.98139 -10.92099,-4.47074 -19.92725,-4.47074 -25.74233,0 -42.83296,22.57176 -42.83296,55.39354 0,25.40688 12.26838,53.21269 40.84732,53.21269 7.23338,0 17.51613,-3.48936 20.28183,-4.3617 1.77289,-5.45212 4.60951,-17.99199 6.09874,-25.9521 l -3.75852,-2.50796 z m 186.6391,-90.06384 2.91134,-40.95379 -77.44155,10.00034 12.80988,-18.57206 -51.23954,-47.62069 22.70843,-4.28585 -5.82267,-24.28655 30.86016,4.28586 8.15175,-18.57207 32.60698,30.95345 -23.2907,-69.52621 22.12616,3.80966 32.8651,-28.62459 30.9094,28.46245 22.12616,-3.80965 -23.29069,69.5262 32.60697,-30.95345 8.15174,18.57207 30.86017,-4.28586 -5.82268,24.28655 22.70844,4.28586 -51.23953,47.62068 12.80988,18.57206 -77.44156,-10.00033 2.91134,40.95379 -6.26748,-0.39515 z"
         inkscape:connector-curvature="0" />
    </g>
  </g>
</svg>
